{
.appVersion = "1346";
DisplayStrings = (
H,
"café/space über\012UBERMENSCH"
);
classes = (
{
code = "zero one two three four five six seven eight nine parenleft parenright";
name = standard;
},
{
code = "zerosuperior onesuperior twosuperior threesuperior foursuperior fivesuperior sixsuperior sevensuperior eightsuperior ninesuperior parenleftsuperior parenrightsuperior";
name = sups;
},
{
code = "zeroinferior oneinferior twoinferior threeinferior fourinferior fiveinferior sixinferior seveninferior eightinferior nineinferior parenleftinferior parenrightinferior";
name = subs;
},
{
code = "zero.numerator one.numerator two.numerator three.numerator four.numerator five.numerator six.numerator seven.numerator eight.numerator nine.numerator parenleft.numerator parenright.numerator";
name = numerator;
},
{
code = "zero.denominator one.denominator two.denominator three.denominator four.denominator five.denominator six.denominator seven.denominator eight.denominator nine.denominator parenleft.denominator parenright.denominator";
name = denominator;
},
{
code = "zero.otlf one.otlf two.otlf three.otlf four.otlf five.otlf six.otlf seven.otlf eight.otlf nine.otlf parenleft.otlf parenright.otlf";
name = tnum1;
},
{
code = "alef-hb bet-hb gimel-hb dalet-hb he-hb vav-hb zayin-hb het-hb tet-hb yod-hb finalkaf-hb kaf-hb lamed-hb finalmem-hb mem-hb finalnun-hb nun-hb samekh-hb ayin-hb finalpe-hb pe-hb finaltsadi-hb tsadi-hb qof-hb resh-hb shin-hb tav-hb ";
name = HebrewLetters;
}
);
copyright = "Copyright 2015 The Rubik Project Authors (https://github.com/googlefonts/rubik)";
customParameters = (
{
name = license;
value = "This Font Software is licensed under the SIL Open Font License, Version 1.1. This license is available with a FAQ at: http://scripts.sil.org/OFL";
},
{
name = licenseURL;
value = "http://scripts.sil.org/OFL";
},
{
name = fsType;
value = (
);
},
{
name = "Use Typo Metrics";
value = 1;
},
{
name = "Disable Last Change";
value = 1;
},
{
name = "Use Line Breaks";

glyphs = (
{
color = 1;
glyphname = A;
layers = (
{
anchors = (
{
name = bottom;
position = "{378, 0}";
},
{
name = ogonek;
position = "{679, 10}";
},
{
name = top;
position = "{378, 700}";
}
);
layerId = "EC64484B-0978-4CB1-9EE9-C40A2D8C4059";
paths = (
{
closed = 1;
nodes = (
"554 754 OFFCURVE",
"580 717 OFFCURVE",
"591 677 CURVE",
"594 719 OFFCURVE",
"565 760 OFFCURVE",
"528 777 CURVE SMOOTH",
"490 794 OFFCURVE",
"440 790 OFFCURVE",
"411 760 CURVE",
"449 778 OFFCURVE",
"493 782 OFFCURVE",
"524 768 CURVE SMOOTH"
);
},
{
closed = 1;
nodes = (
"407 705 OFFCURVE",
"445 690 OFFCURVE",
"470 660 CURVE",
"460 689 OFFCURVE",
"431 715 OFFCURVE",
"400 725 CURVE",
"435 736 OFFCURVE",
"471 733 OFFCURVE",
"498 720 CURVE SMOOTH",
"528 705 OFFCURVE",
"555 672 OFFCURVE",
"565 631 CURVE",
"569 673 OFFCURVE",
"544 719 OFFCURVE",
"507 738 CURVE SMOOTH",
"473 755 OFFCURVE",
"426 750 OFFCURVE",
"395 727 CURVE",
"389 728 OFFCURVE",
"382 729 OFFCURVE",
"376 729 CURVE SMOOTH",
"336 729 OFFCURVE",
"294 697 OFFCURVE",
"281 660 CURVE",
"306 690 OFFCURVE",
"344 705 OFFCURVE",
"376 705 CURVE SMOOTH"
);
},
{
closed = 1;
nodes = (
"559 572 OFFCURVE",
"561 539 OFFCURVE",
"544 509 CURVE",
"570 531 OFFCURVE",
"584 575 OFFCURVE",
"572 606 CURVE SMOOTH",
"559 638 OFFCURVE",
"520 661 OFFCURVE",
"486 660 CURVE",
"518 649 OFFCURVE",
"539 623 OFFCURVE",
"549 598 CURVE SMOOTH"
);
},
{
closed = 1;
nodes = (
"192 535 OFFCURVE",
"193 569 OFFCURVE",
"202 595 CURVE SMOOTH",
"211 621 OFFCURVE",
"232 648 OFFCURVE",
"265 659 CURVE",
"230 659 OFFCURVE",
"191 635 OFFCURVE",
"180 603 CURVE SMOOTH",
"168 571 OFFCURVE",
"183 527 OFFCURVE",
"210 505 CURVE"
);
},
{
closed = 1;
nodes = (
"37 308 OFFCURVE",
"31 359 OFFCURVE",
"44 397 CURVE",
"49 391 OFFCURVE",
"54 385 OFFCURVE",
"60 380 CURVE",
"55 388 OFFCURVE",
"51 397 OFFCURVE",
"48 406 CURVE",
"63 440 OFFCURVE",
"98 471 OFFCURVE",
"140 488 CURVE",
"101 487 OFFCURVE",
"63 464 OFFCURVE",
"40 431 CURVE",
"35 453 OFFCURVE",
"35 474 OFFCURVE",
"41 492 CURVE SMOOTH",
"52 524 OFFCURVE",
"87 553 OFFCURVE",
"126 568 CURVE",
"84 568 OFFCURVE",
"46 535 OFFCURVE",
"32 495 CURVE SMOOTH",
"24 471 OFFCURVE",
"24 444 OFFCURVE",
"33 420 CURVE",
"30 414 OFFCURVE",
"27 409 OFFCURVE",
"25 403 CURVE SMOOTH",
"9 357 OFFCURVE",
"24 297 OFFCURVE",
"62 265 CURVE"
);
},
{
closed = 1;
nodes = (
"604 420 OFFCURVE",
"607 394 OFFCURVE",
"593 370 CURVE",
"614 387 OFFCURVE",
"629 423 OFFCURVE",
"620 449 CURVE SMOOTH",
"611 475 OFFCURVE",
"577 494 OFFCURVE",
"549 494 CURVE",
"575 484 OFFCURVE",
"590 462 OFFCURVE",
"597 441 CURVE SMOOTH"
);
},
{
closed = 1;
nodes = (
"140 378 OFFCURVE",
"141 408 OFFCURVE",
"150 431 CURVE SMOOTH",
"158 455 OFFCURVE",
"175 479 OFFCURVE",
"204 490 CURVE",
"173 490 OFFCURVE",
"137 468 OFFCURVE",
"127 439 CURVE SMOOTH",
"117 410 OFFCURVE",
"132 371 OFFCURVE",
"156 351 CURVE"
);
},
{
closed = 1;
nodes = (
"415 474 LINE",
"405 468 OFFCURVE",
"393 471 OFFCURVE",
"383 472 CURVE SMOOTH",
"372 474 OFFCURVE",
"359 472 OFFCURVE",
"351 484 CURVE",
"354 470 OFFCURVE",
"367 450 OFFCURVE",
"381 448 CURVE SMOOTH",
"386 448 OFFCURVE",
"392 450 OFFCURVE",
"397 453 CURVE",
"384 434 OFFCURVE",
"379 409 OFFCURVE",
"385 388 CURVE SMOOTH",
"394 358 OFFCURVE",
"430 335 OFFCURVE",
"461 333 CURVE",
"432 345 OFFCURVE",
"415 371 OFFCURVE",
"408 395 CURVE SMOOTH",
"401 417 OFFCURVE",
"400 446 OFFCURVE",
"414 470 CURVE SMOOTH",
"417 476 LINE"
);
},
{
closed = 1;
nodes = (
"327 353 OFFCURVE",
"360 374 OFFCURVE",
"368 401 CURVE SMOOTH",
"377 428 OFFCURVE",
"360 463 OFFCURVE",
"338 480 CURVE",
"353 457 OFFCURVE",
"352 429 OFFCURVE",
"345 408 CURVE SMOOTH",
"339 386 OFFCURVE",
"325 363 OFFCURVE",
"299 352 CURVE"
);
},
{
closed = 1;
nodes = (
"783 207 OFFCURVE",
"768 224 OFFCURVE",
"750 236 CURVE",
"782 265 OFFCURVE",
"790 317 OFFCURVE",
"776 357 CURVE SMOOTH",
"762 400 OFFCURVE",
"720 436 OFFCURVE",
"675 436 CURVE",
"717 420 OFFCURVE",
"755 388 OFFCURVE",
"767 354 CURVE SMOOTH",
"779 321 OFFCURVE",
"770 275 OFFCURVE",
"748 237 CURVE",
"733 247 OFFCURVE",
"714 254 OFFCURVE",
"696 254 CURVE",
"733 240 OFFCURVE",
"761 210 OFFCURVE",
"771 181 CURVE SMOOTH",
"782 151 OFFCURVE",
"779 110 OFFCURVE",
"758 77 CURVE",
"789 102 OFFCURVE",
"803 150 OFFCURVE",
"790 187 CURVE SMOOTH"
);
},
{
closed = 1;
nodes = (
"382 383 OFFCURVE",
"376 394 OFFCURVE",
"373 393 CURVE SMOOTH",
"370 392 OFFCURVE",
"370 380 OFFCURVE",
"369 377 CURVE",
"371 380 OFFCURVE",
"375 373 OFFCURVE",
"378 373 CURVE",
"380 374 OFFCURVE",
"381 382 OFFCURVE",
"384 381 CURVE"
);
},
{
closed = 1;
nodes = (
"651 283 OFFCURVE",
"654 257 OFFCURVE",
"640 234 CURVE",
"661 251 OFFCURVE",
"675 286 OFFCURVE",
"666 311 CURVE SMOOTH",
"658 336 OFFCURVE",
"625 354 OFFCURVE",
"598 355 CURVE",
"623 345 OFFCURVE",
"637 323 OFFCURVE",
"644 303 CURVE SMOOTH"
);
},
{
closed = 1;
nodes = (
"351 338 OFFCURVE",
"317 343 OFFCURVE",
"294 337 CURVE",
"318 335 OFFCURVE",
"334 320 OFFCURVE",
"346 304 CURVE SMOOTH",
"357 289 OFFCURVE",
"367 269 OFFCURVE",
"362 246 CURVE",
"375 266 OFFCURVE",
"379 300 OFFCURVE",
"365 319 CURVE SMOOTH"
);
},
{
closed = 1;
nodes = (
"119 336 OFFCURVE",
"82 313 OFFCURVE",
"71 283 CURVE SMOOTH",
"61 253 OFFCURVE",
"76 213 OFFCURVE",
"101 193 CURVE",
"84 220 OFFCURVE",
"86 251 OFFCURVE",
"94 275 CURVE SMOOTH",
"102 300 OFFCURVE",
"121 325 OFFCURVE",
"150 336 CURVE"
);
},
{
closed = 1;
nodes = (
"423 311 OFFCURVE",
"442 322 OFFCURVE",
"466 318 CURVE",
"445 330 OFFCURVE",
"411 333 OFFCURVE",
"393 318 CURVE SMOOTH",
"374 303 OFFCURVE",
"370 269 OFFCURVE",
"378 246 CURVE",
"378 270 OFFCURVE",
"393 287 OFFCURVE",
"408 299 CURVE SMOOTH"
);
},
{
closed = 1;
nodes = (
"669 210 OFFCURVE",
"681 190 OFFCURVE",
"687 171 CURVE SMOOTH",
"694 152 OFFCURVE",
"697 128 OFFCURVE",
"685 106 CURVE",
"704 122 OFFCURVE",
"718 155 OFFCURVE",
"710 179 CURVE SMOOTH",
"702 202 OFFCURVE",
"670 219 OFFCURVE",
"645 219 CURVE"
);
},
{
closed = 1;
nodes = (
"93 166 OFFCURVE",
"88 175 OFFCURVE",
"95 178 CURVE",
"88 178 OFFCURVE",
"70 176 OFFCURVE",
"68 168 CURVE SMOOTH",
"66 161 OFFCURVE",
"78 149 OFFCURVE",
"84 144 CURVE",
"80 150 OFFCURVE",
"89 155 OFFCURVE",
"91 161 CURVE SMOOTH"
);
},
{
closed = 1;
nodes = (
"45 120 OFFCURVE",
"60 139 OFFCURVE",
"84 144 CURVE",
"59 147 OFFCURVE",
"26 135 OFFCURVE",
"15 114 CURVE SMOOTH",
"4 92 OFFCURVE",
"13 58 OFFCURVE",
"30 40 CURVE",
"20 63 OFFCURVE",
"27 85 OFFCURVE",
"36 103 CURVE SMOOTH"
);
},
{
closed = 1;
nodes = (
"375 21 OFFCURVE",
"352 35 OFFCURVE",
"337 57 CURVE",
"356 75 OFFCURVE",
"368 105 OFFCURVE",
"366 131 CURVE",
"356 98 OFFCURVE",
"331 76 OFFCURVE",
"307 64 CURVE SMOOTH",
"282 53 OFFCURVE",
"248 50 OFFCURVE",
"218 65 CURVE",
"241 40 OFFCURVE",
"285 29 OFFCURVE",
"316 43 CURVE SMOOTH",
"322 45 OFFCURVE",
"327 49 OFFCURVE",
"332 53 CURVE",
"342 27 OFFCURVE",
"366 3 OFFCURVE",
"393 -3 CURVE SMOOTH",
"426 -11 OFFCURVE",
"465 7 OFFCURVE",
"484 36 CURVE",
"457 15 OFFCURVE",
"424 10 OFFCURVE",
"397 16 CURVE SMOOTH"
);
},
{
closed = 1;
nodes = (
"475 80 OFFCURVE",
"504 105 OFFCURVE",
"513 131 CURVE",
"495 110 OFFCURVE",
"469 104 OFFCURVE",
"447 104 CURVE SMOOTH",
"425 104 OFFCURVE",
"399 110 OFFCURVE",
"381 131 CURVE",
"391 105 OFFCURVE",
"420 80 OFFCURVE",
"447 80 CURVE SMOOTH"
);
},
{
closed = 1;
nodes = (
"574 16 OFFCURVE",
"615 22 OFFCURVE",
"639 40 CURVE",
"610 31 OFFCURVE",
"582 39 OFFCURVE",
"562 52 CURVE SMOOTH",
"542 65 OFFCURVE",
"522 87 OFFCURVE",
"518 116 CURVE",
"512 87 OFFCURVE",
"524 48 OFFCURVE",
"549 32 CURVE SMOOTH"
);
},
{
closed = 1;
nodes = (
"672 53 OFFCURVE",
"667 41 OFFCURVE",
"654 40 CURVE",
"667 37 OFFCURVE",
"690 37 OFFCURVE",
"697 48 CURVE SMOOTH",
"705 59 OFFCURVE",
"697 81 OFFCURVE",
"690 91 CURVE",
"693 79 OFFCURVE",
"684 70 OFFCURVE",
"678 62 CURVE SMOOTH"
);
},
{
closed = 1;
nodes = (
"60 8 OFFCURVE",
"98 -19 OFFCURVE",
"133 -17 CURVE SMOOTH",
"168 -15 OFFCURVE",
"202 16 OFFCURVE",
"212 50 CURVE",
"191 22 OFFCURVE",
"159 9 OFFCURVE",
"131 7 CURVE SMOOTH",
"103 5 OFFCURVE",
"70 15 OFFCURVE",
"46 40 CURVE"
);
},
{
closed = 1;
nodes = (
"166 -46 OFFCURVE",
"130 -41 OFFCURVE",
"101 -20 CURVE",
"117 -43 OFFCURVE",
"146 -59 OFFCURVE",
"175 -61 CURVE",
"134 -89 OFFCURVE",
"82 -105 OFFCURVE",
"43 -96 CURVE SMOOTH",
"4 -86 OFFCURVE",
"-34 -47 OFFCURVE",
"-56 -2 CURVE",
"-51 -52 OFFCURVE",
"-8 -93 OFFCURVE",
"41 -105 CURVE SMOOTH",
"90 -118 OFFCURVE",
"146 -102 OFFCURVE",
"175 -61 CURVE",
"183 -61 OFFCURVE",
"191 -61 OFFCURVE",
"198 -59 CURVE SMOOTH",
"233 -50 OFFCURVE",
"263 -14 OFFCURVE",
"266 22 CURVE",
"251 -11 OFFCURVE",
"221 -32 OFFCURVE",
"194 -39 CURVE SMOOTH"
);
},
{
closed = 1;
nodes = (
"543 -100 OFFCURVE",
"507 -74 OFFCURVE",
"483 -39 CURVE",
"493 -79 OFFCURVE",
"534 -109 OFFCURVE",
"576 -114 CURVE SMOOTH",
"617 -118 OFFCURVE",
"663 -98 OFFCURVE",
"682 -60 CURVE",
"652 -89 OFFCURVE",
"610 -108 OFFCURVE",
"577 -104 CURVE SMOOTH"
);
}
);
width = 755;
}
);
leftKerningGroup = A;
rightKerningGroup = A;
unicode = 0041;
userData = {
com.typemytype.robofont.guides = (
{
angle = 0;
isGlobal = 0;
magnetic = 5;
x = 0;
y = 680;
},
{
angle = 90;
isGlobal = 0;
magnetic = 5;
x = 35;
y = 0;
},
{
angle = 90;
isGlobal = 0;
magnetic = 5;
x = 637;
y = 0;
},
{
angle = 90;
isGlobal = 0;
magnetic = 5;
x = 336;
y = 0;
}
);
};
},
{
color = 1;
glyphname = Aogonek;
layers = (
{
hints = (
{
horizontal = 1;
place = "{-2147483648, 0}";
type = Tag;
name = hr01;
}
);
layerId = "EC64484B-0978-4CB1-9EE9-C40A2D8C4059";
paths = (
{
closed = 1;
nodes = (
"225 765 OFFCURVE",
"267 769 OFFCURVE",
"305 760 CURVE",
"272 782 OFFCURVE",
"226 777 OFFCURVE",
"194 754 CURVE SMOOTH",
"163 732 OFFCURVE",
"144 688 OFFCURVE",
"155 651 CURVE",
"158 690 OFFCURVE",
"175 728 OFFCURVE",
"200 746 CURVE SMOOTH"
);
},
{
closed = 1;
nodes = (
"209 717 OFFCURVE",
"184 670 OFFCURVE",
"189 628 CURVE",
"198 669 OFFCURVE",
"225 703 OFFCURVE",
"255 719 CURVE SMOOTH",
"285 734 OFFCURVE",
"329 736 OFFCURVE",
"368 720 CURVE",
"337 749 OFFCURVE",
"284 756 OFFCURVE",
"246 736 CURVE SMOOTH"
);
},
{
closed = 1;
nodes = (
"281 692 OFFCURVE",
"258 661 OFFCURVE",
"254 633 CURVE",
"267 658 OFFCURVE",
"291 669 OFFCURVE",
"313 674 CURVE SMOOTH",
"335 678 OFFCURVE",
"362 677 OFFCURVE",
"383 660 CURVE",
"369 684 OFFCURVE",
"336 703 OFFCURVE",
"308 697 CURVE SMOOTH"
);
},
{
closed = 1;
nodes = (
"497 633 OFFCURVE",
"516 611 OFFCURVE",
"519 581 CURVE",
"526 610 OFFCURVE",
"515 650 OFFCURVE",
"490 666 CURVE SMOOTH",
"464 683 OFFCURVE",
"423 678 OFFCURVE",
"399 660 CURVE",
"428 669 OFFCURVE",
"456 660 OFFCURVE",
"476 646 CURVE SMOOTH"
);
},
{
closed = 1;
nodes = (
"219 618 OFFCURVE",
"183 597 OFFCURVE",
"173 569 CURVE SMOOTH",
"163 540 OFFCURVE",
"178 502 OFFCURVE",
"202 483 CURVE",
"186 509 OFFCURVE",
"188 538 OFFCURVE",
"196 561 CURVE SMOOTH",
"204 584 OFFCURVE",
"221 608 OFFCURVE",
"249 618 CURVE"
);
},
{
closed = 1;
nodes = (
"601 468 OFFCURVE",
"601 432 OFFCURVE",
"582 400 CURVE",
"606 419 OFFCURVE",
"621 455 OFFCURVE",
"618 487 CURVE",
"652 473 OFFCURVE",
"680 449 OFFCURVE",
"697 422 CURVE",
"694 415 OFFCURVE",
"691 408 OFFCURVE",
"687 402 CURVE",
"692 406 OFFCURVE",
"697 411 OFFCURVE",
"701 416 CURVE",
"704 410 OFFCURVE",
"707 404 OFFCURVE",
"709 398 CURVE SMOOTH",
"722 361 OFFCURVE",
"716 311 OFFCURVE",
"691 269 CURVE",
"729 300 OFFCURVE",
"744 359 OFFCURVE",
"728 405 CURVE SMOOTH",
"724 416 OFFCURVE",
"719 426 OFFCURVE",
"712 435 CURVE",
"726 463 OFFCURVE",
"727 497 OFFCURVE",
"717 527 CURVE SMOOTH",
"702 570 OFFCURVE",
"661 605 OFFCURVE",
"616 606 CURVE",
"658 590 OFFCURVE",
"696 558 OFFCURVE",
"708 524 CURVE SMOOTH",
"716 501 OFFCURVE",
"714 472 OFFCURVE",
"705 443 CURVE",
"683 469 OFFCURVE",
"650 486 OFFCURVE",
"618 488 CURVE",
"617 493 OFFCURVE",
"616 499 OFFCURVE",
"614 504 CURVE SMOOTH",
"602 539 OFFCURVE",
"561 565 OFFCURVE",
"524 566 CURVE",
"559 553 OFFCURVE",
"582 524 OFFCURVE",
"592 496 CURVE SMOOTH"
);
},
{
closed = 1;
nodes = (
"372 433 OFFCURVE",
"362 453 OFFCURVE",
"347 467 CURVE",
"347 473 OFFCURVE",
"346 478 OFFCURVE",
"347 484 CURVE",
"345 480 OFFCURVE",
"344 476 OFFCURVE",
"343 472 CURVE",
"341 473 OFFCURVE",
"339 475 OFFCURVE",
"337 476 CURVE",
"342 468 LINE",
"337 444 OFFCURVE",
"342 416 OFFCURVE",
"357 399 CURVE",
"354 380 LINE",
"351 379 OFFCURVE",
"349 377 OFFCURVE",
"348 375 CURVE",
"348 373 OFFCURVE",
"349 370 OFFCURVE",
"350 368 CURVE",
"340 338 OFFCURVE",
"316 310 OFFCURVE",
"282 295 CURVE",
"322 297 OFFCURVE",
"364 328 OFFCURVE",
"375 366 CURVE SMOOTH",
"377 372 OFFCURVE",
"378 378 OFFCURVE",
"378 384 CURVE",
"400 376 OFFCURVE",
"426 376 OFFCURVE",
"445 386 CURVE",
"417 383 OFFCURVE",
"393 396 OFFCURVE",
"376 413 CURVE"
);
},
{
closed = 1;
nodes = (
"136 361 OFFCURVE",
"138 390 OFFCURVE",
"145 412 CURVE SMOOTH",
"153 434 OFFCURVE",
"169 457 OFFCURVE",
"196 468 CURVE",
"167 467 OFFCURVE",
"132 447 OFFCURVE",
"123 420 CURVE SMOOTH",
"113 392 OFFCURVE",
"128 355 OFFCURVE",
"150 336 CURVE"
);
},
{
closed = 1;
nodes = (
"401 295 OFFCURVE",
"379 269 OFFCURVE",
"374 246 CURVE",
"387 265 OFFCURVE",
"408 271 OFFCURVE",
"427 273 CURVE SMOOTH",
"446 275 OFFCURVE",
"468 274 OFFCURVE",
"485 257 CURVE",
"482 262 OFFCURVE",
"478 268 OFFCURVE",
"474 273 CURVE",
"476 272 OFFCURVE",
"478 272 OFFCURVE",
"480 272 CURVE",
"475 274 OFFCURVE",
"470 277 OFFCURVE",
"466 280 CURVE SMOOTH",
"465 281 OFFCURVE",
"465 282 OFFCURVE",
"464 282 CURVE",
"451 293 OFFCURVE",
"444 308 OFFCURVE",
"440 322 CURVE SMOOTH",
"434 341 OFFCURVE",
"432 365 OFFCURVE",
"445 386 CURVE",
"425 371 OFFCURVE",
"410 339 OFFCURVE",
"417 315 CURVE SMOOTH",
"419 308 OFFCURVE",
"423 302 OFFCURVE",
"427 297 CURVE",
"424 297 LINE SMOOTH"
);
},
{
closed = 1;
nodes = (
"671 355 OFFCURVE",
"628 384 OFFCURVE",
"587 385 CURVE",
"625 371 OFFCURVE",
"651 340 OFFCURVE",
"662 310 CURVE SMOOTH",
"672 279 OFFCURVE",
"671 239 OFFCURVE",
"650 204 CURVE",
"682 230 OFFCURVE",
"698 279 OFFCURVE",
"684 317 CURVE SMOOTH"
);
},
{
closed = 1;
nodes = (
"146 311 OFFCURVE",
"140 319 OFFCURVE",
"145 321 CURVE",
"139 321 OFFCURVE",
"123 320 OFFCURVE",
"121 314 CURVE SMOOTH",
"119 309 OFFCURVE",
"132 298 OFFCURVE",
"136 295 CURVE",
"133 300 OFFCURVE",
"143 302 OFFCURVE",
"144 307 CURVE"
);
},
{
closed = 1;
nodes = (
"315 305 OFFCURVE",
"290 293 OFFCURVE",
"277 280 CURVE",
"294 288 OFFCURVE",
"310 282 OFFCURVE",
"323 276 CURVE SMOOTH",
"337 270 OFFCURVE",
"352 264 OFFCURVE",
"358 246 CURVE",
"359 264 OFFCURVE",
"349 291 OFFCURVE",
"332 298 CURVE SMOOTH"
);
},
{
closed = 1;
nodes = (
"48 242 OFFCURVE",
"45 236 OFFCURVE",
"43 230 CURVE SMOOTH",
"30 194 OFFCURVE",
"46 146 OFFCURVE",
"76 121 CURVE",
"56 154 OFFCURVE",
"55 193 OFFCURVE",
"65 222 CURVE SMOOTH",
"75 251 OFFCURVE",
"100 281 OFFCURVE",
"136 295 CURVE",
"105 294 OFFCURVE",
"72 276 OFFCURVE",
"53 250 CURVE",
"8 248 OFFCURVE",
"-37 213 OFFCURVE",
"-53 170 CURVE SMOOTH",
"-68 126 OFFCURVE",
"-53 69 OFFCURVE",
"-17 39 CURVE",
"-41 79 OFFCURVE",
"-46 128 OFFCURVE",
"-34 163 CURVE SMOOTH",
"-22 198 OFFCURVE",
"10 231 OFFCURVE",
"52 248 CURVE"
);
},
{
closed = 1;
nodes = (
"-71 218 OFFCURVE",
"-26 255 OFFCURVE",
"23 274 CURVE",
"-30 273 OFFCURVE",
"-77 231 OFFCURVE",
"-94 181 CURVE SMOOTH",
"-111 131 OFFCURVE",
"-100 68 OFFCURVE",
"-59 35 CURVE",
"-86 81 OFFCURVE",
"-99 137 OFFCURVE",
"-85 178 CURVE SMOOTH"
);
},
{
closed = 1;
nodes = (
"730 215 OFFCURVE",
"733 196 OFFCURVE",
"723 178 CURVE",
"738 191 OFFCURVE",
"750 218 OFFCURVE",
"744 237 CURVE SMOOTH",
"737 256 OFFCURVE",
"711 269 OFFCURVE",
"691 269 CURVE",
"710 262 OFFCURVE",
"719 245 OFFCURVE",
"725 230 CURVE SMOOTH"
);
},
{
closed = 1;
nodes = (
"732 166 OFFCURVE",
"691 190 OFFCURVE",
"656 189 CURVE",
"690 178 OFFCURVE",
"713 150 OFFCURVE",
"723 124 CURVE SMOOTH",
"733 97 OFFCURVE",
"734 61 OFFCURVE",
"717 30 CURVE",
"744 53 OFFCURVE",
"758 99 OFFCURVE",
"745 132 CURVE SMOOTH"
);
},
{
closed = 1;
nodes = (
"372 -69 OFFCURVE",
"367 -43 OFFCURVE",
"368 -16 CURVE",
"370 -12 OFFCURVE",
"371 -9 OFFCURVE",
"373 -6 CURVE",
"374 -6 LINE SMOOTH",
"411 -10 OFFCURVE",
"451 11 OFFCURVE",
"472 42 CURVE",
"495 45 OFFCURVE",
"519 58 OFFCURVE",
"533 75 CURVE",
"503 58 OFFCURVE",
"469 58 OFFCURVE",
"443 68 CURVE SMOOTH",
"417 77 OFFCURVE",
"390 98 OFFCURVE",
"378 131 CURVE",
"378 96 OFFCURVE",
"402 57 OFFCURVE",
"435 45 CURVE SMOOTH",
"444 42 OFFCURVE",
"455 40 OFFCURVE",
"465 41 CURVE",
"438 21 OFFCURVE",
"405 11 OFFCURVE",
"377 14 CURVE",
"378 20 OFFCURVE",
"377 25 OFFCURVE",
"376 31 CURVE",
"375 25 OFFCURVE",
"374 20 OFFCURVE",
"372 14 CURVE",
"372 15 LINE SMOOTH",
"373 20 OFFCURVE",
"374 26 OFFCURVE",
"376 31 CURVE",
"372 26 OFFCURVE",
"369 21 OFFCURVE",
"366 15 CURVE",
"343 20 OFFCURVE",
"317 33 OFFCURVE",
"297 54 CURVE",
"311 57 LINE",
"339 66 OFFCURVE",
"361 101 OFFCURVE",
"362 131 CURVE",
"350 103 OFFCURVE",
"326 87 OFFCURVE",
"303 80 CURVE SMOOTH",
"280 72 OFFCURVE",
"251 71 OFFCURVE",
"226 87 CURVE",
"240 68 OFFCURVE",
"266 55 OFFCURVE",
"290 54 CURVE",
"304 26 OFFCURVE",
"331 4 OFFCURVE",
"360 -3 CURVE",
"359 -7 OFFCURVE",
"358 -10 OFFCURVE",
"358 -14 CURVE",
"353 -20 OFFCURVE",
"348 -25 OFFCURVE",
"343 -29 CURVE SMOOTH",
"326 -40 OFFCURVE",
"299 -43 OFFCURVE",
"275 -36 CURVE",
"295 -51 OFFCURVE",
"327 -51 OFFCURVE",
"348 -37 CURVE SMOOTH",
"351 -35 OFFCURVE",
"354 -33 OFFCURVE",
"357 -30 CURVE",
"357 -52 OFFCURVE",
"363 -74 OFFCURVE",
"375 -93 CURVE SMOOTH",
"399 -129 OFFCURVE",
"445 -153 OFFCURVE",
"488 -144 CURVE",
"445 -138 OFFCURVE",
"402 -117 OFFCURVE",
"384 -87 CURVE SMOOTH"
);
},
{
closed = 1;
nodes = (
"24 69 OFFCURVE",
"38 49 OFFCURVE",
"50 40 CURVE",
"42 52 OFFCURVE",
"48 65 OFFCURVE",
"52 76 CURVE SMOOTH",
"55 87 OFFCURVE",
"57 101 OFFCURVE",
"70 106 CURVE",
"56 106 OFFCURVE",
"33 97 OFFCURVE",
"29 83 CURVE SMOOTH"
);
},
{
closed = 1;
nodes = (
"124 16 OFFCURVE",
"91 19 OFFCURVE",
"65 40 CURVE",
"83 12 OFFCURVE",
"122 -9 OFFCURVE",
"155 -2 CURVE SMOOTH",
"187 5 OFFCURVE",
"215 39 OFFCURVE",
"220 72 CURVE",
"204 43 OFFCURVE",
"176 27 OFFCURVE",
"150 21 CURVE SMOOTH"
);
},
{
closed = 1;
nodes = (
"519 4 OFFCURVE",
"520 35 OFFCURVE",
"539 60 CURVE",
"513 43 OFFCURVE",
"494 4 OFFCURVE",
"502 -26 CURVE SMOOTH",
"509 -57 OFFCURVE",
"544 -82 OFFCURVE",
"575 -85 CURVE",
"547 -71 OFFCURVE",
"531 -45 OFFCURVE",
"525 -20 CURVE SMOOTH"
);
},
{
closed = 1;
nodes = (
"723 17 OFFCURVE",
"704 5 OFFCURVE",
"687 -2 CURVE SMOOTH",
"670 -10 OFFCURVE",
"649 -16 OFFCURVE",
"628 -5 CURVE",
"644 -22 OFFCURVE",
"676 -34 OFFCURVE",
"697 -24 CURVE SMOOTH",
"718 -15 OFFCURVE",
"731 16 OFFCURVE",
"729 40 CURVE"
);
},
{
closed = 1;
nodes = (
"852 -12 OFFCURVE",
"877 -61 OFFCURVE",
"875 -101 CURVE SMOOTH",
"873 -141 OFFCURVE",
"842 -187 OFFCURVE",
"802 -217 CURVE",
"850 -202 OFFCURVE",
"882 -152 OFFCURVE",
"885 -102 CURVE SMOOTH",
"888 -52 OFFCURVE",
"861 2 OFFCURVE",
"815 22 CURVE"
);
},
{
closed = 1;
nodes = (
"684 -31 OFFCURVE",
"649 -17 OFFCURVE",
"622 -21 CURVE",
"648 -27 OFFCURVE",
"665 -46 OFFCURVE",
"674 -66 CURVE SMOOTH",
"684 -85 OFFCURVE",
"690 -110 OFFCURVE",
"680 -134 CURVE",
"698 -115 OFFCURVE",
"708 -79 OFFCURVE",
"696 -55 CURVE SMOOTH"
);
},
{
closed = 1;
nodes = (
"744 -209 OFFCURVE",
"720 -231 OFFCURVE",
"688 -240 CURVE",
"721 -243 OFFCURVE",
"759 -223 OFFCURVE",
"774 -194 CURVE SMOOTH",
"788 -164 OFFCURVE",
"780 -122 OFFCURVE",
"757 -98 CURVE",
"770 -128 OFFCURVE",
"767 -161 OFFCURVE",
"756 -185 CURVE SMOOTH"
);
},
{
closed = 1;
nodes = (
"595 -146 OFFCURVE",
"579 -127 OFFCURVE",
"579 -101 CURVE",
"570 -125 OFFCURVE",
"576 -162 OFFCURVE",
"597 -178 CURVE SMOOTH",
"617 -194 OFFCURVE",
"654 -192 OFFCURVE",
"676 -178 CURVE",
"650 -183 OFFCURVE",
"628 -172 OFFCURVE",
"612 -159 CURVE SMOOTH"
);
},
{
closed = 1;
nodes = (
"701 -177 OFFCURVE",
"718 -170 OFFCURVE",
"719 -161 CURVE SMOOTH",
"719 -152 OFFCURVE",
"704 -141 OFFCURVE",
"696 -137 CURVE",
"702 -144 OFFCURVE",
"695 -151 OFFCURVE",
"695 -159 CURVE SMOOTH",
"694 -166 OFFCURVE",
"699 -175 OFFCURVE",
"692 -180 CURVE"
);
}
);
width = 755;
}
);
leftKerningGroup = A;
rightKerningGroup = A;
unicode = 0104;
},
{
color = 1;
glyphname = AE;
layers = (
{
anchors = (
{
name = bottom;
position = "{503, 0}";
},
{
name = top;
position = "{503, 700}";
}
);
layerId = "EC64484B-0978-4CB1-9EE9-C40A2D8C4059";
paths = (
{
closed = 1;
nodes = (
"785 816 OFFCURVE",
"825 793 OFFCURVE",
"853 760 CURVE",
"838 800 OFFCURVE",
"794 826 OFFCURVE",
"751 826 CURVE SMOOTH",
"708 826 OFFCURVE",
"664 800 OFFCURVE",
"649 760 CURVE",
"677 793 OFFCURVE",
"717 816 OFFCURVE",
"751 816 CURVE SMOOTH"
);
},
{
closed = 1;
nodes = (
"577 778 OFFCURVE",
"622 757 OFFCURVE",
"653 720 CURVE",
"637 765 OFFCURVE",
"587 798 OFFCURVE",
"539 798 CURVE SMOOTH",
"491 798 OFFCURVE",
"441 765 OFFCURVE",
"425 720 CURVE",
"456 757 OFFCURVE",
"501 778 OFFCURVE",
"539 778 CURVE SMOOTH"
);
},
{
closed = 1;
nodes = (
"143 720 OFFCURVE",
"195 748 OFFCURVE",
"248 757 CURVE",
"195 767 OFFCURVE",
"139 734 OFFCURVE",
"112 687 CURVE SMOOTH",
"85 640 OFFCURVE",
"83 576 OFFCURVE",
"118 534 CURVE",
"100 585 OFFCURVE",
"99 645 OFFCURVE",
"121 682 CURVE SMOOTH"
);
},
{
closed = 1;
nodes = (
"667 699 OFFCURVE",
"624 731 OFFCURVE",
"583 731 CURVE SMOOTH",
"542 731 OFFCURVE",
"499 699 OFFCURVE",
"485 660 CURVE",
"511 692 OFFCURVE",
"550 707 OFFCURVE",
"583 707 CURVE SMOOTH",
"616 707 OFFCURVE",
"655 692 OFFCURVE",
"681 660 CURVE"
);
},
{
closed = 1;
nodes = (
"747 724 OFFCURVE",
"709 694 OFFCURVE",
"697 660 CURVE",
"720 688 OFFCURVE",
"754 700 OFFCURVE",
"783 700 CURVE SMOOTH",
"812 700 OFFCURVE",
"846 688 OFFCURVE",
"869 660 CURVE",
"857 694 OFFCURVE",
"819 724 OFFCURVE",
"783 724 CURVE SMOOTH"
);
},
{
closed = 1;
nodes = (
"416 696 OFFCURVE",
"447 686 OFFCURVE",
"469 660 CURVE",
"458 692 OFFCURVE",
"423 720 OFFCURVE",
"389 720 CURVE SMOOTH",
"355 720 OFFCURVE",
"320 692 OFFCURVE",
"309 660 CURVE",
"331 686 OFFCURVE",
"362 696 OFFCURVE",
"389 696 CURVE SMOOTH"
);
},
{
closed = 1;
nodes = (
"210 613 OFFCURVE",
"218 579 OFFCURVE",
"233 560 CURVE",
"225 583 OFFCURVE",
"233 605 OFFCURVE",
"243 622 CURVE SMOOTH",
"253 639 OFFCURVE",
"269 656 OFFCURVE",
"293 660 CURVE",
"269 665 OFFCURVE",
"235 655 OFFCURVE",
"223 634 CURVE SMOOTH"
);
},
{
closed = 1;
nodes = (
"922 612 OFFCURVE",
"928 596 OFFCURVE",
"920 579 CURVE",
"933 592 OFFCURVE",
"945 618 OFFCURVE",
"938 635 CURVE SMOOTH",
"930 652 OFFCURVE",
"903 661 OFFCURVE",
"885 660 CURVE",
"903 655 OFFCURVE",
"910 639 OFFCURVE",
"916 625 CURVE SMOOTH"
);
},
{
closed = 1;
nodes = (
"1004 553 OFFCURVE",
"1001 598 OFFCURVE",
"980 626 CURVE",
"990 592 OFFCURVE",
"984 557 OFFCURVE",
"969 534 CURVE SMOOTH",
"953 510 OFFCURVE",
"924 489 OFFCURVE",
"889 485 CURVE",
"924 477 OFFCURVE",
"966 493 OFFCURVE",
"985 523 CURVE SMOOTH"
);
},
{
closed = 1;
nodes = (
"889 507 OFFCURVE",
"914 536 OFFCURVE",
"920 563 CURVE",
"905 540 OFFCURVE",
"881 530 OFFCURVE",
"859 527 CURVE SMOOTH",
"837 524 OFFCURVE",
"810 527 OFFCURVE",
"790 545 CURVE",
"803 521 OFFCURVE",
"835 499 OFFCURVE",
"862 503 CURVE SMOOTH"
);
},
{
closed = 1;
nodes = (
"186 545 OFFCURVE",
"141 514 OFFCURVE",
"127 475 CURVE SMOOTH",
"114 436 OFFCURVE",
"130 384 OFFCURVE",
"162 358 CURVE",
"141 394 OFFCURVE",
"139 436 OFFCURVE",
"150 467 CURVE SMOOTH",
"161 499 OFFCURVE",
"189 530 OFFCURVE",
"228 545 CURVE"
);
},
{
closed = 1;
nodes = (
"674 509 OFFCURVE",
"644 517 OFFCURVE",
"623 541 CURVE",
"626 535 OFFCURVE",
"629 528 OFFCURVE",
"634 522 CURVE",
"630 524 OFFCURVE",
"627 524 OFFCURVE",
"623 525 CURVE",
"646 512 OFFCURVE",
"656 489 OFFCURVE",
"660 468 CURVE SMOOTH",
"664 448 OFFCURVE",
"664 422 OFFCURVE",
"647 402 CURVE",
"670 416 OFFCURVE",
"689 447 OFFCURVE",
"684 473 CURVE SMOOTH",
"683 479 OFFCURVE",
"681 484 OFFCURVE",
"677 490 CURVE",
"685 487 OFFCURVE",
"692 486 OFFCURVE",
"700 486 CURVE SMOOTH",
"732 487 OFFCURVE",
"764 515 OFFCURVE",
"774 545 CURVE",
"754 520 OFFCURVE",
"725 510 OFFCURVE",
"699 510 CURVE SMOOTH"
);
},
{
closed = 1;
nodes = (
"443 485 OFFCURVE",
"421 489 OFFCURVE",
"403 495 CURVE SMOOTH",
"386 501 OFFCURVE",
"366 512 OFFCURVE",
"358 534 CURVE",
"358 526 OFFCURVE",
"359 518 OFFCURVE",
"362 511 CURVE",
"359 514 OFFCURVE",
"356 517 OFFCURVE",
"353 519 CURVE",
"368 496 OFFCURVE",
"367 469 OFFCURVE",
"360 448 CURVE SMOOTH",
"354 427 OFFCURVE",
"341 404 OFFCURVE",
"315 394 CURVE",
"343 395 OFFCURVE",
"375 415 OFFCURVE",
"383 441 CURVE SMOOTH",
"387 454 OFFCURVE",
"385 468 OFFCURVE",
"380 481 CURVE",
"385 477 OFFCURVE",
"390 474 OFFCURVE",
"395 472 CURVE SMOOTH",
"418 465 OFFCURVE",
"448 479 OFFCURVE",
"463 497 CURVE"
);
},
{
closed = 1;
nodes = (
"84 396 OFFCURVE",
"83 430 OFFCURVE",
"92 456 CURVE SMOOTH",
"101 481 OFFCURVE",
"124 508 OFFCURVE",
"155 520 CURVE",
"121 519 OFFCURVE",
"84 494 OFFCURVE",
"73 462 CURVE SMOOTH",
"62 430 OFFCURVE",
"75 388 OFFCURVE",
"102 366 CURVE"
);
},
{
closed = 1;
nodes = (
"1043 461 OFFCURVE",
"1066 417 OFFCURVE",
"1064 381 CURVE SMOOTH",
"1062 345 OFFCURVE",
"1034 304 OFFCURVE",
"998 277 CURVE",
"1041 290 OFFCURVE",
"1071 335 OFFCURVE",
"1074 381 CURVE SMOOTH",
"1077 426 OFFCURVE",
"1052 475 OFFCURVE",
"1011 493 CURVE"
);
},
{
closed = 1;
nodes = (
"452 456 OFFCURVE",
"451 471 OFFCURVE",
"463 481 CURVE",
"448 476 OFFCURVE",
"428 459 OFFCURVE",
"428 443 CURVE SMOOTH",
"428 427 OFFCURVE",
"448 411 OFFCURVE",
"463 405 CURVE",
"451 416 OFFCURVE",
"452 431 OFFCURVE",
"452 443 CURVE SMOOTH"
);
},
{
closed = 1;
nodes = (
"926 465 OFFCURVE",
"883 474 OFFCURVE",
"851 462 CURVE",
"885 463 OFFCURVE",
"916 447 OFFCURVE",
"934 427 CURVE SMOOTH",
"952 406 OFFCURVE",
"963 374 OFFCURVE",
"958 340 CURVE",
"974 370 OFFCURVE",
"971 414 OFFCURVE",
"949 440 CURVE SMOOTH"
);
},
{
closed = 1;
nodes = (
"686 430 OFFCURVE",
"720 442 OFFCURVE",
"749 442 CURVE SMOOTH",
"778 442 OFFCURVE",
"812 430 OFFCURVE",
"835 402 CURVE",
"823 436 OFFCURVE",
"785 466 OFFCURVE",
"749 466 CURVE SMOOTH",
"713 466 OFFCURVE",
"675 436 OFFCURVE",
"663 402 CURVE"
);
},
{
closed = 1;
nodes = (
"280 260 OFFCURVE",
"277 258 OFFCURVE",
"274 257 CURVE",
"276 257 OFFCURVE",
"278 257 OFFCURVE",
"281 258 CURVE",
"278 254 OFFCURVE",
"276 250 OFFCURVE",
"275 246 CURVE",
"279 251 OFFCURVE",
"284 256 OFFCURVE",
"289 260 CURVE",
"301 263 OFFCURVE",
"313 269 OFFCURVE",
"322 277 CURVE",
"334 281 OFFCURVE",
"346 283 OFFCURVE",
"357 283 CURVE SMOOTH",
"385 283 OFFCURVE",
"417 272 OFFCURVE",
"439 246 CURVE",
"437 251 OFFCURVE",
"435 256 OFFCURVE",
"432 261 CURVE",
"439 254 OFFCURVE",
"447 249 OFFCURVE",
"455 246 CURVE",
"430 269 OFFCURVE",
"422 301 OFFCURVE",
"423 328 CURVE SMOOTH",
"424 354 OFFCURVE",
"436 385 OFFCURVE",
"463 405 CURVE",
"448 401 OFFCURVE",
"434 391 OFFCURVE",
"422 379 CURVE",
"420 394 OFFCURVE",
"413 410 OFFCURVE",
"403 420 CURVE",
"413 399 OFFCURVE",
"408 377 OFFCURVE",
"400 361 CURVE SMOOTH",
"393 344 OFFCURVE",
"379 327 OFFCURVE",
"357 321 CURVE",
"370 320 OFFCURVE",
"386 324 OFFCURVE",
"399 332 CURVE",
"399 329 LINE SMOOTH",
"398 314 OFFCURVE",
"403 298 OFFCURVE",
"412 284 CURVE",
"396 298 OFFCURVE",
"376 307 OFFCURVE",
"357 307 CURVE SMOOTH",
"351 307 OFFCURVE",
"346 306 OFFCURVE",
"340 305 CURVE",
"348 330 OFFCURVE",
"332 363 OFFCURVE",
"311 378 CURVE",
"325 356 OFFCURVE",
"324 331 OFFCURVE",
"317 310 CURVE SMOOTH",
"315 303 OFFCURVE",
"312 296 OFFCURVE",
"308 289 CURVE",
"298 281 OFFCURVE",
"289 272 OFFCURVE",
"283 262 CURVE"
);
},
{
closed = 1;
nodes = (
"901 397 OFFCURVE",
"871 405 OFFCURVE",
"851 402 CURVE",
"871 398 OFFCURVE",
"882 382 OFFCURVE",
"890 368 CURVE SMOOTH",
"898 353 OFFCURVE",
"905 336 OFFCURVE",
"898 317 CURVE",
"911 332 OFFCURVE",
"921 361 OFFCURVE",
"911 379 CURVE SMOOTH"
);
},
{
closed = 1;
nodes = (
"128 342 OFFCURVE",
"94 323 OFFCURVE",
"84 296 CURVE SMOOTH",
"75 268 OFFCURVE",
"89 232 OFFCURVE",
"112 213 CURVE",
"97 238 OFFCURVE",
"99 266 OFFCURVE",
"107 288 CURVE SMOOTH",
"114 309 OFFCURVE",
"130 332 OFFCURVE",
"157 343 CURVE"
);
},
{
closed = 1;
nodes = (
"903 244 OFFCURVE",
"871 233 OFFCURVE",
"839 238 CURVE",
"868 222 OFFCURVE",
"911 224 OFFCURVE",
"936 246 CURVE SMOOTH",
"961 267 OFFCURVE",
"970 309 OFFCURVE",
"958 340 CURVE",
"958 307 OFFCURVE",
"943 278 OFFCURVE",
"923 261 CURVE SMOOTH"
);
},
{
closed = 1;
nodes = (
"833 284 OFFCURVE",
"849 266 OFFCURVE",
"864 266 CURVE SMOOTH",
"879 267 OFFCURVE",
"893 287 OFFCURVE",
"898 301 CURVE",
"889 289 OFFCURVE",
"875 291 OFFCURVE",
"863 290 CURVE SMOOTH",
"851 290 OFFCURVE",
"837 287 OFFCURVE",
"827 298 CURVE"
);
},
{
closed = 1;
nodes = (
"689 253 OFFCURVE",
"672 284 OFFCURVE",
"651 298 CURVE",
"666 278 OFFCURVE",
"665 254 OFFCURVE",
"660 235 CURVE SMOOTH",
"655 215 OFFCURVE",
"645 194 OFFCURVE",
"623 183 CURVE",
"648 186 OFFCURVE",
"677 205 OFFCURVE",
"683 229 CURVE SMOOTH"
);
},
{
closed = 1;
nodes = (
"677 270 OFFCURVE",
"709 243 OFFCURVE",
"739 243 CURVE SMOOTH",
"769 243 OFFCURVE",
"801 270 OFFCURVE",
"811 298 CURVE",
"792 275 OFFCURVE",
"763 267 OFFCURVE",
"739 267 CURVE SMOOTH",
"715 267 OFFCURVE",
"686 275 OFFCURVE",
"667 298 CURVE"
);
},
{
closed = 1;
nodes = (
"933 212 OFFCURVE",
"959 194 OFFCURVE",
"974 173 CURVE SMOOTH",
"989 152 OFFCURVE",
"996 121 OFFCURVE",
"988 90 CURVE",
"1007 116 OFFCURVE",
"1009 158 OFFCURVE",
"990 184 CURVE SMOOTH",
"972 210 OFFCURVE",
"932 223 OFFCURVE",
"901 215 CURVE"
);
},
{
closed = 1;
nodes = (
"760 192 OFFCURVE",
"792 181 OFFCURVE",
"814 155 CURVE",
"802 187 OFFCURVE",
"767 216 OFFCURVE",
"732 216 CURVE SMOOTH",
"698 216 OFFCURVE",
"663 187 OFFCURVE",
"651 155 CURVE",
"673 181 OFFCURVE",
"705 192 OFFCURVE",
"732 192 CURVE SMOOTH"
);
},
{
closed = 1;
nodes = (
"28 60 OFFCURVE",
"27 98 OFFCURVE",
"37 127 CURVE SMOOTH",
"47 155 OFFCURVE",
"71 185 OFFCURVE",
"106 198 CURVE",
"68 198 OFFCURVE",
"27 171 OFFCURVE",
"14 135 CURVE SMOOTH",
"2 99 OFFCURVE",
"18 51 OFFCURVE",
"47 27 CURVE"
);
},
{
closed = 1;
nodes = (
"868 190 OFFCURVE",
"841 173 OFFCURVE",
"830 155 CURVE",
"847 168 OFFCURVE",
"866 165 OFFCURVE",
"883 162 CURVE SMOOTH",
"899 158 OFFCURVE",
"918 152 OFFCURVE",
"928 133 CURVE",
"925 154 OFFCURVE",
"909 180 OFFCURVE",
"888 185 CURVE SMOOTH"
);
},
{
closed = 1;
nodes = (
"628 163 OFFCURVE",
"638 161 OFFCURVE",
"635 155 CURVE",
"640 159 OFFCURVE",
"651 171 OFFCURVE",
"648 177 CURVE SMOOTH",
"646 183 OFFCURVE",
"629 183 OFFCURVE",
"623 183 CURVE",
"629 181 OFFCURVE",
"624 172 OFFCURVE",
"626 168 CURVE SMOOTH"
);
},
{
closed = 1;
nodes = (
"-70 84 OFFCURVE",
"-47 126 OFFCURVE",
"-15 155 CURVE",
"-55 139 OFFCURVE",
"-80 93 OFFCURVE",
"-79 49 CURVE SMOOTH",
"-78 6 OFFCURVE",
"-50 -38 OFFCURVE",
"-9 -52 CURVE",
"-43 -25 OFFCURVE",
"-68 15 OFFCURVE",
"-69 50 CURVE SMOOTH"
);
},
{
closed = 1;
nodes = (
"360 111 OFFCURVE",
"336 106 OFFCURVE",
"315 106 CURVE SMOOTH",
"294 106 OFFCURVE",
"270 111 OFFCURVE",
"254 131 CURVE",
"263 107 OFFCURVE",
"289 82 OFFCURVE",
"315 82 CURVE SMOOTH",
"341 82 OFFCURVE",
"367 107 OFFCURVE",
"376 131 CURVE"
);
},
{
closed = 1;
nodes = (
"408 104 OFFCURVE",
"394 113 OFFCURVE",
"392 131 CURVE",
"388 114 OFFCURVE",
"391 86 OFFCURVE",
"406 76 CURVE SMOOTH",
"421 66 OFFCURVE",
"448 72 OFFCURVE",
"463 83 CURVE",
"446 78 OFFCURVE",
"432 88 OFFCURVE",
"420 96 CURVE SMOOTH"
);
},
{
closed = 1;
nodes = (
"219 57 OFFCURVE",
"205 42 OFFCURVE",
"183 40 CURVE",
"204 34 OFFCURVE",
"236 39 OFFCURVE",
"248 57 CURVE SMOOTH",
"261 74 OFFCURVE",
"255 106 OFFCURVE",
"243 123 CURVE",
"248 102 OFFCURVE",
"239 85 OFFCURVE",
"229 71 CURVE SMOOTH"
);
},
{
closed = 1;
nodes = (
"885 33 OFFCURVE",
"916 36 OFFCURVE",
"929 52 CURVE SMOOTH",
"942 68 OFFCURVE",
"939 99 OFFCURVE",
"928 117 CURVE",
"932 97 OFFCURVE",
"921 80 OFFCURVE",
"910 67 CURVE SMOOTH",
"900 54 OFFCURVE",
"886 40 OFFCURVE",
"865 40 CURVE"
);
},
{
closed = 1;
nodes = (
"504 14 OFFCURVE",
"527 27 OFFCURVE",
"538 40 CURVE",
"523 32 OFFCURVE",
"509 38 OFFCURVE",
"496 42 CURVE SMOOTH",
"484 47 OFFCURVE",
"469 51 OFFCURVE",
"463 67 CURVE",
"463 50 OFFCURVE",
"473 25 OFFCURVE",
"488 20 CURVE SMOOTH"
);
},
{
closed = 1;
nodes = (
"56 -1 OFFCURVE",
"87 -22 OFFCURVE",
"113 -18 CURVE SMOOTH",
"139 -14 OFFCURVE",
"162 14 OFFCURVE",
"168 40 CURVE",
"154 18 OFFCURVE",
"130 9 OFFCURVE",
"110 6 CURVE SMOOTH",
"89 3 OFFCURVE",
"64 5 OFFCURVE",
"44 22 CURVE"
);
},
{
closed = 1;
nodes = (
"604 6 OFFCURVE",
"574 16 OFFCURVE",
"554 40 CURVE",
"565 10 OFFCURVE",
"598 -18 OFFCURVE",
"630 -18 CURVE SMOOTH",
"661 -18 OFFCURVE",
"695 10 OFFCURVE",
"705 40 CURVE",
"685 16 OFFCURVE",
"655 6 OFFCURVE",
"630 6 CURVE SMOOTH"
);
},
{
closed = 1;
nodes = (
"812 -10 OFFCURVE",
"840 15 OFFCURVE",
"849 40 CURVE",
"832 19 OFFCURVE",
"807 14 OFFCURVE",
"785 14 CURVE SMOOTH",
"764 14 OFFCURVE",
"739 19 OFFCURVE",
"721 40 CURVE",
"731 15 OFFCURVE",
"758 -10 OFFCURVE",
"785 -10 CURVE SMOOTH"
);
},
{
closed = 1;
nodes = (
"564 -75 OFFCURVE",
"558 -74 OFFCURVE",
"551 -73 CURVE",
"556 -69 OFFCURVE",
"561 -65 OFFCURVE",
"566 -60 CURVE",
"558 -64 OFFCURVE",
"549 -68 OFFCURVE",
"541 -71 CURVE",
"513 -64 OFFCURVE",
"483 -46 OFFCURVE",
"462 -20 CURVE",
"471 -45 OFFCURVE",
"490 -66 OFFCURVE",
"513 -79 CURVE",
"483 -86 OFFCURVE",
"453 -86 OFFCURVE",
"429 -77 CURVE SMOOTH",
"392 -61 OFFCURVE",
"359 -17 OFFCURVE",
"343 31 CURVE",
"341 -19 OFFCURVE",
"379 -67 OFFCURVE",
"425 -86 CURVE SMOOTH",
"457 -99 OFFCURVE",
"496 -99 OFFCURVE",
"528 -86 CURVE",
"541 -92 OFFCURVE",
"556 -95 OFFCURVE",
"570 -95 CURVE SMOOTH",
"615 -95 OFFCURVE",
"662 -63 OFFCURVE",
"678 -20 CURVE",
"648 -55 OFFCURVE",
"606 -75 OFFCURVE",
"570 -75 CURVE SMOOTH"
);
},
{
closed = 1;
nodes = (
"61 -59 OFFCURVE",
"26 -43 OFFCURVE",
"3 -13 CURVE",
"14 -49 OFFCURVE",
"53 -79 OFFCURVE",
"91 -81 CURVE SMOOTH",
"128 -82 OFFCURVE",
"169 -55 OFFCURVE",
"183 -20 CURVE",
"158 -48 OFFCURVE",
"122 -62 OFFCURVE",
"91 -61 CURVE SMOOTH"
);
},
{
closed = 1;
nodes = (
"782 -128 OFFCURVE",
"734 -99 OFFCURVE",
"701 -60 CURVE",
"719 -108 OFFCURVE",
"772 -138 OFFCURVE",
"823 -138 CURVE SMOOTH",
"874 -138 OFFCURVE",
"928 -108 OFFCURVE",
"945 -60 CURVE",
"912 -99 OFFCURVE",
"864 -128 OFFCURVE",
"823 -128 CURVE SMOOTH"
);
}
);
width = 1005;
}
);
leftKerningGroup = AE;
rightKerningGroup = E;
unicode = 00C6;
userData = {
com.typemytype.robofont.guides = (
{
angle = 0;
isGlobal = 0;
magnetic = 5;
x = 0;
y = 505;
},
{
angle = 90;
isGlobal = 0;
magnetic = 5;
x = 431;
y = 0;
}
);
};
},
{
color = 1;
glyphname = B;
layers = (
{
hints = (
{
horizontal = 1;
place = "{-2147483648, 0}";
type = Tag;
name = hr00;
}
);
layerId = "EC64484B-0978-4CB1-9EE9-C40A2D8C4059";
paths = (
{
closed = 1;
nodes = (
"404 775 OFFCURVE",
"448 753 OFFCURVE",
"478 717 CURVE",
"463 761 OFFCURVE",
"414 795 OFFCURVE",
"367 796 CURVE SMOOTH",
"320 796 OFFCURVE",
"271 764 OFFCURVE",
"254 720 CURVE",
"285 756 OFFCURVE",
"329 776 OFFCURVE",
"367 776 CURVE SMOOTH"
);
},
{
closed = 1;
nodes = (
"639 756 OFFCURVE",
"667 719 OFFCURVE",
"680 679 CURVE",
"681 721 OFFCURVE",
"650 762 OFFCURVE",
"611 778 CURVE SMOOTH",
"572 794 OFFCURVE",
"522 787 OFFCURVE",
"494 755 CURVE",
"531 775 OFFCURVE",
"576 781 OFFCURVE",
"608 768 CURVE SMOOTH"
);
},
{
closed = 1;
nodes = (
"4 719 OFFCURVE",
"47 748 OFFCURVE",
"94 760 CURVE",
"46 765 OFFCURVE",
"-1 732 OFFCURVE",
"-22 689 CURVE SMOOTH",
"-43 645 OFFCURVE",
"-39 588 OFFCURVE",
"-5 553 CURVE",
"-25 597 OFFCURVE",
"-30 650 OFFCURVE",
"-13 684 CURVE SMOOTH"
);
},
{
closed = 1;
nodes = (
"326 695 OFFCURVE",
"357 685 OFFCURVE",
"378 660 CURVE",
"367 691 OFFCURVE",
"333 719 OFFCURVE",
"300 719 CURVE SMOOTH",
"267 719 OFFCURVE",
"233 691 OFFCURVE",
"222 660 CURVE",
"243 685 OFFCURVE",
"274 695 OFFCURVE",
"300 695 CURVE SMOOTH"
);
},
{
closed = 1;
nodes = (
"419 683 OFFCURVE",
"453 690 OFFCURVE",
"480 687 CURVE SMOOTH",
"508 683 OFFCURVE",
"538 668 OFFCURVE",
"557 639 CURVE",
"549 673 OFFCURVE",
"518 706 OFFCURVE",
"483 711 CURVE SMOOTH",
"449 715 OFFCURVE",
"410 691 OFFCURVE",
"394 660 CURVE"
);
},
{
closed = 1;
nodes = (
"169 684 OFFCURVE",
"192 679 OFFCURVE",
"206 660 CURVE",
"199 683 OFFCURVE",
"175 708 OFFCURVE",
"151 709 CURVE SMOOTH",
"128 710 OFFCURVE",
"102 687 OFFCURVE",
"92 665 CURVE",
"109 683 OFFCURVE",
"131 686 OFFCURVE",
"150 685 CURVE SMOOTH"
);
},
{
closed = 1;
nodes = (
"62 653 OFFCURVE",
"33 616 OFFCURVE",
"33 581 CURVE SMOOTH",
"33 546 OFFCURVE",
"62 510 OFFCURVE",
"95 498 CURVE",
"68 520 OFFCURVE",
"57 553 OFFCURVE",
"57 581 CURVE SMOOTH",
"57 609 OFFCURVE",
"68 642 OFFCURVE",
"95 665 CURVE"
);
},
{
closed = 1;
nodes = (
"648 621 OFFCURVE",
"606 638 OFFCURVE",
"572 633 CURVE",
"606 626 OFFCURVE",
"631 603 OFFCURVE",
"644 579 CURVE SMOOTH",
"657 555 OFFCURVE",
"663 522 OFFCURVE",
"651 490 CURVE",
"674 516 OFFCURVE",
"681 561 OFFCURVE",
"665 591 CURVE SMOOTH"
);
},
{
closed = 1;
nodes = (
"288 467 OFFCURVE",
"319 479 OFFCURVE",
"328 500 CURVE SMOOTH",
"330 504 OFFCURVE",
"331 508 OFFCURVE",
"331 512 CURVE",
"338 494 OFFCURVE",
"349 478 OFFCURVE",
"364 469 CURVE SMOOTH",
"371 464 OFFCURVE",
"380 461 OFFCURVE",
"389 459 CURVE SMOOTH",
"388 459 OFFCURVE",
"388 458 OFFCURVE",
"387 458 CURVE SMOOTH",
"383 458 LINE SMOOTH",
"377 457 OFFCURVE",
"370 452 OFFCURVE",
"365 457 CURVE",
"367 452 OFFCURVE",
"373 444 OFFCURVE",
"378 440 CURVE",
"374 426 OFFCURVE",
"374 410 OFFCURVE",
"377 397 CURVE",
"379 420 OFFCURVE",
"395 436 OFFCURVE",
"410 447 CURVE SMOOTH",
"425 458 OFFCURVE",
"445 468 OFFCURVE",
"468 462 CURVE",
"464 465 OFFCURVE",
"460 467 OFFCURVE",
"455 469 CURVE",
"461 471 OFFCURVE",
"466 474 OFFCURVE",
"470 478 CURVE",
"460 475 OFFCURVE",
"450 473 OFFCURVE",
"441 473 CURVE SMOOTH",
"434 474 OFFCURVE",
"427 475 OFFCURVE",
"420 474 CURVE",
"404 477 OFFCURVE",
"389 482 OFFCURVE",
"377 490 CURVE SMOOTH",
"352 505 OFFCURVE",
"330 533 OFFCURVE",
"325 568 CURVE",
"324 561 OFFCURVE",
"323 554 OFFCURVE",
"323 547 CURVE",
"320 555 OFFCURVE",
"315 562 OFFCURVE",
"309 568 CURVE",
"319 548 OFFCURVE",
"313 527 OFFCURVE",
"306 510 CURVE SMOOTH",
"298 493 OFFCURVE",
"287 475 OFFCURVE",
"265 469 CURVE"
);
},
{
closed = 1;
nodes = (
"-4 463 OFFCURVE",
"9 495 OFFCURVE",
"35 517 CURVE",
"3 506 OFFCURVE",
"-24 470 OFFCURVE",
"-24 436 CURVE SMOOTH",
"-24 401 OFFCURVE",
"3 366 OFFCURVE",
"35 354 CURVE",
"9 376 OFFCURVE",
"-4 408 OFFCURVE",
"-4 436 CURVE SMOOTH"
);
},
{
closed = 1;
nodes = (
"64 470 OFFCURVE",
"36 436 OFFCURVE",
"36 404 CURVE SMOOTH",
"36 371 OFFCURVE",
"64 337 OFFCURVE",
"95 326 CURVE",
"70 347 OFFCURVE",
"60 378 OFFCURVE",
"60 404 CURVE SMOOTH",
"60 430 OFFCURVE",
"70 461 OFFCURVE",
"95 482 CURVE"
);
},
{
closed = 1;
nodes = (
"686 413 OFFCURVE",
"673 453 OFFCURVE",
"649 474 CURVE",
"664 446 OFFCURVE",
"662 416 OFFCURVE",
"653 393 CURVE SMOOTH",
"644 370 OFFCURVE",
"625 346 OFFCURVE",
"596 336 CURVE",
"627 335 OFFCURVE",
"664 355 OFFCURVE",
"675 384 CURVE SMOOTH"
);
},
{
closed = 1;
nodes = (
"340 434 OFFCURVE",
"357 420 OFFCURVE",
"361 397 CURVE",
"365 420 OFFCURVE",
"356 452 OFFCURVE",
"336 464 CURVE SMOOTH",
"316 476 OFFCURVE",
"283 468 OFFCURVE",
"265 453 CURVE",
"287 461 OFFCURVE",
"308 453 OFFCURVE",
"324 443 CURVE SMOOTH"
);
},
{
closed = 1;
nodes = (
"773 323 OFFCURVE",
"780 345 OFFCURVE",
"778 365 CURVE SMOOTH",
"776 404 OFFCURVE",
"744 443 OFFCURVE",
"706 454 CURVE",
"738 431 OFFCURVE",
"756 395 OFFCURVE",
"758 364 CURVE SMOOTH",
"759 348 OFFCURVE",
"756 330 OFFCURVE",
"749 313 CURVE",
"747 314 OFFCURVE",
"746 314 OFFCURVE",
"744 315 CURVE",
"748 311 LINE",
"742 295 OFFCURVE",
"732 281 OFFCURVE",
"719 268 CURVE",
"734 275 OFFCURVE",
"748 286 OFFCURVE",
"758 301 CURVE",
"786 269 OFFCURVE",
"805 231 OFFCURVE",
"804 197 CURVE SMOOTH",
"803 158 OFFCURVE",
"774 114 OFFCURVE",
"736 84 CURVE",
"782 99 OFFCURVE",
"812 148 OFFCURVE",
"814 197 CURVE SMOOTH",
"816 238 OFFCURVE",
"796 282 OFFCURVE",
"762 305 CURVE"
);
},
{
closed = 1;
nodes = (
"-1 161 OFFCURVE",
"-22 205 OFFCURVE",
"-22 242 CURVE SMOOTH",
"-22 280 OFFCURVE",
"-1 324 OFFCURVE",
"35 354 CURVE",
"-9 338 OFFCURVE",
"-42 289 OFFCURVE",
"-42 242 CURVE SMOOTH",
"-42 195 OFFCURVE",
"-9 147 OFFCURVE",
"35 131 CURVE"
);
},
{
closed = 1;
nodes = (
"664 318 OFFCURVE",
"629 329 OFFCURVE",
"603 324 CURVE",
"629 320 OFFCURVE",
"646 301 OFFCURVE",
"657 283 CURVE SMOOTH",
"667 265 OFFCURVE",
"675 241 OFFCURVE",
"666 216 CURVE",
"683 236 OFFCURVE",
"691 272 OFFCURVE",
"678 295 CURVE SMOOTH"
);
},
{
closed = 1;
nodes = (
"52 249 OFFCURVE",
"65 285 OFFCURVE",
"95 310 CURVE",
"59 297 OFFCURVE",
"28 257 OFFCURVE",
"28 218 CURVE SMOOTH",
"28 180 OFFCURVE",
"59 140 OFFCURVE",
"95 127 CURVE",
"65 151 OFFCURVE",
"52 188 OFFCURVE",
"52 218 CURVE SMOOTH"
);
},
{
closed = 1;
nodes = (
"285 172 OFFCURVE",
"310 172 OFFCURVE",
"330 168 CURVE SMOOTH",
"351 164 OFFCURVE",
"374 155 OFFCURVE",
"386 132 CURVE",
"382 158 OFFCURVE",
"361 187 OFFCURVE",
"335 192 CURVE SMOOTH",
"326 194 OFFCURVE",
"315 192 OFFCURVE",
"305 189 CURVE",
"317 197 OFFCURVE",
"326 208 OFFCURVE",
"331 221 CURVE",
"333 210 OFFCURVE",
"338 199 OFFCURVE",
"344 192 CURVE",
"339 205 OFFCURVE",
"346 216 OFFCURVE",
"351 226 CURVE SMOOTH",
"354 232 OFFCURVE",
"358 239 OFFCURVE",
"364 244 CURVE",
"376 241 LINE SMOOTH",
"407 235 OFFCURVE",
"444 257 OFFCURVE",
"460 284 CURVE",
"436 264 OFFCURVE",
"405 260 OFFCURVE",
"380 264 CURVE SMOOTH",
"355 269 OFFCURVE",
"328 283 OFFCURVE",
"312 310 CURVE",
"313 301 OFFCURVE",
"317 292 OFFCURVE",
"321 284 CURVE",
"315 294 OFFCURVE",
"306 304 OFFCURVE",
"296 310 CURVE",
"314 286 OFFCURVE",
"316 257 OFFCURVE",
"310 234 CURVE SMOOTH",
"305 211 OFFCURVE",
"291 185 OFFCURVE",
"265 172 CURVE",
"271 173 OFFCURVE",
"278 174 OFFCURVE",
"284 177 CURVE",
"276 171 OFFCURVE",
"269 164 OFFCURVE",
"265 156 CURVE"
);
},
{
closed = 1;
nodes = (
"347 247 OFFCURVE",
"340 243 OFFCURVE",
"335 238 CURVE",
"336 252 OFFCURVE",
"331 266 OFFCURVE",
"324 279 CURVE",
"332 267 OFFCURVE",
"343 256 OFFCURVE",
"355 249 CURVE"
);
},
{
closed = 1;
nodes = (
"476 262 OFFCURVE",
"467 265 OFFCURVE",
"470 271 CURVE",
"465 267 OFFCURVE",
"453 254 OFFCURVE",
"456 248 CURVE SMOOTH",
"457 246 OFFCURVE",
"458 245 OFFCURVE",
"461 244 CURVE",
"437 244 OFFCURVE",
"412 235 OFFCURVE",
"400 218 CURVE SMOOTH",
"383 195 OFFCURVE",
"386 156 OFFCURVE",
"402 132 CURVE",
"395 160 OFFCURVE",
"406 185 OFFCURVE",
"419 203 CURVE SMOOTH",
"432 222 OFFCURVE",
"454 239 OFFCURVE",
"482 241 CURVE",
"475 243 OFFCURVE",
"480 252 OFFCURVE",
"478 257 CURVE SMOOTH"
);
},
{
closed = 1;
nodes = (
"679 191 OFFCURVE",
"675 163 OFFCURVE",
"667 142 CURVE SMOOTH",
"658 121 OFFCURVE",
"641 99 OFFCURVE",
"614 90 CURVE",
"643 89 OFFCURVE",
"678 107 OFFCURVE",
"689 133 CURVE SMOOTH",
"700 159 OFFCURVE",
"687 197 OFFCURVE",
"666 216 CURVE"
);
},
{
closed = 1;
nodes = (
"-44 68 OFFCURVE",
"-31 117 OFFCURVE",
"-5 155 CURVE",
"-42 128 OFFCURVE",
"-56 75 OFFCURVE",
"-43 30 CURVE SMOOTH",
"-31 -14 OFFCURVE",
"9 -52 OFFCURVE",
"54 -56 CURVE",
"13 -37 OFFCURVE",
"-24 -2 OFFCURVE",
"-34 33 CURVE SMOOTH"
);
},
{
closed = 1;
nodes = (
"88 86 OFFCURVE",
"85 100 OFFCURVE",
"95 111 CURVE",
"82 104 OFFCURVE",
"64 87 OFFCURVE",
"65 72 CURVE SMOOTH",
"67 57 OFFCURVE",
"87 44 OFFCURVE",
"102 40 CURVE",
"90 48 OFFCURVE",
"90 63 OFFCURVE",
"89 74 CURVE SMOOTH"
);
},
{
closed = 1;
nodes = (
"504 24 OFFCURVE",
"536 9 OFFCURVE",
"560 16 CURVE SMOOTH",
"583 24 OFFCURVE",
"601 55 OFFCURVE",
"602 80 CURVE",
"592 57 OFFCURVE",
"571 46 OFFCURVE",
"552 39 CURVE SMOOTH",
"533 33 OFFCURVE",
"509 30 OFFCURVE",
"488 43 CURVE"
);
},
{
closed = 1;
nodes = (
"429 -16 OFFCURVE",
"462 12 OFFCURVE",
"472 42 CURVE",
"452 17 OFFCURVE",
"422 8 OFFCURVE",
"397 7 CURVE SMOOTH",
"371 7 OFFCURVE",
"341 16 OFFCURVE",
"321 40 CURVE",
"332 10 OFFCURVE",
"365 -17 OFFCURVE",
"397 -17 CURVE SMOOTH"
);
},
{
closed = 1;
nodes = (
"180 -4 OFFCURVE",
"143 10 OFFCURVE",
"118 40 CURVE",
"131 3 OFFCURVE",
"172 -28 OFFCURVE",
"211 -28 CURVE SMOOTH",
"250 -28 OFFCURVE",
"291 3 OFFCURVE",
"305 40 CURVE",
"279 10 OFFCURVE",
"243 -4 OFFCURVE",
"211 -4 CURVE SMOOTH"
);
},
{
closed = 1;
nodes = (
"541 -95 OFFCURVE",
"502 -86 OFFCURVE",
"468 -67 CURVE",
"487 -54 OFFCURVE",
"501 -35 OFFCURVE",
"508 -14 CURVE",
"482 -48 OFFCURVE",
"442 -67 OFFCURVE",
"408 -68 CURVE SMOOTH",
"374 -69 OFFCURVE",
"333 -52 OFFCURVE",
"305 -20 CURVE",
"320 -60 OFFCURVE",
"366 -89 OFFCURVE",
"409 -88 CURVE SMOOTH",
"428 -88 OFFCURVE",
"448 -81 OFFCURVE",
"465 -69 CURVE",
"491 -97 OFFCURVE",
"536 -107 OFFCURVE",
"574 -96 CURVE SMOOTH",
"615 -84 OFFCURVE",
"652 -47 OFFCURVE",
"655 -4 CURVE",
"637 -43 OFFCURVE",
"604 -77 OFFCURVE",
"571 -86 CURVE SMOOTH"
);
}
);
width = 734;
}
);
leftKerningGroup = I;
unicode = 0042;
userData = {
com.typemytype.robofont.guides = (
{
angle = 0;
isGlobal = 0;
magnetic = 5;
x = 0;
y = 271;
},
{
angle = 0;
isGlobal = 0;
magnetic = 5;
x = 0;
y = 437;
},
{
angle = 0;
isGlobal = 0;
magnetic = 5;
x = 0;
y = 521;
},
{
angle = 0;
isGlobal = 0;
magnetic = 5;
x = 0;
y = 198;
},
{
angle = 0;
isGlobal = 0;
magnetic = 5;
x = 0;
y = 9;
},
{
angle = 90;
isGlobal = 0;
magnetic = 5;
x = 355;
y = 0;
},
{
angle = 90;
isGlobal = 0;
magnetic = 5;
x = 583;
y = 0;
},
{
angle = 90;
isGlobal = 0;
magnetic = 5;
x = 94;
y = 0;
}
);
};
},
{
color = 1;
glyphname = C;
layers = (
{
anchors = (
{
name = bottom;
position = "{367, 0}";
},
{
name = top;
position = "{367, 700}";
}
);
layerId = "EC64484B-0978-4CB1-9EE9-C40A2D8C4059";
paths = (
{
closed = 1;
nodes = (
"305 765 OFFCURVE",
"345 756 OFFCURVE",
"376 730 CURVE",
"362 755 OFFCURVE",
"335 773 OFFCURVE",
"306 779 CURVE",
"339 807 OFFCURVE",
"379 825 OFFCURVE",
"413 823 CURVE SMOOTH",
"453 820 OFFCURVE",
"497 789 OFFCURVE",
"526 750 CURVE",
"513 797 OFFCURVE",
"463 829 OFFCURVE",
"414 833 CURVE SMOOTH",
"371 836 OFFCURVE",
"324 816 OFFCURVE",
"300 780 CURVE",
"290 781 OFFCURVE",
"280 781 OFFCURVE",
"270 779 CURVE SMOOTH",
"230 772 OFFCURVE",
"194 736 OFFCURVE",
"187 696 CURVE",
"207 731 OFFCURVE",
"242 754 OFFCURVE",
"273 760 CURVE SMOOTH"
);
},
{
closed = 1;
nodes = (
"427 699 OFFCURVE",
"388 728 OFFCURVE",
"352 726 CURVE SMOOTH",
"316 725 OFFCURVE",
"279 694 OFFCURVE",
"268 659 CURVE",
"290 688 OFFCURVE",
"324 701 OFFCURVE",
"353 702 CURVE SMOOTH",
"382 703 OFFCURVE",
"416 693 OFFCURVE",
"440 666 CURVE"
);
},
{
closed = 1;
nodes = (
"481 677 OFFCURVE",
"507 674 OFFCURVE",
"528 666 CURVE SMOOTH",
"549 659 OFFCURVE",
"571 644 OFFCURVE",
"581 617 CURVE",
"581 645 OFFCURVE",
"562 679 OFFCURVE",
"536 689 CURVE SMOOTH",
"510 699 OFFCURVE",
"474 685 OFFCURVE",
"456 663 CURVE"
);
},
{
closed = 1;
nodes = (
"197 658 OFFCURVE",
"225 665 OFFCURVE",
"252 655 CURVE",
"230 674 OFFCURVE",
"190 681 OFFCURVE",
"165 667 CURVE SMOOTH",
"140 652 OFFCURVE",
"127 614 OFFCURVE",
"132 585 CURVE",
"137 614 OFFCURVE",
"157 634 OFFCURVE",
"177 646 CURVE SMOOTH"
);
},
{
closed = 1;
nodes = (
"566 434 OFFCURVE",
"535 446 OFFCURVE",
"515 472 CURVE",
"525 440 OFFCURVE",
"558 411 OFFCURVE",
"591 409 CURVE SMOOTH",
"623 408 OFFCURVE",
"656 432 OFFCURVE",
"670 460 CURVE",
"693 486 OFFCURVE",
"703 531 OFFCURVE",
"687 561 CURVE SMOOTH",
"671 592 OFFCURVE",
"629 612 OFFCURVE",
"594 608 CURVE",
"628 600 OFFCURVE",
"653 575 OFFCURVE",
"666 550 CURVE SMOOTH",
"677 526 OFFCURVE",
"682 494 OFFCURVE",
"671 463 CURVE",
"649 440 OFFCURVE",
"618 432 OFFCURVE",
"592 433 CURVE SMOOTH"
);
},
{
closed = 1;
nodes = (
"62 466 OFFCURVE",
"64 494 OFFCURVE",
"71 516 CURVE SMOOTH",
"79 539 OFFCURVE",
"95 562 OFFCURVE",
"122 573 CURVE",
"93 572 OFFCURVE",
"58 552 OFFCURVE",
"49 524 CURVE SMOOTH",
"39 496 OFFCURVE",
"54 459 OFFCURVE",
"77 441 CURVE"
);
},
{
closed = 1;
nodes = (
"303 504 OFFCURVE",
"333 487 OFFCURVE",
"357 492 CURVE SMOOTH",
"381 498 OFFCURVE",
"400 527 OFFCURVE",
"403 552 CURVE",
"392 530 OFFCURVE",
"371 520 OFFCURVE",
"352 516 CURVE SMOOTH",
"332 511 OFFCURVE",
"309 510 OFFCURVE",
"289 525 CURVE"
);
},
{
closed = 1;
nodes = (
"675 409 OFFCURVE",
"713 428 OFFCURVE",
"727 458 CURVE SMOOTH",
"741 487 OFFCURVE",
"733 529 OFFCURVE",
"710 552 CURVE",
"723 522 OFFCURVE",
"721 490 OFFCURVE",
"709 466 CURVE SMOOTH",
"698 443 OFFCURVE",
"675 420 OFFCURVE",
"643 412 CURVE"
);
},
{
closed = 1;
nodes = (
"476 469 OFFCURVE",
"458 482 OFFCURVE",
"445 494 CURVE SMOOTH",
"431 507 OFFCURVE",
"417 524 OFFCURVE",
"419 547 CURVE",
"410 526 OFFCURVE",
"411 492 OFFCURVE",
"428 477 CURVE SMOOTH",
"445 461 OFFCURVE",
"478 462 OFFCURVE",
"499 472 CURVE"
);
},
{
closed = 1;
nodes = (
"9 289 OFFCURVE",
"42 248 OFFCURVE",
"79 235 CURVE",
"48 260 OFFCURVE",
"33 297 OFFCURVE",
"33 329 CURVE SMOOTH",
"33 361 OFFCURVE",
"46 399 OFFCURVE",
"77 425 CURVE",
"50 415 OFFCURVE",
"27 391 OFFCURVE",
"16 364 CURVE",
"-11 351 OFFCURVE",
"-32 325 OFFCURVE",
"-40 296 CURVE",
"-70 331 OFFCURVE",
"-90 375 OFFCURVE",
"-87 412 CURVE SMOOTH",
"-85 455 OFFCURVE",
"-51 504 OFFCURVE",
"-7 536 CURVE",
"-59 520 OFFCURVE",
"-94 466 OFFCURVE",
"-97 413 CURVE SMOOTH",
"-100 366 OFFCURVE",
"-80 316 OFFCURVE",
"-42 289 CURVE",
"-44 281 OFFCURVE",
"-45 272 OFFCURVE",
"-44 263 CURVE SMOOTH",
"-41 223 OFFCURVE",
"-8 184 OFFCURVE",
"31 173 CURVE",
"-2 196 OFFCURVE",
"-22 233 OFFCURVE",
"-24 265 CURVE SMOOTH",
"-24 270 OFFCURVE",
"-25 274 OFFCURVE",
"-24 279 CURVE",
"-24 279 OFFCURVE",
"-24 279 OFFCURVE",
"-24 279 CURVE",
"-23 308 OFFCURVE",
"-9 340 OFFCURVE",
"16 364 CURVE",
"11 352 OFFCURVE",
"9 341 OFFCURVE",
"9 329 CURVE SMOOTH"
);
},
{
closed = 1;
nodes = (
"319 469 OFFCURVE",
"301 499 OFFCURVE",
"279 512 CURVE",
"295 493 OFFCURVE",
"295 468 OFFCURVE",
"291 449 CURVE SMOOTH",
"287 429 OFFCURVE",
"278 407 OFFCURVE",
"256 395 CURVE",
"281 398 OFFCURVE",
"310 419 OFFCURVE",
"315 444 CURVE SMOOTH"
);
},
{
closed = 1;
nodes = (
"692 361 OFFCURVE",
"651 360 OFFCURVE",
"615 372 CURVE",
"645 348 OFFCURVE",
"690 349 OFFCURVE",
"723 369 CURVE SMOOTH",
"755 388 OFFCURVE",
"776 429 OFFCURVE",
"769 466 CURVE",
"763 429 OFFCURVE",
"743 393 OFFCURVE",
"717 377 CURVE SMOOTH"
);
},
{
closed = 1;
nodes = (
"394 219 OFFCURVE",
"426 200 OFFCURVE",
"444 167 CURVE",
"438 204 OFFCURVE",
"406 241 OFFCURVE",
"370 248 CURVE SMOOTH",
"365 249 OFFCURVE",
"359 249 OFFCURVE",
"353 249 CURVE",
"377 271 OFFCURVE",
"393 304 OFFCURVE",
"392 336 CURVE SMOOTH",
"392 341 OFFCURVE",
"391 346 OFFCURVE",
"390 350 CURVE",
"394 350 OFFCURVE",
"397 349 OFFCURVE",
"400 348 CURVE SMOOTH",
"413 343 OFFCURVE",
"426 332 OFFCURVE",
"431 316 CURVE",
"432 333 OFFCURVE",
"420 351 OFFCURVE",
"404 357 CURVE SMOOTH",
"399 359 OFFCURVE",
"394 360 OFFCURVE",
"388 359 CURVE",
"379 394 OFFCURVE",
"351 426 OFFCURVE",
"317 437 CURVE",
"345 415 OFFCURVE",
"363 384 OFFCURVE",
"370 354 CURVE",
"364 352 OFFCURVE",
"360 348 OFFCURVE",
"356 344 CURVE",
"361 347 OFFCURVE",
"366 349 OFFCURVE",
"371 350 CURVE",
"371 345 OFFCURVE",
"372 340 OFFCURVE",
"372 335 CURVE SMOOTH",
"373 307 OFFCURVE",
"362 274 OFFCURVE",
"340 248 CURVE",
"312 243 OFFCURVE",
"285 225 OFFCURVE",
"271 202 CURVE",
"300 225 OFFCURVE",
"336 230 OFFCURVE",
"365 225 CURVE SMOOTH"
);
},
{
closed = 1;
nodes = (
"296 230 OFFCURVE",
"323 267 OFFCURVE",
"321 301 CURVE SMOOTH",
"319 335 OFFCURVE",
"288 369 OFFCURVE",
"256 378 CURVE",
"283 358 OFFCURVE",
"295 327 OFFCURVE",
"297 300 CURVE SMOOTH",
"298 273 OFFCURVE",
"290 240 OFFCURVE",
"265 217 CURVE"
);
},
{
closed = 1;
nodes = (
"768 299 OFFCURVE",
"733 328 OFFCURVE",
"695 328 CURVE",
"730 315 OFFCURVE",
"761 288 OFFCURVE",
"771 260 CURVE SMOOTH",
"782 232 OFFCURVE",
"775 192 OFFCURVE",
"756 159 CURVE",
"785 183 OFFCURVE",
"794 228 OFFCURVE",
"781 263 CURVE SMOOTH"
);
},
{
closed = 1;
nodes = (
"709 265 OFFCURVE",
"726 229 OFFCURVE",
"728 199 CURVE SMOOTH",
"729 168 OFFCURVE",
"715 131 OFFCURVE",
"687 106 CURVE",
"723 120 OFFCURVE",
"750 161 OFFCURVE",
"748 200 CURVE SMOOTH",
"746 238 OFFCURVE",
"716 277 OFFCURVE",
"679 288 CURVE"
);
},
{
closed = 1;
nodes = (
"588 275 OFFCURVE",
"566 250 OFFCURVE",
"559 228 CURVE",
"573 246 OFFCURVE",
"594 251 OFFCURVE",
"613 252 CURVE SMOOTH",
"631 253 OFFCURVE",
"653 251 OFFCURVE",
"669 234 CURVE",
"659 255 OFFCURVE",
"634 277 OFFCURVE",
"611 276 CURVE SMOOTH"
);
},
{
closed = 1;
nodes = (
"460 229 OFFCURVE",
"452 199 OFFCURVE",
"456 178 CURVE",
"459 199 OFFCURVE",
"476 210 OFFCURVE",
"490 219 CURVE SMOOTH",
"505 227 OFFCURVE",
"523 235 OFFCURVE",
"543 228 CURVE",
"527 242 OFFCURVE",
"497 250 OFFCURVE",
"478 240 CURVE SMOOTH"
);
},
{
closed = 1;
nodes = (
"78 158 OFFCURVE",
"71 189 OFFCURVE",
"82 219 CURVE",
"61 194 OFFCURVE",
"54 152 OFFCURVE",
"70 124 CURVE SMOOTH",
"86 96 OFFCURVE",
"127 81 OFFCURVE",
"158 87 CURVE",
"127 92 OFFCURVE",
"104 114 OFFCURVE",
"91 136 CURVE SMOOTH"
);
},
{
closed = 1;
nodes = (
"677 192 OFFCURVE",
"671 165 OFFCURVE",
"660 145 CURVE SMOOTH",
"649 125 OFFCURVE",
"631 105 OFFCURVE",
"603 100 CURVE",
"631 96 OFFCURVE",
"668 109 OFFCURVE",
"681 134 CURVE SMOOTH",
"694 159 OFFCURVE",
"686 197 OFFCURVE",
"667 218 CURVE"
);
},
{
closed = 1;
nodes = (
"567 66 OFFCURVE",
"556 57 OFFCURVE",
"542 61 CURVE",
"554 52 OFFCURVE",
"577 44 OFFCURVE",
"590 52 CURVE SMOOTH",
"603 60 OFFCURVE",
"606 85 OFFCURVE",
"603 100 CURVE",
"601 85 OFFCURVE",
"588 79 OFFCURVE",
"577 72 CURVE SMOOTH"
);
},
{
closed = 1;
nodes = (
"280 -20 OFFCURVE",
"326 -1 OFFCURVE",
"348 30 CURVE",
"317 8 OFFCURVE",
"278 5 OFFCURVE",
"249 13 CURVE SMOOTH",
"219 21 OFFCURVE",
"188 43 OFFCURVE",
"171 78 CURVE",
"175 39 OFFCURVE",
"205 -1 OFFCURVE",
"242 -11 CURVE SMOOTH"
);
},
{
closed = 1;
nodes = (
"424 1 OFFCURVE",
"390 7 OFFCURVE",
"364 30 CURVE",
"381 0 OFFCURVE",
"420 -23 OFFCURVE",
"455 -18 CURVE SMOOTH",
"489 -13 OFFCURVE",
"520 21 OFFCURVE",
"527 55 CURVE",
"509 26 OFFCURVE",
"478 10 OFFCURVE",
"451 6 CURVE SMOOTH"
);
},
{
closed = 1;
nodes = (
"407 -66 OFFCURVE",
"371 -55 OFFCURVE",
"344 -29 CURVE",
"359 -61 OFFCURVE",
"397 -84 OFFCURVE",
"432 -82 CURVE",
"394 -113 OFFCURVE",
"348 -131 OFFCURVE",
"310 -128 CURVE SMOOTH",
"265 -123 OFFCURVE",
"215 -86 OFFCURVE",
"183 -39 CURVE",
"197 -94 OFFCURVE",
"252 -132 OFFCURVE",
"309 -138 CURVE SMOOTH",
"360 -142 OFFCURVE",
"413 -122 OFFCURVE",
"442 -81 CURVE",
"478 -76 OFFCURVE",
"510 -45 OFFCURVE",
"519 -10 CURVE",
"498 -41 OFFCURVE",
"465 -59 OFFCURVE",
"436 -62 CURVE SMOOTH"
);
}
);
width = 733;
}
);
leftKerningGroup = O;
rightKerningGroup = C;
unicode = 0043;
userData = {
com.typemytype.robofont.guides = (
{
angle = 0;
isGlobal = 0;
magnetic = 5;
x = 0;
y = 434;
},
{
angle = 0;
isGlobal = 0;
magnetic = 5;
x = 0;
y = 266;
},
{
angle = 0;
isGlobal = 0;
magnetic = 5;
x = 0;
y = 710;
},
{
angle = 0;
isGlobal = 0;
magnetic = 5;
x = 0;
y = "-10";
},
{
angle = 90;
isGlobal = 0;
magnetic = 5;
x = 599;
y = 0;
},
{
angle = 90;
isGlobal = 0;
magnetic = 5;
x = 209;
y = 0;
},
{
angle = 90;
isGlobal = 0;
magnetic = 5;
x = 149;
y = 0;
},
{
angle = 90;
isGlobal = 0;
magnetic = 5;
x = 332;
y = 0;
}
);
};
},
{
color = 1;
glyphname = Ccedilla;
layers = (
{
hints = (
{
horizontal = 1;
place = "{-2147483648, 0}";
type = Tag;
name = hr00;
}
);
layerId = "EC64484B-0978-4CB1-9EE9-C40A2D8C4059";
paths = (
{
closed = 1;
nodes = (
"637 697 OFFCURVE",
"664 659 OFFCURVE",
"673 614 CURVE",
"680 659 OFFCURVE",
"655 710 OFFCURVE",
"615 732 CURVE SMOOTH",
"603 739 OFFCURVE",
"589 743 OFFCURVE",
"574 745 CURVE",
"611 749 OFFCURVE",
"648 743 OFFCURVE",
"671 725 CURVE SMOOTH",
"699 704 OFFCURVE",
"718 661 OFFCURVE",
"721 617 CURVE",
"733 659 OFFCURVE",
"712 707 OFFCURVE",
"677 733 CURVE SMOOTH",
"644 757 OFFCURVE",
"597 764 OFFCURVE",
"561 746 CURVE",
"533 746 OFFCURVE",
"504 737 OFFCURVE",
"484 719 CURVE",
"526 735 OFFCURVE",
"573 732 OFFCURVE",
"605 715 CURVE SMOOTH"
);
},
{
closed = 1;
nodes = (
"60 715 OFFCURVE",
"110 729 OFFCURVE",
"158 726 CURVE",
"114 745 OFFCURVE",
"60 729 OFFCURVE",
"27 695 CURVE SMOOTH",
"-6 660 OFFCURVE",
"-19 605 OFFCURVE",
"2 562 CURVE",
"-4 609 OFFCURVE",
"8 660 OFFCURVE",
"34 688 CURVE SMOOTH"
);
},
{
closed = 1;
nodes = (
"364 693 OFFCURVE",
"390 689 OFFCURVE",
"408 669 CURVE",
"398 694 OFFCURVE",
"368 717 OFFCURVE",
"341 716 CURVE SMOOTH",
"314 714 OFFCURVE",
"288 688 OFFCURVE",
"280 662 CURVE",
"296 683 OFFCURVE",
"321 691 OFFCURVE",
"343 692 CURVE SMOOTH"
);
},
{
closed = 1;
nodes = (
"532 671 OFFCURVE",
"558 653 OFFCURVE",
"570 624 CURVE",
"568 656 OFFCURVE",
"545 692 OFFCURVE",
"514 701 CURVE SMOOTH",
"483 710 OFFCURVE",
"444 693 OFFCURVE",
"424 668 CURVE",
"451 685 OFFCURVE",
"483 685 OFFCURVE",
"507 678 CURVE SMOOTH"
);
},
{
closed = 1;
nodes = (
"144 621 OFFCURVE",
"165 641 OFFCURVE",
"186 652 CURVE SMOOTH",
"207 663 OFFCURVE",
"236 670 OFFCURVE",
"264 658 CURVE",
"242 679 OFFCURVE",
"201 687 OFFCURVE",
"175 673 CURVE SMOOTH",
"148 659 OFFCURVE",
"133 621 OFFCURVE",
"138 591 CURVE"
);
},
{
closed = 1;
nodes = (
"67 644 OFFCURVE",
"28 626 OFFCURVE",
"12 597 CURVE SMOOTH",
"-4 568 OFFCURVE",
"3 525 OFFCURVE",
"25 500 CURVE",
"12 531 OFFCURVE",
"17 564 OFFCURVE",
"29 587 CURVE SMOOTH",
"42 611 OFFCURVE",
"68 632 OFFCURVE",
"100 639 CURVE"
);
},
{
closed = 1;
nodes = (
"659 607 OFFCURVE",
"617 622 OFFCURVE",
"584 615 CURVE",
"617 610 OFFCURVE",
"642 589 OFFCURVE",
"656 565 CURVE SMOOTH",
"671 542 OFFCURVE",
"678 510 OFFCURVE",
"667 478 CURVE",
"688 504 OFFCURVE",
"695 549 OFFCURVE",
"677 578 CURVE SMOOTH"
);
},
{
closed = 1;
nodes = (
"39 500 OFFCURVE",
"54 461 OFFCURVE",
"77 441 CURVE",
"62 468 OFFCURVE",
"64 498 OFFCURVE",
"72 521 CURVE SMOOTH",
"80 544 OFFCURVE",
"98 568 OFFCURVE",
"127 579 CURVE",
"96 579 OFFCURVE",
"60 558 OFFCURVE",
"49 529 CURVE SMOOTH"
);
},
{
closed = 1;
nodes = (
"713 368 OFFCURVE",
"658 402 OFFCURVE",
"603 404 CURVE SMOOTH",
"556 407 OFFCURVE",
"507 385 OFFCURVE",
"481 347 CURVE",
"478 347 OFFCURVE",
"475 348 OFFCURVE",
"472 349 CURVE SMOOTH",
"442 359 OFFCURVE",
"413 388 OFFCURVE",
"396 425 CURVE",
"403 415 OFFCURVE",
"411 407 OFFCURVE",
"421 402 CURVE SMOOTH",
"451 384 OFFCURVE",
"496 390 OFFCURVE",
"523 412 CURVE",
"490 400 OFFCURVE",
"455 405 OFFCURVE",
"431 419 CURVE SMOOTH",
"414 429 OFFCURVE",
"399 444 OFFCURVE",
"389 465 CURVE",
"417 473 OFFCURVE",
"443 498 OFFCURVE",
"453 525 CURVE",
"434 501 OFFCURVE",
"406 489 OFFCURVE",
"381 487 CURVE",
"380 489 OFFCURVE",
"379 492 OFFCURVE",
"379 495 CURVE",
"379 492 OFFCURVE",
"378 489 OFFCURVE",
"378 486 CURVE",
"370 486 LINE SMOOTH",
"343 485 OFFCURVE",
"310 496 OFFCURVE",
"287 522 CURVE",
"299 489 OFFCURVE",
"336 461 OFFCURVE",
"371 462 CURVE SMOOTH",
"374 462 OFFCURVE",
"377 462 OFFCURVE",
"380 463 CURVE",
"382 450 OFFCURVE",
"387 438 OFFCURVE",
"394 428 CURVE",
"397 387 OFFCURVE",
"431 351 OFFCURVE",
"470 339 CURVE SMOOTH",
"472 338 OFFCURVE",
"474 338 OFFCURVE",
"476 337 CURVE",
"474 334 OFFCURVE",
"472 331 OFFCURVE",
"471 327 CURVE",
"474 330 OFFCURVE",
"477 333 OFFCURVE",
"480 337 CURVE",
"517 329 OFFCURVE",
"560 342 OFFCURVE",
"583 372 CURVE",
"554 353 OFFCURVE",
"519 343 OFFCURVE",
"489 346 CURVE",
"524 376 OFFCURVE",
"567 396 OFFCURVE",
"603 394 CURVE SMOOTH",
"646 393 OFFCURVE",
"696 359 OFFCURVE",
"729 316 CURVE"
);
},
{
closed = 1;
nodes = (
"526 439 OFFCURVE",
"559 453 OFFCURVE",
"575 472 CURVE",
"553 460 OFFCURVE",
"530 463 OFFCURVE",
"511 470 CURVE SMOOTH",
"492 477 OFFCURVE",
"472 490 OFFCURVE",
"463 513 CURVE",
"463 488 OFFCURVE",
"479 457 OFFCURVE",
"503 448 CURVE SMOOTH"
);
},
{
closed = 1;
nodes = (
"291 330 OFFCURVE",
"325 363 OFFCURVE",
"333 399 CURVE",
"364 379 OFFCURVE",
"385 349 OFFCURVE",
"393 320 CURVE SMOOTH",
"399 295 OFFCURVE",
"396 265 OFFCURVE",
"385 237 CURVE",
"383 237 OFFCURVE",
"382 237 OFFCURVE",
"380 236 CURVE SMOOTH",
"348 225 OFFCURVE",
"324 187 OFFCURVE",
"323 153 CURVE",
"335 184 OFFCURVE",
"362 204 OFFCURVE",
"387 213 CURVE SMOOTH",
"413 222 OFFCURVE",
"446 222 OFFCURVE",
"475 205 CURVE",
"458 226 OFFCURVE",
"426 240 OFFCURVE",
"398 239 CURVE",
"413 265 OFFCURVE",
"419 297 OFFCURVE",
"412 324 CURVE SMOOTH",
"403 361 OFFCURVE",
"371 394 OFFCURVE",
"334 405 CURVE",
"334 408 LINE SMOOTH",
"339 447 OFFCURVE",
"312 491 OFFCURVE",
"277 509 CURVE",
"304 480 OFFCURVE",
"314 442 OFFCURVE",
"310 410 CURVE SMOOTH",
"307 379 OFFCURVE",
"289 344 OFFCURVE",
"256 322 CURVE"
);
},
{
closed = 1;
nodes = (
"615 457 OFFCURVE",
"600 458 OFFCURVE",
"591 472 CURVE",
"595 456 OFFCURVE",
"609 434 OFFCURVE",
"625 432 CURVE SMOOTH",
"642 430 OFFCURVE",
"661 447 OFFCURVE",
"669 462 CURVE",
"657 451 OFFCURVE",
"641 454 OFFCURVE",
"628 456 CURVE SMOOTH"
);
},
{
closed = 1;
nodes = (
"56 316 OFFCURVE",
"51 341 OFFCURVE",
"51 362 CURVE SMOOTH",
"51 383 OFFCURVE",
"56 408 OFFCURVE",
"77 425 CURVE",
"52 416 OFFCURVE",
"27 389 OFFCURVE",
"27 362 CURVE SMOOTH",
"27 336 OFFCURVE",
"51 309 OFFCURVE",
"76 299 CURVE"
);
},
{
closed = 1;
nodes = (
"326 283 OFFCURVE",
"288 305 OFFCURVE",
"256 305 CURVE",
"286 294 OFFCURVE",
"306 269 OFFCURVE",
"315 245 CURVE SMOOTH",
"323 220 OFFCURVE",
"325 188 OFFCURVE",
"309 160 CURVE",
"333 181 OFFCURVE",
"348 222 OFFCURVE",
"337 253 CURVE SMOOTH"
);
},
{
closed = 1;
nodes = (
"78 167 OFFCURVE",
"67 191 OFFCURVE",
"62 213 CURVE SMOOTH",
"58 235 OFFCURVE",
"59 262 OFFCURVE",
"76 283 CURVE",
"53 269 OFFCURVE",
"33 236 OFFCURVE",
"39 208 CURVE SMOOTH",
"44 181 OFFCURVE",
"75 158 OFFCURVE",
"103 154 CURVE"
);
},
{
closed = 1;
nodes = (
"604 254 OFFCURVE",
"573 278 OFFCURVE",
"545 276 CURVE SMOOTH",
"517 274 OFFCURVE",
"489 246 OFFCURVE",
"481 219 CURVE",
"498 242 OFFCURVE",
"524 250 OFFCURVE",
"546 252 CURVE SMOOTH",
"569 253 OFFCURVE",
"596 248 OFFCURVE",
"615 228 CURVE"
);
},
{
closed = 1;
nodes = (
"745 236 OFFCURVE",
"751 199 OFFCURVE",
"744 170 CURVE SMOOTH",
"736 142 OFFCURVE",
"714 112 OFFCURVE",
"680 96 CURVE",
"717 100 OFFCURVE",
"754 130 OFFCURVE",
"763 165 CURVE SMOOTH",
"772 201 OFFCURVE",
"754 245 OFFCURVE",
"724 266 CURVE"
);
},
{
closed = 1;
nodes = (
"644 222 OFFCURVE",
"646 208 OFFCURVE",
"649 197 CURVE SMOOTH",
"652 185 OFFCURVE",
"658 173 OFFCURVE",
"650 161 CURVE",
"662 169 OFFCURVE",
"676 189 OFFCURVE",
"672 203 CURVE SMOOTH",
"668 217 OFFCURVE",
"646 227 OFFCURVE",
"631 228 CURVE"
);
},
{
closed = 1;
nodes = (
"-9 58 OFFCURVE",
"-17 113 OFFCURVE",
"-8 164 CURVE",
"-34 120 OFFCURVE",
"-23 59 OFFCURVE",
"10 20 CURVE SMOOTH",
"43 -20 OFFCURVE",
"100 -42 OFFCURVE",
"149 -24 CURVE",
"97 -24 OFFCURVE",
"44 -6 OFFCURVE",
"18 26 CURVE SMOOTH"
);
},
{
closed = 1;
nodes = (
"570 46 OFFCURVE",
"534 36 OFFCURVE",
"499 46 CURVE",
"529 24 OFFCURVE",
"578 22 OFFCURVE",
"608 43 CURVE SMOOTH",
"638 64 OFFCURVE",
"652 111 OFFCURVE",
"643 147 CURVE",
"639 110 OFFCURVE",
"618 80 OFFCURVE",
"594 63 CURVE SMOOTH"
);
},
{
closed = 1;
nodes = (
"127 92 OFFCURVE",
"111 113 OFFCURVE",
"110 140 CURVE",
"101 114 OFFCURVE",
"107 76 OFFCURVE",
"128 59 CURVE SMOOTH",
"150 42 OFFCURVE",
"188 43 OFFCURVE",
"211 57 CURVE",
"184 52 OFFCURVE",
"161 64 OFFCURVE",
"144 78 CURVE SMOOTH"
);
},
{
closed = 1;
nodes = (
"81 34 OFFCURVE",
"62 69 OFFCURVE",
"60 108 CURVE",
"48 71 OFFCURVE",
"63 23 OFFCURVE",
"93 0 CURVE SMOOTH",
"124 -24 OFFCURVE",
"174 -25 OFFCURVE",
"206 -4 CURVE",
"168 -13 OFFCURVE",
"130 -3 OFFCURVE",
"105 16 CURVE SMOOTH"
);
},
{
closed = 1;
nodes = (
"252 17 OFFCURVE",
"233 29 OFFCURVE",
"226 52 CURVE",
"225 28 OFFCURVE",
"238 -3 OFFCURVE",
"259 -12 CURVE SMOOTH",
"281 -21 OFFCURVE",
"312 -9 OFFCURVE",
"329 8 CURVE",
"308 -3 OFFCURVE",
"286 3 OFFCURVE",
"269 10 CURVE SMOOTH"
);
},
{
closed = 1;
nodes = (
"344 -170 OFFCURVE",
"343 -177 OFFCURVE",
"336 -181 CURVE",
"341 -180 OFFCURVE",
"348 -178 OFFCURVE",
"354 -175 CURVE",
"359 -179 OFFCURVE",
"364 -182 OFFCURVE",
"370 -183 CURVE SMOOTH",
"388 -187 OFFCURVE",
"410 -170 OFFCURVE",
"419 -154 CURVE",
"405 -166 OFFCURVE",
"388 -163 OFFCURVE",
"374 -160 CURVE",
"372 -160 OFFCURVE",
"371 -159 OFFCURVE",
"369 -159 CURVE",
"370 -148 OFFCURVE",
"356 -134 OFFCURVE",
"347 -128 CURVE",
"356 -121 LINE SMOOTH",
"375 -107 OFFCURVE",
"399 -96 OFFCURVE",
"427 -103 CURVE",
"428 -114 OFFCURVE",
"427 -126 OFFCURVE",
"424 -138 CURVE",
"443 -110 OFFCURVE",
"446 -64 OFFCURVE",
"426 -37 CURVE SMOOTH",
"425 -35 OFFCURVE",
"424 -34 OFFCURVE",
"422 -32 CURVE",
"423 -32 LINE SMOOTH",
"454 -24 OFFCURVE",
"480 10 OFFCURVE",
"483 42 CURVE",
"469 13 OFFCURVE",
"442 -3 OFFCURVE",
"417 -9 CURVE SMOOTH",
"409 -11 OFFCURVE",
"401 -11 OFFCURVE",
"392 -11 CURVE",
"380 -6 OFFCURVE",
"367 -4 OFFCURVE",
"354 -4 CURVE",
"348 -1 OFFCURVE",
"342 3 OFFCURVE",
"336 7 CURVE",
"338 3 OFFCURVE",
"341 0 OFFCURVE",
"344 -4 CURVE",
"339 -4 OFFCURVE",
"334 -5 OFFCURVE",
"329 -7 CURVE",
"334 -7 LINE",
"329 -11 OFFCURVE",
"320 -19 OFFCURVE",
"321 -22 CURVE SMOOTH",
"322 -27 OFFCURVE",
"338 -29 OFFCURVE",
"343 -29 CURVE",
"338 -27 OFFCURVE",
"345 -20 OFFCURVE",
"344 -16 CURVE SMOOTH",
"343 -13 OFFCURVE",
"336 -11 OFFCURVE",
"335 -8 CURVE",
"341 -8 OFFCURVE",
"347 -10 OFFCURVE",
"352 -11 CURVE",
"362 -19 OFFCURVE",
"374 -26 OFFCURVE",
"386 -30 CURVE",
"394 -36 OFFCURVE",
"401 -43 OFFCURVE",
"406 -51 CURVE SMOOTH",
"416 -65 OFFCURVE",
"424 -83 OFFCURVE",
"427 -102 CURVE",
"421 -99 OFFCURVE",
"416 -96 OFFCURVE",
"409 -94 CURVE",
"413 -93 OFFCURVE",
"417 -91 OFFCURVE",
"420 -89 CURVE",
"399 -93 OFFCURVE",
"383 -83 OFFCURVE",
"371 -73 CURVE SMOOTH",
"358 -63 OFFCURVE",
"344 -49 OFFCURVE",
"343 -29 CURVE",
"337 -48 OFFCURVE",
"340 -79 OFFCURVE",
"356 -91 CURVE SMOOTH",
"357 -92 OFFCURVE",
"358 -92 OFFCURVE",
"358 -93 CURVE",
"352 -95 OFFCURVE",
"347 -97 OFFCURVE",
"342 -101 CURVE SMOOTH",
"319 -119 OFFCURVE",
"311 -157 OFFCURVE",
"319 -185 CURVE",
"320 -168 OFFCURVE",
"326 -154 OFFCURVE",
"335 -142 CURVE",
"337 -149 OFFCURVE",
"340 -157 OFFCURVE",
"345 -163 CURVE"
);
},
{
closed = 1;
nodes = (
"591 -132 OFFCURVE",
"558 -150 OFFCURVE",
"523 -154 CURVE",
"557 -162 OFFCURVE",
"595 -143 OFFCURVE",
"614 -114 CURVE SMOOTH",
"633 -85 OFFCURVE",
"634 -42 OFFCURVE",
"613 -14 CURVE",
"623 -48 OFFCURVE",
"621 -85 OFFCURVE",
"606 -108 CURVE SMOOTH"
);
},
{
closed = 1;
nodes = (
"395 -255 OFFCURVE",
"441 -248 OFFCURVE",
"467 -223 CURVE SMOOTH",
"493 -197 OFFCURVE",
"500 -151 OFFCURVE",
"485 -118 CURVE",
"488 -154 OFFCURVE",
"473 -188 OFFCURVE",
"453 -209 CURVE SMOOTH",
"432 -229 OFFCURVE",
"398 -243 OFFCURVE",
"362 -240 CURVE"
);
},
{
closed = 1;
nodes = (
"353 -136 OFFCURVE",
"349 -143 OFFCURVE",
"346 -151 CURVE",
"342 -148 OFFCURVE",
"339 -145 OFFCURVE",
"336 -141 CURVE",
"339 -136 OFFCURVE",
"343 -132 OFFCURVE",
"347 -128 CURVE"
);
},
{
closed = 1;
nodes = (
"406 -301 OFFCURVE",
"362 -295 OFFCURVE",
"326 -276 CURVE",
"353 -306 OFFCURVE",
"402 -314 OFFCURVE",
"440 -298 CURVE SMOOTH",
"478 -283 OFFCURVE",
"508 -244 OFFCURVE",
"507 -203 CURVE",
"494 -242 OFFCURVE",
"467 -277 OFFCURVE",
"436 -289 CURVE SMOOTH"
);
}
);
width = 733;
}
);
leftKerningGroup = O;
rightKerningGroup = C;
unicode = 00C7;
userData = {
com.typemytype.robofont.guides = (
{
angle = 0;
isGlobal = 0;
magnetic = 5;
x = 0;
y = "-174";
},
{
angle = 0;
isGlobal = 0;
magnetic = 5;
x = 0;
y = "-220";
},
{
angle = 0;
isGlobal = 0;
magnetic = 5;
x = 0;
y = "-96";
},
{
angle = 0;
isGlobal = 0;
magnetic = 5;
x = 0;
y = "-50";
},
{
angle = 0;
isGlobal = 0;
magnetic = 5;
x = 0;
y = "-135";
},
{
angle = 90;
isGlobal = 0;
magnetic = 5;
x = 331;
y = 0;
},
{
angle = 90;
isGlobal = 0;
magnetic = 5;
x = 342;
y = 0;
}
);
};
},
{
color = 1;
glyphname = D;
layers = (
{
hints = (
{
horizontal = 1;
place = "{-2147483648, 0}";
type = Tag;
name = hr00;
}
);
layerId = "EC64484B-0978-4CB1-9EE9-C40A2D8C4059";
paths = (
{
closed = 1;
nodes = (
"167 811 OFFCURVE",
"209 791 OFFCURVE",
"238 760 CURVE",
"221 799 OFFCURVE",
"175 822 OFFCURVE",
"133 819 CURVE SMOOTH",
"90 816 OFFCURVE",
"48 788 OFFCURVE",
"36 747 CURVE",
"61 781 OFFCURVE",
"100 807 OFFCURVE",
"134 809 CURVE SMOOTH"
);
},
{
closed = 1;
nodes = (
"788 527 OFFCURVE",
"784 588 OFFCURVE",
"756 630 CURVE SMOOTH",
"729 671 OFFCURVE",
"679 698 OFFCURVE",
"632 690 CURVE",
"625 699 OFFCURVE",
"617 707 OFFCURVE",
"608 712 CURVE SMOOTH",
"577 730 OFFCURVE",
"530 726 OFFCURVE",
"501 703 CURVE",
"536 715 OFFCURVE",
"573 709 OFFCURVE",
"598 694 CURVE SMOOTH",
"623 679 OFFCURVE",
"645 649 OFFCURVE",
"651 613 CURVE",
"656 638 OFFCURVE",
"649 666 OFFCURVE",
"634 688 CURVE",
"681 680 OFFCURVE",
"726 657 OFFCURVE",
"748 625 CURVE SMOOTH",
"770 591 OFFCURVE",
"772 535 OFFCURVE",
"757 487 CURVE"
);
},
{
closed = 1;
nodes = (
"390 696 OFFCURVE",
"424 682 OFFCURVE",
"446 654 CURVE",
"435 688 OFFCURVE",
"398 719 OFFCURVE",
"362 721 CURVE SMOOTH",
"326 722 OFFCURVE",
"288 694 OFFCURVE",
"274 660 CURVE",
"298 687 OFFCURVE",
"333 698 OFFCURVE",
"361 697 CURVE SMOOTH"
);
},
{
closed = 1;
nodes = (
"14 569 OFFCURVE",
"11 612 OFFCURVE",
"22 643 CURVE SMOOTH",
"33 675 OFFCURVE",
"63 706 OFFCURVE",
"102 720 CURVE",
"60 720 OFFCURVE",
"17 689 OFFCURVE",
"3 650 CURVE SMOOTH",
"-11 611 OFFCURVE",
"3 560 OFFCURVE",
"35 533 CURVE"
);
},
{
closed = 1;
nodes = (
"154 679 OFFCURVE",
"178 684 OFFCURVE",
"198 684 CURVE SMOOTH",
"218 684 OFFCURVE",
"242 679 OFFCURVE",
"258 660 CURVE",
"249 684 OFFCURVE",
"223 708 OFFCURVE",
"198 708 CURVE SMOOTH",
"173 708 OFFCURVE",
"147 684 OFFCURVE",
"138 660 CURVE"
);
},
{
closed = 1;
nodes = (
"536 682 OFFCURVE",
"489 674 OFFCURVE",
"462 651 CURVE",
"495 664 OFFCURVE",
"530 658 OFFCURVE",
"555 644 CURVE SMOOTH",
"580 630 OFFCURVE",
"604 604 OFFCURVE",
"611 568 CURVE",
"616 604 OFFCURVE",
"598 647 OFFCURVE",
"567 665 CURVE SMOOTH"
);
},
{
closed = 1;
nodes = (
"104 659 OFFCURVE",
"78 648 OFFCURVE",
"72 630 CURVE SMOOTH",
"67 613 OFFCURVE",
"81 589 OFFCURVE",
"95 577 CURVE",
"85 593 OFFCURVE",
"91 609 OFFCURVE",
"95 623 CURVE SMOOTH",
"100 637 OFFCURVE",
"105 653 OFFCURVE",
"122 660 CURVE"
);
},
{
closed = 1;
nodes = (
"670 499 OFFCURVE",
"674 473 OFFCURVE",
"662 448 CURVE",
"682 467 OFFCURVE",
"694 503 OFFCURVE",
"683 528 CURVE SMOOTH",
"673 554 OFFCURVE",
"638 570 OFFCURVE",
"611 568 CURVE",
"637 560 OFFCURVE",
"653 539 OFFCURVE",
"661 519 CURVE SMOOTH"
);
},
{
closed = 1;
nodes = (
"36 451 OFFCURVE",
"64 417 OFFCURVE",
"95 406 CURVE",
"70 427 OFFCURVE",
"60 457 OFFCURVE",
"60 484 CURVE SMOOTH",
"60 510 OFFCURVE",
"70 540 OFFCURVE",
"95 561 CURVE",
"64 550 OFFCURVE",
"36 516 OFFCURVE",
"36 484 CURVE SMOOTH"
);
},
{
closed = 1;
nodes = (
"296 373 OFFCURVE",
"324 407 OFFCURVE",
"324 440 CURVE SMOOTH",
"324 453 OFFCURVE",
"319 467 OFFCURVE",
"311 480 CURVE",
"322 473 OFFCURVE",
"335 469 OFFCURVE",
"347 469 CURVE SMOOTH",
"382 468 OFFCURVE",
"419 496 OFFCURVE",
"432 529 CURVE",
"408 502 OFFCURVE",
"375 492 OFFCURVE",
"347 493 CURVE SMOOTH",
"319 494 OFFCURVE",
"287 506 OFFCURVE",
"265 533 CURVE",
"267 526 OFFCURVE",
"271 519 OFFCURVE",
"275 512 CURVE",
"272 514 OFFCURVE",
"268 516 OFFCURVE",
"265 517 CURVE",
"290 496 OFFCURVE",
"300 466 OFFCURVE",
"300 440 CURVE SMOOTH",
"300 413 OFFCURVE",
"290 383 OFFCURVE",
"265 362 CURVE"
);
},
{
closed = 1;
nodes = (
"429 413 OFFCURVE",
"463 395 OFFCURVE",
"491 395 CURVE",
"465 404 OFFCURVE",
"450 427 OFFCURVE",
"442 448 CURVE SMOOTH",
"434 469 OFFCURVE",
"431 495 OFFCURVE",
"445 520 CURVE",
"424 502 OFFCURVE",
"410 465 OFFCURVE",
"420 439 CURVE SMOOTH"
);
},
{
closed = 1;
nodes = (
"692 301 OFFCURVE",
"719 332 OFFCURVE",
"719 361 CURVE SMOOTH",
"718 391 OFFCURVE",
"692 422 OFFCURVE",
"664 432 CURVE",
"687 413 OFFCURVE",
"694 385 OFFCURVE",
"695 361 CURVE SMOOTH",
"695 337 OFFCURVE",
"687 309 OFFCURVE",
"664 290 CURVE"
);
},
{
closed = 1;
nodes = (
"270 161 OFFCURVE",
"275 163 OFFCURVE",
"280 166 CURVE",
"277 155 LINE",
"281 161 OFFCURVE",
"285 167 OFFCURVE",
"290 172 CURVE SMOOTH",
"296 177 OFFCURVE",
"301 182 OFFCURVE",
"306 188 CURVE",
"322 200 OFFCURVE",
"340 207 OFFCURVE",
"357 210 CURVE SMOOTH",
"387 215 OFFCURVE",
"423 208 OFFCURVE",
"451 184 CURVE",
"437 209 OFFCURVE",
"407 229 OFFCURVE",
"377 234 CURVE",
"388 250 OFFCURVE",
"394 271 OFFCURVE",
"388 289 CURVE",
"388 290 OFFCURVE",
"388 291 OFFCURVE",
"387 291 CURVE",
"399 302 OFFCURVE",
"413 309 OFFCURVE",
"431 310 CURVE",
"416 315 OFFCURVE",
"396 313 OFFCURVE",
"380 306 CURVE",
"373 315 OFFCURVE",
"364 323 OFFCURVE",
"354 329 CURVE",
"347 345 OFFCURVE",
"344 361 OFFCURVE",
"347 375 CURVE SMOOTH",
"352 394 OFFCURVE",
"368 415 OFFCURVE",
"390 426 CURVE",
"365 423 OFFCURVE",
"343 401 OFFCURVE",
"338 377 CURVE SMOOTH",
"335 362 OFFCURVE",
"337 347 OFFCURVE",
"344 334 CURVE",
"338 336 OFFCURVE",
"331 338 OFFCURVE",
"325 338 CURVE",
"344 329 OFFCURVE",
"357 313 OFFCURVE",
"365 296 CURVE",
"359 290 LINE",
"348 275 OFFCURVE",
"346 253 OFFCURVE",
"351 234 CURVE",
"343 232 OFFCURVE",
"335 229 OFFCURVE",
"328 225 CURVE",
"331 234 OFFCURVE",
"333 244 OFFCURVE",
"333 253 CURVE SMOOTH",
"333 292 OFFCURVE",
"302 333 OFFCURVE",
"265 346 CURVE",
"295 321 OFFCURVE",
"309 284 OFFCURVE",
"309 253 CURVE SMOOTH",
"309 221 OFFCURVE",
"295 184 OFFCURVE",
"265 159 CURVE"
);
},
{
closed = 1;
nodes = (
"798 392 OFFCURVE",
"822 347 OFFCURVE",
"821 310 CURVE SMOOTH",
"819 273 OFFCURVE",
"792 231 OFFCURVE",
"755 203 CURVE",
"799 217 OFFCURVE",
"829 264 OFFCURVE",
"831 310 CURVE SMOOTH",
"833 356 OFFCURVE",
"807 405 OFFCURVE",
"764 423 CURVE"
);
},
{
closed = 1;
nodes = (
"68 245 OFFCURVE",
"57 278 OFFCURVE",
"57 306 CURVE SMOOTH",
"57 334 OFFCURVE",
"68 367 OFFCURVE",
"95 390 CURVE",
"62 378 OFFCURVE",
"33 341 OFFCURVE",
"33 306 CURVE SMOOTH",
"33 271 OFFCURVE",
"62 234 OFFCURVE",
"95 222 CURVE"
);
},
{
closed = 1;
nodes = (
"484 376 OFFCURVE",
"468 367 OFFCURVE",
"468 358 CURVE SMOOTH",
"468 350 OFFCURVE",
"484 341 OFFCURVE",
"492 338 CURVE",
"486 344 OFFCURVE",
"492 352 OFFCURVE",
"492 359 CURVE SMOOTH",
"492 365 OFFCURVE",
"485 373 OFFCURVE",
"492 379 CURVE"
);
},
{
closed = 1;
nodes = (
"-45 347 OFFCURVE",
"-71 303 OFFCURVE",
"-71 260 CURVE SMOOTH",
"-71 218 OFFCURVE",
"-45 173 OFFCURVE",
"-5 159 CURVE",
"-38 186 OFFCURVE",
"-61 226 OFFCURVE",
"-61 260 CURVE SMOOTH",
"-61 294 OFFCURVE",
"-38 335 OFFCURVE",
"-5 362 CURVE"
);
},
{
closed = 1;
nodes = (
"416 248 OFFCURVE",
"436 212 OFFCURVE",
"462 196 CURVE",
"443 220 OFFCURVE",
"441 250 OFFCURVE",
"446 274 CURVE SMOOTH",
"451 297 OFFCURVE",
"465 324 OFFCURVE",
"492 338 CURVE",
"462 334 OFFCURVE",
"429 308 OFFCURVE",
"423 278 CURVE SMOOTH"
);
},
{
closed = 1;
nodes = (
"705 202 OFFCURVE",
"691 249 OFFCURVE",
"664 274 CURVE",
"681 241 OFFCURVE",
"680 204 OFFCURVE",
"668 176 CURVE SMOOTH",
"657 149 OFFCURVE",
"632 121 OFFCURVE",
"597 110 CURVE",
"634 109 OFFCURVE",
"676 133 OFFCURVE",
"690 167 CURVE SMOOTH"
);
},
{
closed = 1;
nodes = (
"373 261 OFFCURVE",
"373 248 OFFCURVE",
"369 235 CURVE",
"357 235 LINE",
"358 249 OFFCURVE",
"364 262 OFFCURVE",
"371 273 CURVE"
);
},
{
closed = 1;
nodes = (
"702 98 OFFCURVE",
"673 73 OFFCURVE",
"637 65 CURVE",
"674 60 OFFCURVE",
"717 82 OFFCURVE",
"734 115 CURVE SMOOTH",
"751 148 OFFCURVE",
"744 196 OFFCURVE",
"718 223 CURVE",
"733 189 OFFCURVE",
"730 151 OFFCURVE",
"716 124 CURVE SMOOTH"
);
},
{
closed = 1;
nodes = (
"71 79 OFFCURVE",
"63 108 OFFCURVE",
"63 133 CURVE SMOOTH",
"63 157 OFFCURVE",
"71 187 OFFCURVE",
"95 206 CURVE",
"66 196 OFFCURVE",
"39 164 OFFCURVE",
"39 133 CURVE SMOOTH",
"39 102 OFFCURVE",
"66 69 OFFCURVE",
"95 59 CURVE"
);
},
{
closed = 1;
nodes = (
"10 76 OFFCURVE",
"15 108 OFFCURVE",
"35 135 CURVE",
"7 117 OFFCURVE",
"-11 78 OFFCURVE",
"-3 45 CURVE SMOOTH",
"4 13 OFFCURVE",
"37 -14 OFFCURVE",
"70 -18 CURVE",
"41 -3 OFFCURVE",
"22 24 OFFCURVE",
"16 50 CURVE SMOOTH"
);
},
{
closed = 1;
nodes = (
"497 28 OFFCURVE",
"465 27 OFFCURVE",
"435 43 CURVE",
"457 18 OFFCURVE",
"500 4 OFFCURVE",
"531 15 CURVE SMOOTH",
"562 27 OFFCURVE",
"585 66 OFFCURVE",
"584 99 CURVE",
"573 68 OFFCURVE",
"548 47 OFFCURVE",
"523 38 CURVE SMOOTH"
);
},
{
closed = 1;
nodes = (
"194 -14 OFFCURVE",
"226 12 OFFCURVE",
"236 40 CURVE",
"217 18 OFFCURVE",
"189 11 OFFCURVE",
"165 11 CURVE SMOOTH",
"141 12 OFFCURVE",
"114 20 OFFCURVE",
"95 43 CURVE",
"105 15 OFFCURVE",
"135 -12 OFFCURVE",
"165 -13 CURVE SMOOTH"
);
},
{
closed = 1;
nodes = (
"265 7 OFFCURVE",
"301 -22 OFFCURVE",
"336 -21 CURVE SMOOTH",
"372 -21 OFFCURVE",
"408 9 OFFCURVE",
"419 42 CURVE",
"397 15 OFFCURVE",
"364 3 OFFCURVE",
"336 3 CURVE SMOOTH",
"308 2 OFFCURVE",
"275 13 OFFCURVE",
"252 40 CURVE"
);
},
{
closed = 1;
nodes = (
"304 -132 OFFCURVE",
"253 -104 OFFCURVE",
"216 -64 CURVE",
"233 -53 OFFCURVE",
"246 -37 OFFCURVE",
"252 -20 CURVE",
"231 -45 OFFCURVE",
"200 -58 OFFCURVE",
"173 -58 CURVE SMOOTH",
"146 -58 OFFCURVE",
"115 -45 OFFCURVE",
"94 -20 CURVE",
"105 -51 OFFCURVE",
"140 -78 OFFCURVE",
"173 -78 CURVE SMOOTH",
"187 -78 OFFCURVE",
"202 -73 OFFCURVE",
"215 -65 CURVE",
"238 -114 OFFCURVE",
"295 -142 OFFCURVE",
"348 -140 CURVE SMOOTH",
"404 -138 OFFCURVE",
"461 -104 OFFCURVE",
"479 -51 CURVE",
"444 -95 OFFCURVE",
"393 -129 OFFCURVE",
"348 -130 CURVE SMOOTH"
);
}
);
width = 740;
}
);
leftKerningGroup = I;
rightKerningGroup = D;
unicode = 0044;
userData = {
com.typemytype.robofont.guides = (
{
angle = 0;
isGlobal = 0;
magnetic = 5;
x = 0;
y = 425;
},
{
angle = 0;
isGlobal = 0;
magnetic = 5;
x = 0;
y = 276;
},
{
angle = 0;
isGlobal = 0;
magnetic = 5;
x = 0;
y = 9;
},
{
angle = 90;
isGlobal = 0;
magnetic = 5;
x = 320;
y = 0;
},
{
angle = 90;
isGlobal = 0;
magnetic = 5;
x = 603;
y = 0;
},
{
angle = 90;
isGlobal = 0;
magnetic = 5;
x = 94;
y = 0;
}
);
};
},
{
color = 1;
glyphname = Eth;
layers = (
{
hints = (
{
horizontal = 1;
place = "{-2147483648, 0}";
type = Tag;
name = hr00;
}
);
layerId = "EC64484B-0978-4CB1-9EE9-C40A2D8C4059";
paths = (
{
closed = 1;
nodes = (
"472 821 OFFCURVE",
"523 783 OFFCURVE",
"556 736 CURVE",
"541 791 OFFCURVE",
"484 830 OFFCURVE",
"427 835 CURVE SMOOTH",
"369 840 OFFCURVE",
"306 812 OFFCURVE",
"282 760 CURVE",
"323 801 OFFCURVE",
"380 829 OFFCURVE",
"426 825 CURVE SMOOTH"
);
},
{
closed = 1;
nodes = (
"207 766 OFFCURVE",
"246 750 OFFCURVE",
"274 720 CURVE",
"258 758 OFFCURVE",
"214 786 OFFCURVE",
"174 784 CURVE SMOOTH",
"133 782 OFFCURVE",
"91 751 OFFCURVE",
"79 712 CURVE",
"104 744 OFFCURVE",
"142 763 OFFCURVE",
"174 764 CURVE SMOOTH"
);
},
{
closed = 1;
nodes = (
"175 722 OFFCURVE",
"138 693 OFFCURVE",
"126 660 CURVE",
"149 687 OFFCURVE",
"182 698 OFFCURVE",
"210 698 CURVE SMOOTH",
"238 698 OFFCURVE",
"271 687 OFFCURVE",
"294 660 CURVE",
"282 693 OFFCURVE",
"245 722 OFFCURVE",
"210 722 CURVE SMOOTH"
);
},
{
closed = 1;
nodes = (
"407 689 OFFCURVE",
"435 680 OFFCURVE",
"454 656 CURVE",
"444 685 OFFCURVE",
"414 713 OFFCURVE",
"383 713 CURVE SMOOTH",
"353 714 OFFCURVE",
"321 688 OFFCURVE",
"310 660 CURVE",
"330 683 OFFCURVE",
"359 690 OFFCURVE",
"383 689 CURVE SMOOTH"
);
},
{
closed = 1;
nodes = (
"495 668 OFFCURVE",
"522 665 OFFCURVE",
"543 657 CURVE SMOOTH",
"564 649 OFFCURVE",
"587 633 OFFCURVE",
"596 606 CURVE",
"596 634 OFFCURVE",
"578 669 OFFCURVE",
"552 679 CURVE SMOOTH",
"525 689 OFFCURVE",
"488 676 OFFCURVE",
"470 654 CURVE"
);
},
{
closed = 1;
nodes = (
"99 556 OFFCURVE",
"92 579 OFFCURVE",
"91 599 CURVE SMOOTH",
"89 619 OFFCURVE",
"92 642 OFFCURVE",
"110 660 CURVE",
"87 650 OFFCURVE",
"65 622 OFFCURVE",
"67 597 CURVE SMOOTH",
"69 572 OFFCURVE",
"95 548 OFFCURVE",
"119 541 CURVE"
);
},
{
closed = 1;
nodes = (
"751 556 OFFCURVE",
"756 519 OFFCURVE",
"743 485 CURVE",
"767 513 OFFCURVE",
"772 560 OFFCURVE",
"754 591 CURVE SMOOTH",
"735 623 OFFCURVE",
"692 642 OFFCURVE",
"656 635 CURVE",
"692 629 OFFCURVE",
"722 607 OFFCURVE",
"736 581 CURVE SMOOTH"
);
},
{
closed = 1;
nodes = (
"681 537 OFFCURVE",
"690 511 OFFCURVE",
"682 484 CURVE",
"699 507 OFFCURVE",
"704 545 OFFCURVE",
"689 569 CURVE SMOOTH",
"674 592 OFFCURVE",
"636 603 OFFCURVE",
"609 597 CURVE",
"637 593 OFFCURVE",
"657 575 OFFCURVE",
"669 556 CURVE SMOOTH"
);
},
{
closed = 1;
nodes = (
"-66 441 OFFCURVE",
"-73 483 OFFCURVE",
"-62 513 CURVE SMOOTH",
"-52 543 OFFCURVE",
"-19 571 OFFCURVE",
"19 585 CURVE",
"-21 585 OFFCURVE",
"-58 554 OFFCURVE",
"-72 517 CURVE SMOOTH",
"-85 479 OFFCURVE",
"-77 432 OFFCURVE",
"-46 406 CURVE"
);
},
{
closed = 1;
nodes = (
"412 327 OFFCURVE",
"384 354 OFFCURVE",
"372 383 CURVE SMOOTH",
"370 388 LINE",
"371 387 OFFCURVE",
"371 385 OFFCURVE",
"372 383 CURVE",
"373 394 OFFCURVE",
"370 408 OFFCURVE",
"365 419 CURVE",
"364 435 OFFCURVE",
"366 453 OFFCURVE",
"372 470 CURVE",
"378 470 OFFCURVE",
"383 471 OFFCURVE",
"389 472 CURVE",
"400 466 OFFCURVE",
"410 457 OFFCURVE",
"417 447 CURVE SMOOTH",
"431 428 OFFCURVE",
"439 400 OFFCURVE",
"432 371 CURVE",
"449 395 OFFCURVE",
"450 435 OFFCURVE",
"433 459 CURVE SMOOTH",
"426 468 OFFCURVE",
"417 475 OFFCURVE",
"407 480 CURVE",
"427 491 OFFCURVE",
"445 511 OFFCURVE",
"452 532 CURVE",
"431 505 OFFCURVE",
"399 494 OFFCURVE",
"371 494 CURVE SMOOTH",
"355 493 OFFCURVE",
"337 497 OFFCURVE",
"320 505 CURVE",
"312 516 OFFCURVE",
"300 525 OFFCURVE",
"289 529 CURVE",
"292 527 OFFCURVE",
"294 525 OFFCURVE",
"296 522 CURVE",
"293 524 OFFCURVE",
"291 527 OFFCURVE",
"289 529 CURVE",
"292 520 OFFCURVE",
"297 512 OFFCURVE",
"303 505 CURVE",
"305 497 OFFCURVE",
"305 490 OFFCURVE",
"305 483 CURVE SMOOTH",
"305 468 OFFCURVE",
"304 449 OFFCURVE",
"289 437 CURVE",
"307 444 OFFCURVE",
"329 464 OFFCURVE",
"329 482 CURVE",
"341 475 OFFCURVE",
"353 471 OFFCURVE",
"366 470 CURVE",
"359 460 OFFCURVE",
"354 448 OFFCURVE",
"351 436 CURVE",
"350 437 OFFCURVE",
"348 437 OFFCURVE",
"347 438 CURVE",
"330 446 OFFCURVE",
"303 435 OFFCURVE",
"289 421 CURVE",
"306 429 OFFCURVE",
"323 422 OFFCURVE",
"337 416 CURVE",
"340 414 OFFCURVE",
"344 412 OFFCURVE",
"348 411 CURVE",
"347 398 OFFCURVE",
"349 386 OFFCURVE",
"354 375 CURVE SMOOTH",
"358 366 OFFCURVE",
"364 357 OFFCURVE",
"370 350 CURVE",
"364 338 LINE SMOOTH",
"359 329 OFFCURVE",
"357 317 OFFCURVE",
"345 314 CURVE",
"357 312 OFFCURVE",
"379 316 OFFCURVE",
"385 327 CURVE SMOOTH",
"386 329 OFFCURVE",
"387 332 OFFCURVE",
"387 335 CURVE",
"405 322 OFFCURVE",
"427 314 OFFCURVE",
"449 315 CURVE"
);
},
{
closed = 1;
nodes = (
"70 412 OFFCURVE",
"69 441 OFFCURVE",
"74 464 CURVE SMOOTH",
"80 487 OFFCURVE",
"93 512 OFFCURVE",
"119 525 CURVE",
"90 521 OFFCURVE",
"57 498 OFFCURVE",
"51 469 CURVE SMOOTH",
"44 440 OFFCURVE",
"63 405 OFFCURVE",
"88 389 CURVE"
);
},
{
closed = 1;
nodes = (
"456 475 OFFCURVE",
"452 501 OFFCURVE",
"466 524 CURVE",
"445 507 OFFCURVE",
"431 472 OFFCURVE",
"440 447 CURVE SMOOTH",
"449 422 OFFCURVE",
"482 405 OFFCURVE",
"509 405 CURVE",
"484 414 OFFCURVE",
"470 435 OFFCURVE",
"463 455 CURVE SMOOTH"
);
},
{
closed = 1;
nodes = (
"757 413 OFFCURVE",
"724 455 OFFCURVE",
"685 469 CURVE",
"717 443 OFFCURVE",
"734 404 OFFCURVE",
"734 371 CURVE SMOOTH",
"735 338 OFFCURVE",
"720 299 OFFCURVE",
"689 272 CURVE",
"728 287 OFFCURVE",
"759 330 OFFCURVE",
"758 372 CURVE SMOOTH"
);
},
{
closed = 1;
nodes = (
"821 413 OFFCURVE",
"845 373 OFFCURVE",
"844 338 CURVE SMOOTH",
"844 311 OFFCURVE",
"829 280 OFFCURVE",
"806 254 CURVE",
"814 269 OFFCURVE",
"819 286 OFFCURVE",
"819 302 CURVE SMOOTH",
"821 347 OFFCURVE",
"791 396 OFFCURVE",
"749 413 CURVE",
"783 382 OFFCURVE",
"801 339 OFFCURVE",
"799 302 CURVE SMOOTH",
"798 266 OFFCURVE",
"776 224 OFFCURVE",
"740 196 CURVE",
"763 203 OFFCURVE",
"783 220 OFFCURVE",
"798 241 CURVE",
"833 258 OFFCURVE",
"854 299 OFFCURVE",
"854 338 CURVE SMOOTH",
"855 381 OFFCURVE",
"829 426 OFFCURVE",
"789 441 CURVE"
);
},
{
closed = 1;
nodes = (
"46 336 OFFCURVE",
"52 348 OFFCURVE",
"55 359 CURVE SMOOTH",
"58 370 OFFCURVE",
"59 383 OFFCURVE",
"72 389 CURVE",
"58 388 OFFCURVE",
"36 379 OFFCURVE",
"32 365 CURVE SMOOTH",
"28 352 OFFCURVE",
"43 333 OFFCURVE",
"54 324 CURVE"
);
},
{
closed = 1;
nodes = (
"484 380 OFFCURVE",
"459 353 OFFCURVE",
"459 327 CURVE SMOOTH",
"459 300 OFFCURVE",
"484 273 OFFCURVE",
"509 264 CURVE",
"489 281 OFFCURVE",
"483 305 OFFCURVE",
"483 326 CURVE SMOOTH",
"483 347 OFFCURVE",
"489 372 OFFCURVE",
"509 389 CURVE"
);
},
{
closed = 1;
nodes = (
"-13 307 OFFCURVE",
"-17 336 OFFCURVE",
"-6 363 CURVE",
"-26 341 OFFCURVE",
"-34 303 OFFCURVE",
"-20 277 CURVE SMOOTH",
"-6 250 OFFCURVE",
"30 234 OFFCURVE",
"59 238 CURVE",
"30 244 OFFCURVE",
"9 265 OFFCURVE",
"-2 286 CURVE SMOOTH"
);
},
{
closed = 1;
nodes = (
"315 199 OFFCURVE",
"347 216 OFFCURVE",
"355 240 CURVE SMOOTH",
"363 265 OFFCURVE",
"349 298 OFFCURVE",
"329 314 CURVE",
"342 292 OFFCURVE",
"339 268 OFFCURVE",
"332 248 CURVE SMOOTH",
"326 229 OFFCURVE",
"313 208 OFFCURVE",
"289 199 CURVE"
);
},
{
closed = 1;
nodes = (
"51 293 OFFCURVE",
"55 268 OFFCURVE",
"69 260 CURVE SMOOTH",
"82 252 OFFCURVE",
"107 260 OFFCURVE",
"119 270 CURVE",
"104 265 OFFCURVE",
"92 274 OFFCURVE",
"81 280 CURVE SMOOTH",
"70 287 OFFCURVE",
"57 293 OFFCURVE",
"54 309 CURVE"
);
},
{
closed = 1;
nodes = (
"-70 228 OFFCURVE",
"-64 268 OFFCURVE",
"-46 301 CURVE",
"-74 276 OFFCURVE",
"-82 231 OFFCURVE",
"-68 196 CURVE SMOOTH",
"-54 161 OFFCURVE",
"-19 134 OFFCURVE",
"19 134 CURVE",
"-17 146 OFFCURVE",
"-48 172 OFFCURVE",
"-59 200 CURVE SMOOTH"
);
},
{
closed = 1;
nodes = (
"451 241 OFFCURVE",
"477 253 OFFCURVE",
"507 248 CURVE",
"481 263 OFFCURVE",
"439 263 OFFCURVE",
"417 243 CURVE SMOOTH",
"394 224 OFFCURVE",
"387 183 OFFCURVE",
"398 155 CURVE",
"398 185 OFFCURVE",
"414 209 OFFCURVE",
"432 225 CURVE SMOOTH"
);
},
{
closed = 1;
nodes = (
"676 140 OFFCURVE",
"652 115 OFFCURVE",
"619 106 CURVE",
"653 103 OFFCURVE",
"694 124 OFFCURVE",
"709 155 CURVE SMOOTH",
"724 186 OFFCURVE",
"713 231 OFFCURVE",
"688 256 CURVE",
"703 224 OFFCURVE",
"699 190 OFFCURVE",
"687 165 CURVE SMOOTH"
);
},
{
closed = 1;
nodes = (
"82 200 OFFCURVE",
"93 232 OFFCURVE",
"119 254 CURVE",
"87 242 OFFCURVE",
"58 207 OFFCURVE",
"58 172 CURVE SMOOTH",
"58 138 OFFCURVE",
"87 103 OFFCURVE",
"119 91 CURVE",
"93 113 OFFCURVE",
"82 145 OFFCURVE",
"82 172 CURVE SMOOTH"
);
},
{
closed = 1;
nodes = (
"356 181 OFFCURVE",
"374 174 OFFCURVE",
"382 155 CURVE",
"381 175 OFFCURVE",
"367 203 OFFCURVE",
"347 208 CURVE SMOOTH",
"328 214 OFFCURVE",
"301 199 OFFCURVE",
"289 183 CURVE",
"306 194 OFFCURVE",
"325 190 OFFCURVE",
"341 185 CURVE SMOOTH"
);
},
{
closed = 1;
nodes = (
"537 40 OFFCURVE",
"511 35 OFFCURVE",
"487 48 CURVE",
"505 28 OFFCURVE",
"541 15 OFFCURVE",
"566 25 CURVE SMOOTH",
"591 36 OFFCURVE",
"607 69 OFFCURVE",
"606 96 CURVE",
"598 71 OFFCURVE",
"577 56 OFFCURVE",
"557 48 CURVE SMOOTH"
);
},
{
closed = 1;
nodes = (
"133 57 OFFCURVE",
"121 61 OFFCURVE",
"119 75 CURVE",
"116 62 OFFCURVE",
"118 38 OFFCURVE",
"129 31 CURVE SMOOTH",
"141 24 OFFCURVE",
"163 32 OFFCURVE",
"173 40 CURVE",
"160 36 OFFCURVE",
"151 45 OFFCURVE",
"142 51 CURVE SMOOTH"
);
},
{
closed = 1;
nodes = (
"434 -9 OFFCURVE",
"463 18 OFFCURVE",
"471 45 CURVE",
"454 23 OFFCURVE",
"427 15 OFFCURVE",
"405 14 CURVE SMOOTH",
"382 13 OFFCURVE",
"355 19 OFFCURVE",
"336 40 CURVE",
"346 14 OFFCURVE",
"377 -11 OFFCURVE",
"406 -10 CURVE SMOOTH"
);
},
{
closed = 1;
nodes = (
"316 16 OFFCURVE",
"287 8 OFFCURVE",
"262 8 CURVE SMOOTH",
"238 8 OFFCURVE",
"209 16 OFFCURVE",
"189 40 CURVE",
"200 11 OFFCURVE",
"232 -16 OFFCURVE",
"262 -16 CURVE SMOOTH",
"293 -16 OFFCURVE",
"325 11 OFFCURVE",
"336 40 CURVE"
);
},
{
closed = 1;
nodes = (
"368 -132 OFFCURVE",
"326 -114 OFFCURVE",
"290 -87 CURVE",
"303 -91 OFFCURVE",
"315 -94 OFFCURVE",
"328 -94 CURVE SMOOTH",
"373 -93 OFFCURVE",
"420 -61 OFFCURVE",
"435 -19 CURVE",
"406 -53 OFFCURVE",
"364 -73 OFFCURVE",
"328 -74 CURVE SMOOTH",
"292 -74 OFFCURVE",
"250 -54 OFFCURVE",
"221 -20 CURVE",
"229 -43 OFFCURVE",
"247 -63 OFFCURVE",
"269 -77 CURVE",
"298 -119 OFFCURVE",
"352 -143 OFFCURVE",
"405 -140 CURVE SMOOTH",
"463 -136 OFFCURVE",
"521 -99 OFFCURVE",
"538 -43 CURVE",
"503 -90 OFFCURVE",
"451 -127 OFFCURVE",
"404 -130 CURVE SMOOTH"
);
}
);
width = 766;
}
);
leftKerningGroup = I;
rightKerningGroup = D;
unicode = 00D0;
userData = {
com.typemytype.robofont.guides = (
{
angle = 0;
isGlobal = 0;
magnetic = 5;
x = 0;
y = 350;
}
);
};
},
{
color = 1;
glyphname = Dcroat;
layers = (
{
hints = (
{
horizontal = 1;
place = "{-2147483648, 0}";
type = Tag;
name = hr00;
}
);
layerId = "EC64484B-0978-4CB1-9EE9-C40A2D8C4059";
paths = (
{
closed = 1;
nodes = (
"584 777 OFFCURVE",
"620 739 OFFCURVE",
"639 696 CURVE",
"636 743 OFFCURVE",
"596 784 OFFCURVE",
"551 797 CURVE SMOOTH",
"505 811 OFFCURVE",
"450 798 OFFCURVE",
"422 759 CURVE",
"461 786 OFFCURVE",
"512 799 OFFCURVE",
"548 788 CURVE SMOOTH"
);
},
{
closed = 1;
nodes = (
"252 777 OFFCURVE",
"296 756 OFFCURVE",
"326 720 CURVE",
"310 764 OFFCURVE",
"261 797 OFFCURVE",
"214 797 CURVE SMOOTH",
"167 797 OFFCURVE",
"118 764 OFFCURVE",
"102 720 CURVE",
"132 756 OFFCURVE",
"176 777 OFFCURVE",
"214 777 CURVE SMOOTH"
);
},
{
closed = 1;
nodes = (
"-14 538 OFFCURVE",
"-36 582 OFFCURVE",
"-33 618 CURVE SMOOTH",
"-31 655 OFFCURVE",
"-3 695 OFFCURVE",
"34 722 CURVE",
"-10 710 OFFCURVE",
"-40 664 OFFCURVE",
"-43 619 CURVE SMOOTH",
"-46 574 OFFCURVE",
"-23 524 OFFCURVE",
"19 506 CURVE"
);
},
{
closed = 1;
nodes = (
"259 685 OFFCURVE",
"290 695 OFFCURVE",
"316 695 CURVE SMOOTH",
"342 695 OFFCURVE",
"373 685 OFFCURVE",
"394 660 CURVE",
"383 691 OFFCURVE",
"349 719 OFFCURVE",
"316 719 CURVE SMOOTH",
"283 719 OFFCURVE",
"249 691 OFFCURVE",
"238 660 CURVE"
);
},
{
closed = 1;
nodes = (
"152 709 OFFCURVE",
"128 689 OFFCURVE",
"118 669 CURVE",
"134 684 OFFCURVE",
"154 685 OFFCURVE",
"172 684 CURVE SMOOTH",
"189 682 OFFCURVE",
"209 678 OFFCURVE",
"222 660 CURVE",
"216 681 OFFCURVE",
"196 706 OFFCURVE",
"174 708 CURVE SMOOTH"
);
},
{
closed = 1;
nodes = (
"502 670 OFFCURVE",
"526 659 OFFCURVE",
"540 635 CURVE",
"535 662 OFFCURVE",
"512 693 OFFCURVE",
"485 698 CURVE SMOOTH",
"458 703 OFFCURVE",
"424 684 OFFCURVE",
"410 660 CURVE",
"432 677 OFFCURVE",
"458 679 OFFCURVE",
"480 674 CURVE SMOOTH"
);
},
{
closed = 1;
nodes = (
"93 523 OFFCURVE",
"83 555 OFFCURVE",
"83 581 CURVE SMOOTH",
"83 608 OFFCURVE",
"93 640 OFFCURVE",
"119 661 CURVE",
"88 650 OFFCURVE",
"59 615 OFFCURVE",
"59 581 CURVE SMOOTH",
"59 548 OFFCURVE",
"88 513 OFFCURVE",
"119 502 CURVE"
);
},
{
closed = 1;
nodes = (
"593 629 OFFCURVE",
"627 611 OFFCURVE",
"648 588 CURVE SMOOTH",
"668 565 OFFCURVE",
"682 529 OFFCURVE",
"677 491 CURVE",
"695 525 OFFCURVE",
"691 576 OFFCURVE",
"666 604 CURVE SMOOTH",
"640 633 OFFCURVE",
"590 643 OFFCURVE",
"555 628 CURVE"
);
},
{
closed = 1;
nodes = (
"849 500 OFFCURVE",
"810 553 OFFCURVE",
"757 565 CURVE",
"739 582 OFFCURVE",
"715 593 OFFCURVE",
"691 595 CURVE",
"731 577 OFFCURVE",
"761 543 OFFCURVE",
"771 509 CURVE SMOOTH",
"780 476 OFFCURVE",
"773 433 OFFCURVE",
"751 396 CURVE",
"745 432 OFFCURVE",
"715 465 OFFCURVE",
"681 476 CURVE",
"712 452 OFFCURVE",
"727 416 OFFCURVE",
"728 385 CURVE SMOOTH",
"730 354 OFFCURVE",
"717 316 OFFCURVE",
"688 290 CURVE",
"725 305 OFFCURVE",
"754 347 OFFCURVE",
"752 386 CURVE SMOOTH",
"752 389 OFFCURVE",
"752 392 OFFCURVE",
"751 395 CURVE",
"786 421 OFFCURVE",
"802 473 OFFCURVE",
"790 514 CURVE SMOOTH",
"785 532 OFFCURVE",
"774 549 OFFCURVE",
"760 562 CURVE",
"805 532 OFFCURVE",
"840 486 OFFCURVE",
"846 444 CURVE SMOOTH",
"852 399 OFFCURVE",
"827 343 OFFCURVE",
"789 302 CURVE",
"839 328 OFFCURVE",
"863 390 OFFCURVE",
"856 445 CURVE SMOOTH"
);
},
{
closed = 1;
nodes = (
"302 414 OFFCURVE",
"318 411 OFFCURVE",
"332 410 CURVE SMOOTH",
"346 408 OFFCURVE",
"362 406 OFFCURVE",
"372 391 CURVE",
"368 408 OFFCURVE",
"353 431 OFFCURVE",
"335 433 CURVE SMOOTH",
"327 433 LINE",
"340 442 OFFCURVE",
"351 455 OFFCURVE",
"354 469 CURVE SMOOTH",
"361 496 OFFCURVE",
"343 530 OFFCURVE",
"320 545 CURVE",
"336 523 OFFCURVE",
"336 496 OFFCURVE",
"331 475 CURVE SMOOTH",
"326 454 OFFCURVE",
"314 430 OFFCURVE",
"289 418 CURVE",
"294 419 OFFCURVE",
"300 420 OFFCURVE",
"305 422 CURVE",
"298 416 OFFCURVE",
"292 409 OFFCURVE",
"289 402 CURVE"
);
},
{
closed = 1;
nodes = (
"341 520 OFFCURVE",
"365 493 OFFCURVE",
"390 490 CURVE SMOOTH",
"415 487 OFFCURVE",
"444 508 OFFCURVE",
"456 531 CURVE",
"437 513 OFFCURVE",
"413 511 OFFCURVE",
"393 514 CURVE SMOOTH",
"373 516 OFFCURVE",
"350 524 OFFCURVE",
"336 545 CURVE"
);
},
{
closed = 1;
nodes = (
"449 405 OFFCURVE",
"485 384 OFFCURVE",
"516 383 CURVE",
"487 394 OFFCURVE",
"470 419 OFFCURVE",
"462 442 CURVE SMOOTH",
"454 466 OFFCURVE",
"453 496 OFFCURVE",
"469 522 CURVE",
"445 503 OFFCURVE",
"430 464 OFFCURVE",
"439 435 CURVE SMOOTH"
);
},
{
closed = 1;
nodes = (
"80 466 OFFCURVE",
"95 483 OFFCURVE",
"119 486 CURVE",
"96 491 OFFCURVE",
"62 483 OFFCURVE",
"49 463 CURVE SMOOTH",
"36 443 OFFCURVE",
"42 409 OFFCURVE",
"57 390 CURVE",
"50 413 OFFCURVE",
"59 434 OFFCURVE",
"69 450 CURVE SMOOTH"
);
},
{
closed = 1;
nodes = (
"452 307 OFFCURVE",
"451 302 OFFCURVE",
"451 298 CURVE SMOOTH",
"447 266 OFFCURVE",
"471 230 OFFCURVE",
"499 216 CURVE",
"477 239 OFFCURVE",
"472 270 OFFCURVE",
"475 295 CURVE SMOOTH",
"477 320 OFFCURVE",
"490 349 OFFCURVE",
"516 367 CURVE",
"492 361 OFFCURVE",
"469 342 OFFCURVE",
"458 320 CURVE",
"464 338 OFFCURVE",
"466 358 OFFCURVE",
"462 376 CURVE SMOOTH",
"453 414 OFFCURVE",
"415 446 OFFCURVE",
"377 450 CURVE",
"412 433 OFFCURVE",
"435 402 OFFCURVE",
"443 372 CURVE SMOOTH",
"450 342 OFFCURVE",
"444 303 OFFCURVE",
"421 272 CURVE",
"435 281 OFFCURVE",
"446 295 OFFCURVE",
"454 311 CURVE SMOOTH"
);
},
{
closed = 1;
nodes = (
"379 350 OFFCURVE",
"382 338 OFFCURVE",
"372 329 CURVE",
"384 334 OFFCURVE",
"403 347 OFFCURVE",
"403 360 CURVE SMOOTH",
"403 373 OFFCURVE",
"384 387 OFFCURVE",
"372 391 CURVE",
"382 383 OFFCURVE",
"379 371 OFFCURVE",
"379 360 CURVE SMOOTH"
);
},
{
closed = 1;
nodes = (
"94 226 OFFCURVE",
"76 241 OFFCURVE",
"63 256 CURVE SMOOTH",
"50 269 OFFCURVE",
"39 288 OFFCURVE",
"40 311 CURVE",
"45 308 OFFCURVE",
"49 307 OFFCURVE",
"53 306 CURVE",
"38 315 OFFCURVE",
"36 332 OFFCURVE",
"34 346 CURVE SMOOTH",
"32 360 OFFCURVE",
"29 377 OFFCURVE",
"41 390 CURVE",
"25 382 OFFCURVE",
"8 360 OFFCURVE",
"10 343 CURVE SMOOTH",
"12 330 OFFCURVE",
"25 318 OFFCURVE",
"39 311 CURVE",
"33 297 OFFCURVE",
"30 280 OFFCURVE",
"33 264 CURVE",
"15 275 OFFCURVE",
"1 291 OFFCURVE",
"-6 307 CURVE SMOOTH",
"-16 329 OFFCURVE",
"-19 360 OFFCURVE",
"-6 387 CURVE",
"-28 366 OFFCURVE",
"-37 326 OFFCURVE",
"-24 299 CURVE SMOOTH",
"-14 277 OFFCURVE",
"11 260 OFFCURVE",
"36 256 CURVE",
"38 250 OFFCURVE",
"41 244 OFFCURVE",
"45 240 CURVE SMOOTH",
"61 221 OFFCURVE",
"96 218 OFFCURVE",
"119 227 CURVE"
);
},
{
closed = 1;
nodes = (
"365 267 OFFCURVE",
"374 294 OFFCURVE",
"372 314 CURVE",
"367 295 OFFCURVE",
"351 287 OFFCURVE",
"337 280 CURVE SMOOTH",
"323 274 OFFCURVE",
"306 267 OFFCURVE",
"289 275 CURVE",
"303 261 OFFCURVE",
"330 250 OFFCURVE",
"347 259 CURVE SMOOTH"
);
},
{
closed = 1;
nodes = (
"705 240 OFFCURVE",
"703 202 OFFCURVE",
"691 175 CURVE SMOOTH",
"679 147 OFFCURVE",
"653 119 OFFCURVE",
"617 108 CURVE",
"655 106 OFFCURVE",
"698 130 OFFCURVE",
"713 165 CURVE SMOOTH",
"728 200 OFFCURVE",
"715 248 OFFCURVE",
"688 274 CURVE"
);
},
{
closed = 1;
nodes = (
"479 217 OFFCURVE",
"460 229 OFFCURVE",
"440 234 CURVE",
"447 241 OFFCURVE",
"454 254 OFFCURVE",
"451 261 CURVE SMOOTH",
"447 269 OFFCURVE",
"430 272 OFFCURVE",
"421 272 CURVE",
"430 269 OFFCURVE",
"430 260 OFFCURVE",
"432 253 CURVE SMOOTH",
"435 247 OFFCURVE",
"440 241 OFFCURVE",
"439 235 CURVE",
"426 238 OFFCURVE",
"412 238 OFFCURVE",
"400 234 CURVE SMOOTH",
"369 224 OFFCURVE",
"345 188 OFFCURVE",
"343 155 CURVE",
"356 185 OFFCURVE",
"382 204 OFFCURVE",
"407 211 CURVE SMOOTH",
"432 219 OFFCURVE",
"464 220 OFFCURVE",
"491 202 CURVE"
);
},
{
closed = 1;
nodes = (
"335 197 OFFCURVE",
"339 175 OFFCURVE",
"328 155 CURVE",
"346 170 OFFCURVE",
"359 201 OFFCURVE",
"351 223 CURVE SMOOTH",
"343 245 OFFCURVE",
"312 259 OFFCURVE",
"289 259 CURVE",
"311 251 OFFCURVE",
"322 232 OFFCURVE",
"328 214 CURVE SMOOTH"
);
},
{
closed = 1;
nodes = (
"-8 206 OFFCURVE",
"-31 170 OFFCURVE",
"-33 136 CURVE SMOOTH",
"-34 101 OFFCURVE",
"-13 64 OFFCURVE",
"19 51 CURVE",
"-7 74 OFFCURVE",
"-24 108 OFFCURVE",
"-23 135 CURVE SMOOTH",
"-22 163 OFFCURVE",
"-2 195 OFFCURVE",
"25 216 CURVE"
);
},
{
closed = 1;
nodes = (
"82 157 OFFCURVE",
"93 189 OFFCURVE",
"119 211 CURVE",
"87 199 OFFCURVE",
"58 163 OFFCURVE",
"58 129 CURVE SMOOTH",
"58 95 OFFCURVE",
"87 59 OFFCURVE",
"119 47 CURVE",
"93 69 OFFCURVE",
"82 101 OFFCURVE",
"82 129 CURVE SMOOTH"
);
},
{
closed = 1;
nodes = (
"585 30 OFFCURVE",
"605 67 OFFCURVE",
"605 98 CURVE",
"595 69 OFFCURVE",
"571 50 OFFCURVE",
"547 41 CURVE SMOOTH",
"524 32 OFFCURVE",
"494 30 OFFCURVE",
"467 45 CURVE",
"488 22 OFFCURVE",
"527 8 OFFCURVE",
"556 19 CURVE SMOOTH"
);
},
{
closed = 1;
nodes = (
"457 18 OFFCURVE",
"465 36 OFFCURVE",
"467 45 CURVE",
"462 37 OFFCURVE",
"453 42 OFFCURVE",
"445 41 CURVE SMOOTH",
"438 41 OFFCURVE",
"430 34 OFFCURVE",
"423 41 CURVE",
"427 32 OFFCURVE",
"438 17 OFFCURVE",
"448 18 CURVE SMOOTH"
);
},
{
closed = 1;
nodes = (
"232 18 OFFCURVE",
"207 10 OFFCURVE",
"186 9 CURVE SMOOTH",
"164 7 OFFCURVE",
"138 11 OFFCURVE",
"119 31 CURVE",
"130 6 OFFCURVE",
"160 -17 OFFCURVE",
"187 -15 CURVE SMOOTH",
"214 -13 OFFCURVE",
"241 14 OFFCURVE",
"249 40 CURVE"
);
},
{
closed = 1;
nodes = (
"275 12 OFFCURVE",
"306 -15 OFFCURVE",
"336 -15 CURVE SMOOTH",
"366 -15 OFFCURVE",
"397 12 OFFCURVE",
"407 40 CURVE",
"388 17 OFFCURVE",
"360 9 OFFCURVE",
"336 9 CURVE SMOOTH",
"312 9 OFFCURVE",
"284 17 OFFCURVE",
"264 40 CURVE"
);
},
{
closed = 1;
nodes = (
"507 -48 OFFCURVE",
"465 -42 OFFCURVE",
"431 -19 CURVE",
"455 -52 OFFCURVE",
"504 -69 OFFCURVE",
"544 -58 CURVE SMOOTH",
"564 -52 OFFCURVE",
"581 -39 OFFCURVE",
"595 -23 CURVE",
"567 -68 OFFCURVE",
"522 -105 OFFCURVE",
"480 -112 CURVE SMOOTH",
"438 -118 OFFCURVE",
"385 -95 OFFCURVE",
"345 -61 CURVE",
"359 -50 OFFCURVE",
"370 -36 OFFCURVE",
"375 -20 CURVE",
"352 -48 OFFCURVE",
"317 -62 OFFCURVE",
"288 -62 CURVE SMOOTH",
"259 -62 OFFCURVE",
"225 -48 OFFCURVE",
"201 -20 CURVE",
"214 -54 OFFCURVE",
"252 -82 OFFCURVE",
"288 -82 CURVE SMOOTH",
"308 -82 OFFCURVE",
"328 -74 OFFCURVE",
"345 -61 CURVE",
"370 -107 OFFCURVE",
"429 -130 OFFCURVE",
"481 -122 CURVE SMOOTH",
"534 -114 OFFCURVE",
"585 -75 OFFCURVE",
"595 -22 CURVE",
"608 -6 OFFCURVE",
"617 15 OFFCURVE",
"618 35 CURVE",
"602 -3 OFFCURVE",
"569 -30 OFFCURVE",
"538 -39 CURVE SMOOTH"
);
}
);
width = 764;
}
);
leftKerningGroup = I;
rightKerningGroup = D;
unicode = 0110;
userData = {
com.typemytype.robofont.guides = (
{
angle = 0;
isGlobal = 0;
magnetic = 5;
x = 0;
y = 352;
},
{
angle = 90;
isGlobal = 0;
magnetic = 5;
x = 340;
y = 0;
},
{
angle = 90;
isGlobal = 0;
magnetic = 5;
x = 105;
y = 0;
}
);
};
},
{
color = 1;
glyphname = E;
layers = (
{
anchors = (
{
name = bottom;
position = "{334, 0}";
},
{
name = ogonek;
position = "{600, 10}";
},
{
name = top;
position = "{334, 700}";
},
{
name = topleft;
position = "{20, 700}";
}
);
layerId = "EC64484B-0978-4CB1-9EE9-C40A2D8C4059";
paths = (
{
closed = 1;
nodes = (
"412 834 OFFCURVE",
"464 802 OFFCURVE",
"500 760 CURVE",
"481 812 OFFCURVE",
"423 844 OFFCURVE",
"368 844 CURVE SMOOTH",
"313 844 OFFCURVE",
"256 812 OFFCURVE",
"237 760 CURVE",
"273 802 OFFCURVE",
"324 834 OFFCURVE",
"368 834 CURVE SMOOTH"
);
},
{
closed = 1;
nodes = (
"253 702 OFFCURVE",
"288 689 OFFCURVE",
"313 660 CURVE",
"300 695 OFFCURVE",
"261 726 OFFCURVE",
"223 726 CURVE SMOOTH",
"218 726 LINE",
"246 755 OFFCURVE",
"284 772 OFFCURVE",
"317 772 CURVE SMOOTH",
"351 772 OFFCURVE",
"392 753 OFFCURVE",
"420 720 CURVE",
"405 761 OFFCURVE",
"360 792 OFFCURVE",
"317 792 CURVE SMOOTH",
"275 792 OFFCURVE",
"232 764 OFFCURVE",
"215 726 CURVE",
"181 722 OFFCURVE",
"146 693 OFFCURVE",
"134 660 CURVE",
"158 689 OFFCURVE",
"193 702 OFFCURVE",
"223 702 CURVE SMOOTH"
);
},
{
closed = 1;
nodes = (
"465 689 OFFCURVE",
"433 716 OFFCURVE",
"402 716 CURVE SMOOTH",
"371 716 OFFCURVE",
"339 689 OFFCURVE",
"329 660 CURVE",
"348 684 OFFCURVE",
"377 692 OFFCURVE",
"402 692 CURVE SMOOTH",
"427 692 OFFCURVE",
"456 684 OFFCURVE",
"476 660 CURVE"
);
},
{
closed = 1;
nodes = (
"552 676 OFFCURVE",
"570 676 OFFCURVE",
"582 661 CURVE",
"575 679 OFFCURVE",
"555 700 OFFCURVE",
"536 700 CURVE SMOOTH",
"517 699 OFFCURVE",
"498 678 OFFCURVE",
"492 660 CURVE",
"504 675 OFFCURVE",
"521 676 OFFCURVE",
"537 676 CURVE SMOOTH"
);
},
{
closed = 1;
nodes = (
"85 592 OFFCURVE",
"89 608 OFFCURVE",
"93 622 CURVE SMOOTH",
"97 636 OFFCURVE",
"101 653 OFFCURVE",
"118 660 CURVE",
"100 659 OFFCURVE",
"75 646 OFFCURVE",
"70 629 CURVE SMOOTH",
"65 611 OFFCURVE",
"80 588 OFFCURVE",
"95 577 CURVE"
);
},
{
closed = 1;
nodes = (
"596 577 OFFCURVE",
"592 557 OFFCURVE",
"575 545 CURVE",
"595 551 OFFCURVE",
"619 571 OFFCURVE",
"621 592 CURVE SMOOTH",
"622 613 OFFCURVE",
"601 637 OFFCURVE",
"582 646 CURVE",
"597 631 OFFCURVE",
"598 611 OFFCURVE",
"597 594 CURVE SMOOTH"
);
},
{
closed = 1;
nodes = (
"31 284 OFFCURVE",
"61 247 OFFCURVE",
"95 234 CURVE",
"66 259 OFFCURVE",
"53 294 OFFCURVE",
"53 324 CURVE SMOOTH",
"53 354 OFFCURVE",
"66 390 OFFCURVE",
"95 414 CURVE",
"60 401 OFFCURVE",
"29 362 OFFCURVE",
"29 324 CURVE SMOOTH",
"29 323 LINE",
"7 345 OFFCURVE",
"-3 373 OFFCURVE",
"-3 398 CURVE SMOOTH",
"-3 425 OFFCURVE",
"9 456 OFFCURVE",
"35 478 CURVE",
"4 466 OFFCURVE",
"-23 431 OFFCURVE",
"-23 398 CURVE SMOOTH",
"-23 382 OFFCURVE",
"-17 366 OFFCURVE",
"-7 352 CURVE",
"-41 381 OFFCURVE",
"-65 422 OFFCURVE",
"-65 458 CURVE SMOOTH",
"-65 494 OFFCURVE",
"-40 536 OFFCURVE",
"-5 565 CURVE",
"-47 550 OFFCURVE",
"-75 503 OFFCURVE",
"-75 458 CURVE SMOOTH",
"-75 412 OFFCURVE",
"-47 366 OFFCURVE",
"-6 350 CURVE",
"3 338 OFFCURVE",
"16 327 OFFCURVE",
"29 321 CURVE"
);
},
{
closed = 1;
nodes = (
"74 448 OFFCURVE",
"68 473 OFFCURVE",
"68 496 CURVE SMOOTH",
"68 518 OFFCURVE",
"74 544 OFFCURVE",
"95 561 CURVE",
"69 552 OFFCURVE",
"44 523 OFFCURVE",
"44 496 CURVE SMOOTH",
"44 468 OFFCURVE",
"69 439 OFFCURVE",
"95 430 CURVE"
);
},
{
closed = 1;
nodes = (
"279 490 OFFCURVE",
"288 484 OFFCURVE",
"298 479 CURVE",
"302 475 OFFCURVE",
"306 470 OFFCURVE",
"309 465 CURVE SMOOTH",
"320 448 OFFCURVE",
"329 426 OFFCURVE",
"323 402 CURVE",
"335 419 OFFCURVE",
"341 449 OFFCURVE",
"333 470 CURVE",
"337 470 OFFCURVE",
"341 470 OFFCURVE",
"345 471 CURVE SMOOTH",
"379 477 OFFCURVE",
"409 511 OFFCURVE",
"415 545 CURVE",
"398 516 OFFCURVE",
"368 500 OFFCURVE",
"341 495 CURVE SMOOTH",
"332 493 OFFCURVE",
"322 493 OFFCURVE",
"312 494 CURVE",
"301 500 OFFCURVE",
"288 503 OFFCURVE",
"276 503 CURVE",
"269 507 OFFCURVE",
"262 511 OFFCURVE",
"255 517 CURVE",
"258 512 OFFCURVE",
"261 507 OFFCURVE",
"265 503 CURVE",
"262 503 OFFCURVE",
"258 502 OFFCURVE",
"255 501 CURVE",
"261 501 OFFCURVE",
"266 499 OFFCURVE",
"271 498 CURVE"
);
},
{
closed = 1;
nodes = (
"542 524 OFFCURVE",
"517 519 OFFCURVE",
"495 519 CURVE SMOOTH",
"473 519 OFFCURVE",
"448 524 OFFCURVE",
"431 545 CURVE",
"440 520 OFFCURVE",
"468 495 OFFCURVE",
"495 495 CURVE SMOOTH",
"522 495 OFFCURVE",
"550 520 OFFCURVE",
"559 545 CURVE"
);
},
{
closed = 1;
nodes = (
"625 492 OFFCURVE",
"595 470 OFFCURVE",
"567 463 CURVE",
"557 464 OFFCURVE",
"547 464 OFFCURVE",
"537 462 CURVE",
"541 461 OFFCURVE",
"545 461 OFFCURVE",
"549 460 CURVE",
"522 458 OFFCURVE",
"492 466 OFFCURVE",
"467 485 CURVE",
"487 453 OFFCURVE",
"531 434 OFFCURVE",
"568 442 CURVE SMOOTH",
"572 443 OFFCURVE",
"576 444 OFFCURVE",
"580 446 CURVE",
"592 438 OFFCURVE",
"602 427 OFFCURVE",
"609 417 CURVE SMOOTH",
"623 395 OFFCURVE",
"630 363 OFFCURVE",
"620 332 CURVE",
"640 358 OFFCURVE",
"643 400 OFFCURVE",
"626 427 CURVE SMOOTH",
"619 439 OFFCURVE",
"608 448 OFFCURVE",
"595 454 CURVE",
"619 470 OFFCURVE",
"637 497 OFFCURVE",
"641 524 CURVE"
);
},
{
closed = 1;
nodes = (
"714 473 OFFCURVE",
"738 424 OFFCURVE",
"734 385 CURVE SMOOTH",
"731 345 OFFCURVE",
"700 301 OFFCURVE",
"659 273 CURVE",
"707 286 OFFCURVE",
"740 335 OFFCURVE",
"744 384 CURVE SMOOTH",
"748 433 OFFCURVE",
"724 487 OFFCURVE",
"679 508 CURVE"
);
},
{
closed = 1;
nodes = (
"393 470 OFFCURVE",
"352 439 OFFCURVE",
"338 402 CURVE",
"364 432 OFFCURVE",
"401 446 OFFCURVE",
"432 446 CURVE SMOOTH",
"463 446 OFFCURVE",
"500 432 OFFCURVE",
"525 402 CURVE",
"512 439 OFFCURVE",
"471 470 OFFCURVE",
"432 470 CURVE SMOOTH"
);
},
{
closed = 1;
nodes = (
"577 393 OFFCURVE",
"555 401 OFFCURVE",
"541 402 CURVE",
"554 397 OFFCURVE",
"555 384 OFFCURVE",
"558 373 CURVE SMOOTH",
"561 363 OFFCURVE",
"567 352 OFFCURVE",
"560 340 CURVE",
"571 348 OFFCURVE",
"585 367 OFFCURVE",
"581 380 CURVE SMOOTH"
);
},
{
closed = 1;
nodes = (
"470 280 OFFCURVE",
"498 263 OFFCURVE",
"520 269 CURVE SMOOTH",
"541 274 OFFCURVE",
"558 302 OFFCURVE",
"560 324 CURVE",
"550 304 OFFCURVE",
"531 297 OFFCURVE",
"514 292 CURVE SMOOTH",
"497 288 OFFCURVE",
"476 285 OFFCURVE",
"458 298 CURVE"
);
},
{
closed = 1;
nodes = (
"511 251 OFFCURVE",
"475 280 OFFCURVE",
"437 287 CURVE",
"439 291 OFFCURVE",
"441 294 OFFCURVE",
"442 298 CURVE",
"439 294 OFFCURVE",
"435 291 OFFCURVE",
"432 288 CURVE",
"428 289 OFFCURVE",
"424 289 OFFCURVE",
"420 289 CURVE SMOOTH",
"400 289 OFFCURVE",
"379 283 OFFCURVE",
"361 272 CURVE",
"343 274 OFFCURVE",
"324 282 OFFCURVE",
"311 298 CURVE",
"316 283 OFFCURVE",
"328 268 OFFCURVE",
"343 258 CURVE",
"331 248 OFFCURVE",
"322 236 OFFCURVE",
"316 222 CURVE",
"309 223 OFFCURVE",
"302 222 OFFCURVE",
"295 220 CURVE",
"303 224 OFFCURVE",
"309 230 OFFCURVE",
"312 237 CURVE SMOOTH",
"320 256 OFFCURVE",
"309 284 OFFCURVE",
"295 298 CURVE",
"303 280 OFFCURVE",
"297 262 OFFCURVE",
"290 247 CURVE SMOOTH",
"283 233 OFFCURVE",
"274 216 OFFCURVE",
"255 211 CURVE",
"262 210 OFFCURVE",
"270 211 OFFCURVE",
"278 213 CURVE",
"269 208 OFFCURVE",
"261 202 OFFCURVE",
"255 195 CURVE",
"277 207 OFFCURVE",
"300 204 OFFCURVE",
"319 197 CURVE SMOOTH",
"338 190 OFFCURVE",
"358 178 OFFCURVE",
"367 155 CURVE",
"367 180 OFFCURVE",
"350 211 OFFCURVE",
"327 220 CURVE SMOOTH",
"324 221 OFFCURVE",
"321 222 OFFCURVE",
"318 222 CURVE",
"329 234 OFFCURVE",
"342 244 OFFCURVE",
"355 252 CURVE",
"362 249 OFFCURVE",
"369 247 OFFCURVE",
"376 247 CURVE SMOOTH",
"393 247 OFFCURVE",
"410 256 OFFCURVE",
"423 269 CURVE",
"457 268 OFFCURVE",
"497 248 OFFCURVE",
"523 215 CURVE"
);
},
{
closed = 1;
nodes = (
"64 207 OFFCURVE",
"36 173 OFFCURVE",
"36 141 CURVE SMOOTH",
"36 108 OFFCURVE",
"64 74 OFFCURVE",
"95 63 CURVE",
"70 84 OFFCURVE",
"60 115 OFFCURVE",
"60 141 CURVE SMOOTH",
"60 167 OFFCURVE",
"70 197 OFFCURVE",
"95 218 CURVE"
);
},
{
closed = 1;
nodes = (
"-8 152 OFFCURVE",
"7 187 OFFCURVE",
"35 210 CURVE",
"0 198 OFFCURVE",
"-28 160 OFFCURVE",
"-28 123 CURVE SMOOTH",
"-28 86 OFFCURVE",
"0 48 OFFCURVE",
"35 35 CURVE",
"7 59 OFFCURVE",
"-8 93 OFFCURVE",
"-8 123 CURVE SMOOTH"
);
},
{
closed = 1;
nodes = (
"400 176 OFFCURVE",
"425 181 OFFCURVE",
"447 181 CURVE SMOOTH",
"469 181 OFFCURVE",
"494 176 OFFCURVE",
"511 155 CURVE",
"502 180 OFFCURVE",
"474 205 OFFCURVE",
"447 205 CURVE SMOOTH",
"420 205 OFFCURVE",
"392 180 OFFCURVE",
"383 155 CURVE"
);
},
{
closed = 1;
nodes = (
"719 131 OFFCURVE",
"736 88 OFFCURVE",
"731 53 CURVE SMOOTH",
"725 19 OFFCURVE",
"696 -17 OFFCURVE",
"659 -40 CURVE",
"701 -31 OFFCURVE",
"734 9 OFFCURVE",
"740 52 CURVE SMOOTH",
"747 95 OFFCURVE",
"728 143 OFFCURVE",
"690 164 CURVE"
);
},
{
closed = 1;
nodes = (
"549 154 OFFCURVE",
"563 140 OFFCURVE",
"573 126 CURVE SMOOTH",
"584 112 OFFCURVE",
"595 95 OFFCURVE",
"590 74 CURVE",
"601 92 OFFCURVE",
"606 124 OFFCURVE",
"592 141 CURVE SMOOTH",
"579 158 OFFCURVE",
"548 162 OFFCURVE",
"527 155 CURVE"
);
},
{
closed = 1;
nodes = (
"520 25 OFFCURVE",
"498 25 OFFCURVE",
"480 40 CURVE",
"491 20 OFFCURVE",
"519 0 OFFCURVE",
"542 4 CURVE SMOOTH",
"565 8 OFFCURVE",
"586 35 OFFCURVE",
"590 58 CURVE",
"578 38 OFFCURVE",
"557 31 OFFCURVE",
"538 28 CURVE SMOOTH"
);
},
{
closed = 1;
nodes = (
"153 4 OFFCURVE",
"174 23 OFFCURVE",
"181 40 CURVE",
"169 27 OFFCURVE",
"152 28 OFFCURVE",
"137 30 CURVE SMOOTH",
"123 31 OFFCURVE",
"106 32 OFFCURVE",
"95 47 CURVE",
"100 29 OFFCURVE",
"117 7 OFFCURVE",
"135 6 CURVE SMOOTH"
);
},
{
closed = 1;
nodes = (
"225 27 OFFCURVE",
"209 27 OFFCURVE",
"197 40 CURVE",
"203 24 OFFCURVE",
"222 3 OFFCURVE",
"239 3 CURVE SMOOTH",
"257 3 OFFCURVE",
"275 24 OFFCURVE",
"281 40 CURVE",
"270 27 OFFCURVE",
"253 27 OFFCURVE",
"239 27 CURVE SMOOTH"
);
},
{
closed = 1;
nodes = (
"458 -61 OFFCURVE",
"424 -48 OFFCURVE",
"401 -21 CURVE",
"429 -11 OFFCURVE",
"454 13 OFFCURVE",
"464 40 CURVE",
"439 11 OFFCURVE",
"403 -3 OFFCURVE",
"372 -3 CURVE SMOOTH",
"342 -3 OFFCURVE",
"306 11 OFFCURVE",
"281 40 CURVE",
"294 4 OFFCURVE",
"334 -27 OFFCURVE",
"372 -27 CURVE SMOOTH",
"382 -27 OFFCURVE",
"391 -25 OFFCURVE",
"401 -22 CURVE",
"413 -55 OFFCURVE",
"451 -81 OFFCURVE",
"486 -81 CURVE SMOOTH",
"522 -81 OFFCURVE",
"559 -54 OFFCURVE",
"571 -20 CURVE",
"548 -48 OFFCURVE",
"514 -61 OFFCURVE",
"486 -61 CURVE SMOOTH"
);
},
{
closed = 1;
nodes = (
"100 -113 OFFCURVE",
"55 -81 OFFCURVE",
"26 -40 CURVE",
"40 -88 OFFCURVE",
"89 -122 OFFCURVE",
"139 -126 CURVE SMOOTH",
"189 -131 OFFCURVE",
"244 -106 OFFCURVE",
"265 -60 CURVE",
"230 -96 OFFCURVE",
"180 -120 OFFCURVE",
"140 -117 CURVE SMOOTH"
);
}
);
width = 667;
}
);
leftKerningGroup = I;
rightKerningGroup = E;
unicode = 0045;
userData = {
com.typemytype.robofont.guides = (
{
angle = 0;
isGlobal = 0;
magnetic = 5;
x = 0;
y = 334;
},
{
angle = 0;
isGlobal = 0;
magnetic = 5;
x = 0;
y = 9;
},
{
angle = 0;
isGlobal = 0;
magnetic = 5;
x = 0;
y = 376;
},
{
angle = 0;
isGlobal = 0;
magnetic = 5;
x = 0;
y = 691;
},
{
angle = 0;
isGlobal = 0;
magnetic = 5;
x = 0;
y = 649;
},
{
angle = 90;
isGlobal = 0;
magnetic = 5;
x = 664;
y = 0;
},
{
angle = 90;
isGlobal = 0;
magnetic = 5;
x = 94;
y = 0;
},
{
angle = 90;
isGlobal = 0;
magnetic = 5;
x = 511;
y = 0;
}
);
};
},
{
color = 1;
glyphname = Eogonek;
layers = (
{
hints = (
{
horizontal = 1;
place = "{-2147483648, 0}";
type = Tag;
name = hr01;
}
);
layerId = "EC64484B-0978-4CB1-9EE9-C40A2D8C4059";
paths = (
{
closed = 1;
nodes = (
"429 815 OFFCURVE",
"468 793 OFFCURVE",
"495 762 CURVE",
"478 752 OFFCURVE",
"464 737 OFFCURVE",
"456 720 CURVE",
"481 746 OFFCURVE",
"516 757 OFFCURVE",
"545 755 CURVE SMOOTH",
"574 753 OFFCURVE",
"607 736 OFFCURVE",
"628 706 CURVE",
"619 741 OFFCURVE",
"583 772 OFFCURVE",
"547 775 CURVE SMOOTH",
"530 776 OFFCURVE",
"511 771 OFFCURVE",
"495 762 CURVE",
"480 800 OFFCURVE",
"437 825 OFFCURVE",
"396 825 CURVE SMOOTH",
"354 825 OFFCURVE",
"311 799 OFFCURVE",
"297 760 CURVE",
"324 792 OFFCURVE",
"363 815 OFFCURVE",
"396 815 CURVE SMOOTH"
);
},
{
closed = 1;
nodes = (
"359 706 OFFCURVE",
"398 691 OFFCURVE",
"424 660 CURVE",
"410 698 OFFCURVE",
"367 730 OFFCURVE",
"327 730 CURVE SMOOTH",
"286 730 OFFCURVE",
"243 698 OFFCURVE",
"229 660 CURVE",
"255 691 OFFCURVE",
"294 706 OFFCURVE",
"327 706 CURVE SMOOTH"
);
},
{
closed = 1;
nodes = (
"480 717 OFFCURVE",
"449 689 OFFCURVE",
"440 660 CURVE",
"459 684 OFFCURVE",
"487 693 OFFCURVE",
"511 694 CURVE SMOOTH",
"535 695 OFFCURVE",
"564 688 OFFCURVE",
"585 665 CURVE",
"573 694 OFFCURVE",
"541 719 OFFCURVE",
"510 718 CURVE SMOOTH"
);
},
{
closed = 1;
nodes = (
"-62 552 OFFCURVE",
"-43 588 OFFCURVE",
"-15 616 CURVE",
"-11 587 OFFCURVE",
"7 558 OFFCURVE",
"31 543 CURVE",
"35 510 OFFCURVE",
"63 477 OFFCURVE",
"95 466 CURVE",
"67 489 OFFCURVE",
"54 524 OFFCURVE",
"54 553 CURVE SMOOTH",
"54 583 OFFCURVE",
"67 617 OFFCURVE",
"95 641 CURVE",
"60 628 OFFCURVE",
"30 590 OFFCURVE",
"30 553 CURVE SMOOTH",
"30 546 LINE",
"9 573 OFFCURVE",
"1 606 OFFCURVE",
"5 633 CURVE SMOOTH",
"9 662 OFFCURVE",
"28 694 OFFCURVE",
"58 714 CURVE",
"23 706 OFFCURVE",
"-10 672 OFFCURVE",
"-15 636 CURVE SMOOTH",
"-16 631 OFFCURVE",
"-16 626 OFFCURVE",
"-15 620 CURVE",
"-50 602 OFFCURVE",
"-72 561 OFFCURVE",
"-72 521 CURVE SMOOTH",
"-72 478 OFFCURVE",
"-46 433 OFFCURVE",
"-5 418 CURVE",
"-38 446 OFFCURVE",
"-62 487 OFFCURVE",
"-62 521 CURVE SMOOTH"
);
},
{
closed = 1;
nodes = (
"173 682 OFFCURVE",
"197 679 OFFCURVE",
"213 660 CURVE",
"204 683 OFFCURVE",
"178 707 OFFCURVE",
"153 706 CURVE SMOOTH",
"128 705 OFFCURVE",
"103 681 OFFCURVE",
"95 657 CURVE",
"110 676 OFFCURVE",
"134 682 OFFCURVE",
"154 682 CURVE SMOOTH"
);
},
{
closed = 1;
nodes = (
"596 551 OFFCURVE",
"622 575 OFFCURVE",
"625 601 CURVE SMOOTH",
"627 626 OFFCURVE",
"605 654 OFFCURVE",
"582 665 CURVE",
"600 647 OFFCURVE",
"602 623 OFFCURVE",
"601 603 CURVE SMOOTH",
"599 583 OFFCURVE",
"592 559 OFFCURVE",
"571 545 CURVE"
);
},
{
closed = 1;
nodes = (
"293 439 OFFCURVE",
"298 420 OFFCURVE",
"287 402 CURVE",
"303 415 OFFCURVE",
"318 443 OFFCURVE",
"311 463 CURVE SMOOTH",
"310 467 OFFCURVE",
"308 470 OFFCURVE",
"305 474 CURVE",
"319 469 OFFCURVE",
"333 467 OFFCURVE",
"347 469 CURVE SMOOTH",
"380 476 OFFCURVE",
"410 511 OFFCURVE",
"415 545 CURVE",
"399 515 OFFCURVE",
"369 498 OFFCURVE",
"342 493 CURVE SMOOTH",
"315 488 OFFCURVE",
"282 492 OFFCURVE",
"255 513 CURVE",
"259 506 OFFCURVE",
"264 500 OFFCURVE",
"270 495 CURVE",
"265 496 OFFCURVE",
"260 497 OFFCURVE",
"255 497 CURVE",
"275 490 OFFCURVE",
"283 471 OFFCURVE",
"288 455 CURVE SMOOTH"
);
},
{
closed = 1;
nodes = (
"440 521 OFFCURVE",
"467 496 OFFCURVE",
"493 496 CURVE SMOOTH",
"519 496 OFFCURVE",
"546 521 OFFCURVE",
"555 545 CURVE",
"538 525 OFFCURVE",
"514 520 OFFCURVE",
"493 520 CURVE SMOOTH",
"472 520 OFFCURVE",
"448 525 OFFCURVE",
"431 545 CURVE"
);
},
{
closed = 1;
nodes = (
"707 483 OFFCURVE",
"724 444 OFFCURVE",
"721 413 CURVE SMOOTH",
"718 381 OFFCURVE",
"693 347 OFFCURVE",
"660 324 CURVE",
"698 334 OFFCURVE",
"727 372 OFFCURVE",
"731 412 CURVE SMOOTH",
"735 451 OFFCURVE",
"715 494 OFFCURVE",
"680 512 CURVE"
);
},
{
closed = 1;
nodes = (
"477 425 OFFCURVE",
"458 445 OFFCURVE",
"436 458 CURVE",
"441 466 OFFCURVE",
"445 476 OFFCURVE",
"447 485 CURVE",
"441 476 OFFCURVE",
"435 468 OFFCURVE",
"427 462 CURVE",
"416 466 OFFCURVE",
"405 469 OFFCURVE",
"394 469 CURVE SMOOTH",
"375 469 OFFCURVE",
"356 462 OFFCURVE",
"340 450 CURVE",
"333 453 OFFCURVE",
"326 457 OFFCURVE",
"319 462 CURVE",
"323 456 OFFCURVE",
"328 450 OFFCURVE",
"333 445 CURVE",
"320 433 OFFCURVE",
"309 418 OFFCURVE",
"303 402 CURVE",
"315 417 OFFCURVE",
"331 428 OFFCURVE",
"347 435 CURVE",
"361 426 OFFCURVE",
"377 422 OFFCURVE",
"392 425 CURVE SMOOTH",
"403 427 OFFCURVE",
"414 433 OFFCURVE",
"422 441 CURVE",
"445 435 OFFCURVE",
"468 422 OFFCURVE",
"486 402 CURVE"
);
},
{
closed = 1;
nodes = (
"67 439 OFFCURVE",
"40 408 OFFCURVE",
"40 378 CURVE SMOOTH",
"40 348 OFFCURVE",
"67 316 OFFCURVE",
"95 306 CURVE",
"72 326 OFFCURVE",
"64 354 OFFCURVE",
"64 378 CURVE SMOOTH",
"64 402 OFFCURVE",
"72 430 OFFCURVE",
"95 450 CURVE"
);
},
{
closed = 1;
nodes = (
"380 444 OFFCURVE",
"383 445 OFFCURVE",
"387 445 CURVE",
"384 444 OFFCURVE",
"380 444 OFFCURVE",
"377 444 CURVE"
);
},
{
closed = 1;
nodes = (
"546 410 OFFCURVE",
"518 409 OFFCURVE",
"501 402 CURVE",
"519 403 OFFCURVE",
"531 391 OFFCURVE",
"541 380 CURVE SMOOTH",
"550 370 OFFCURVE",
"562 358 OFFCURVE",
"560 340 CURVE",
"568 356 OFFCURVE",
"570 384 OFFCURVE",
"558 397 CURVE SMOOTH"
);
},
{
closed = 1;
nodes = (
"653 183 OFFCURVE",
"634 220 OFFCURVE",
"606 233 CURVE SMOOTH",
"600 236 OFFCURVE",
"592 238 OFFCURVE",
"585 239 CURVE",
"588 240 OFFCURVE",
"591 242 OFFCURVE",
"593 244 CURVE SMOOTH",
"620 266 OFFCURVE",
"632 311 OFFCURVE",
"620 344 CURVE",
"619 309 OFFCURVE",
"602 278 OFFCURVE",
"580 260 CURVE SMOOTH",
"558 242 OFFCURVE",
"524 231 OFFCURVE",
"490 238 CURVE",
"501 231 OFFCURVE",
"515 227 OFFCURVE",
"529 226 CURVE",
"524 223 OFFCURVE",
"519 219 OFFCURVE",
"515 215 CURVE",
"543 228 OFFCURVE",
"574 226 OFFCURVE",
"597 215 CURVE SMOOTH",
"620 205 OFFCURVE",
"642 183 OFFCURVE",
"650 152 CURVE"
);
},
{
closed = 1;
nodes = (
"549 282 OFFCURVE",
"560 307 OFFCURVE",
"560 324 CURVE",
"554 308 OFFCURVE",
"538 303 OFFCURVE",
"525 299 CURVE SMOOTH",
"512 295 OFFCURVE",
"496 289 OFFCURVE",
"482 298 CURVE",
"492 284 OFFCURVE",
"516 271 OFFCURVE",
"533 276 CURVE SMOOTH"
);
},
{
closed = 1;
nodes = (
"324 254 OFFCURVE",
"320 282 OFFCURVE",
"311 298 CURVE",
"314 280 OFFCURVE",
"303 267 OFFCURVE",
"294 255 CURVE SMOOTH",
"284 244 OFFCURVE",
"273 231 OFFCURVE",
"255 230 CURVE",
"272 224 OFFCURVE",
"301 226 OFFCURVE",
"312 240 CURVE SMOOTH"
);
},
{
closed = 1;
nodes = (
"425 244 OFFCURVE",
"456 271 OFFCURVE",
"466 298 CURVE",
"447 276 OFFCURVE",
"419 268 OFFCURVE",
"396 268 CURVE SMOOTH",
"373 268 OFFCURVE",
"345 276 OFFCURVE",
"327 298 CURVE",
"337 271 OFFCURVE",
"367 244 OFFCURVE",
"396 244 CURVE SMOOTH"
);
},
{
closed = 1;
nodes = (
"67 138 OFFCURVE",
"54 173 OFFCURVE",
"54 202 CURVE SMOOTH",
"54 232 OFFCURVE",
"67 267 OFFCURVE",
"95 290 CURVE",
"60 278 OFFCURVE",
"30 239 OFFCURVE",
"30 202 CURVE SMOOTH",
"30 166 OFFCURVE",
"60 127 OFFCURVE",
"95 115 CURVE"
);
},
{
closed = 1;
nodes = (
"325 191 OFFCURVE",
"341 177 OFFCURVE",
"343 155 CURVE",
"348 177 OFFCURVE",
"342 209 OFFCURVE",
"324 221 CURVE SMOOTH",
"305 234 OFFCURVE",
"273 228 OFFCURVE",
"255 215 CURVE",
"276 221 OFFCURVE",
"295 211 OFFCURVE",
"310 201 CURVE SMOOTH"
);
},
{
closed = 1;
nodes = (
"489 183 OFFCURVE",
"458 209 OFFCURVE",
"429 209 CURVE SMOOTH",
"400 209 OFFCURVE",
"369 183 OFFCURVE",
"359 155 CURVE",
"378 178 OFFCURVE",
"405 185 OFFCURVE",
"429 185 CURVE SMOOTH",
"453 185 OFFCURVE",
"480 178 OFFCURVE",
"499 155 CURVE"
);
},
{
closed = 1;
nodes = (
"574 132 OFFCURVE",
"588 121 OFFCURVE",
"590 101 CURVE",
"595 120 OFFCURVE",
"591 149 OFFCURVE",
"576 160 CURVE SMOOTH",
"560 172 OFFCURVE",
"531 166 OFFCURVE",
"515 155 CURVE",
"534 160 OFFCURVE",
"549 150 OFFCURVE",
"562 141 CURVE SMOOTH"
);
},
{
closed = 1;
nodes = (
"42 -5 OFFCURVE",
"87 -26 OFFCURVE",
"126 -20 CURVE",
"87 -13 OFFCURVE",
"55 12 OFFCURVE",
"40 39 CURVE SMOOTH",
"25 66 OFFCURVE",
"21 106 OFFCURVE",
"35 143 CURVE",
"9 113 OFFCURVE",
"4 63 OFFCURVE",
"23 29 CURVE SMOOTH"
);
},
{
closed = 1;
nodes = (
"150 36 OFFCURVE",
"135 47 OFFCURVE",
"122 56 CURVE SMOOTH",
"110 66 OFFCURVE",
"96 79 OFFCURVE",
"95 99 CURVE",
"89 80 OFFCURVE",
"92 50 OFFCURVE",
"107 38 CURVE SMOOTH",
"123 25 OFFCURVE",
"153 30 OFFCURVE",
"170 40 CURVE"
);
},
{
closed = 1;
nodes = (
"593 67 OFFCURVE",
"582 53 OFFCURVE",
"571 41 CURVE SMOOTH",
"561 30 OFFCURVE",
"549 16 OFFCURVE",
"530 17 CURVE",
"548 10 OFFCURVE",
"577 11 OFFCURVE",
"590 25 CURVE SMOOTH",
"602 40 OFFCURVE",
"599 69 OFFCURVE",
"590 86 CURVE"
);
},
{
closed = 1;
nodes = (
"196 42 OFFCURVE",
"190 35 OFFCURVE",
"185 40 CURVE",
"188 34 OFFCURVE",
"195 18 OFFCURVE",
"201 18 CURVE SMOOTH",
"208 18 OFFCURVE",
"215 34 OFFCURVE",
"217 40 CURVE",
"213 35 OFFCURVE",
"207 42 OFFCURVE",
"201 42 CURVE SMOOTH"
);
},
{
closed = 1;
nodes = (
"265 9 OFFCURVE",
"237 17 OFFCURVE",
"217 40 CURVE",
"228 12 OFFCURVE",
"259 -15 OFFCURVE",
"289 -15 CURVE SMOOTH",
"319 -15 OFFCURVE",
"350 12 OFFCURVE",
"361 40 CURVE",
"341 17 OFFCURVE",
"313 9 OFFCURVE",
"289 9 CURVE SMOOTH"
);
},
{
closed = 1;
nodes = (
"431 -53 OFFCURVE",
"411 -38 OFFCURVE",
"398 -23 CURVE SMOOTH",
"384 -7 OFFCURVE",
"372 14 OFFCURVE",
"376 40 CURVE",
"364 17 OFFCURVE",
"363 -19 OFFCURVE",
"380 -39 CURVE SMOOTH",
"397 -58 OFFCURVE",
"433 -62 OFFCURVE",
"457 -53 CURVE"
);
},
{
closed = 1;
nodes = (
"13 -37 OFFCURVE",
"-2 -10 OFFCURVE",
"-5 19 CURVE",
"-12 -9 OFFCURVE",
"2 -42 OFFCURVE",
"26 -59 CURVE SMOOTH",
"50 -76 OFFCURVE",
"86 -77 OFFCURVE",
"110 -60 CURVE",
"82 -68 OFFCURVE",
"51 -64 OFFCURVE",
"32 -51 CURVE SMOOTH"
);
},
{
closed = 1;
nodes = (
"583 -20 OFFCURVE",
"549 2 OFFCURVE",
"519 5 CURVE",
"546 -8 OFFCURVE",
"561 -32 OFFCURVE",
"567 -55 CURVE SMOOTH",
"574 -78 OFFCURVE",
"574 -107 OFFCURVE",
"557 -132 CURVE",
"581 -114 OFFCURVE",
"599 -78 OFFCURVE",
"591 -49 CURVE SMOOTH"
);
},
{
closed = 1;
nodes = (
"686 -79 OFFCURVE",
"709 -127 OFFCURVE",
"705 -166 CURVE SMOOTH",
"702 -205 OFFCURVE",
"671 -248 OFFCURVE",
"631 -276 CURVE",
"678 -263 OFFCURVE",
"711 -215 OFFCURVE",
"715 -167 CURVE SMOOTH",
"720 -119 OFFCURVE",
"696 -66 OFFCURVE",
"652 -45 CURVE"
);
},
{
closed = 1;
nodes = (
"192 -130 OFFCURVE",
"143 -100 OFFCURVE",
"110 -60 CURVE",
"127 -109 OFFCURVE",
"181 -140 OFFCURVE",
"233 -140 CURVE SMOOTH",
"285 -140 OFFCURVE",
"339 -110 OFFCURVE",
"357 -61 CURVE",
"324 -101 OFFCURVE",
"275 -130 OFFCURVE",
"233 -130 CURVE SMOOTH"
);
},
{
closed = 1;
nodes = (
"474 -174 OFFCURVE",
"511 -182 OFFCURVE",
"537 -173 CURVE",
"510 -172 OFFCURVE",
"489 -155 OFFCURVE",
"476 -138 CURVE SMOOTH",
"463 -120 OFFCURVE",
"452 -96 OFFCURVE",
"458 -69 CURVE",
"443 -92 OFFCURVE",
"440 -130 OFFCURVE",
"457 -152 CURVE SMOOTH"
);
},
{
closed = 1;
nodes = (
"563 -178 OFFCURVE",
"582 -176 OFFCURVE",
"586 -168 CURVE SMOOTH",
"590 -159 OFFCURVE",
"579 -143 OFFCURVE",
"573 -136 CURVE",
"577 -145 OFFCURVE",
"568 -150 OFFCURVE",
"564 -157 CURVE SMOOTH",
"561 -164 OFFCURVE",
"562 -175 OFFCURVE",
"553 -177 CURVE"
);
},
{
closed = 1;
nodes = (
"659 -204 OFFCURVE",
"662 -166 OFFCURVE",
"650 -141 CURVE",
"653 -169 OFFCURVE",
"641 -194 OFFCURVE",
"625 -211 CURVE SMOOTH",
"610 -227 OFFCURVE",
"585 -240 OFFCURVE",
"557 -238 CURVE",
"583 -250 OFFCURVE",
"620 -245 OFFCURVE",
"640 -224 CURVE SMOOTH"
);
},
{
closed = 1;
nodes = (
"440 -209 OFFCURVE",
"420 -179 OFFCURVE",
"416 -143 CURVE",
"407 -178 OFFCURVE",
"423 -221 OFFCURVE",
"452 -241 CURVE SMOOTH",
"482 -261 OFFCURVE",
"528 -259 OFFCURVE",
"557 -238 CURVE",
"522 -248 OFFCURVE",
"487 -241 OFFCURVE",
"464 -225 CURVE SMOOTH"
);
}
);
width = 667;
}
);
leftKerningGroup = I;
rightKerningGroup = E;
unicode = 0118;
userData = {
com.typemytype.robofont.guides = (
{
angle = 90;
isGlobal = 0;
magnetic = 5;
x = 355;
y = 0;
}
);
};
},
{
color = 1;
glyphname = F;
layers = (
{
hints = (
{
horizontal = 1;
place = "{-2147483648, 0}";
type = Tag;
name = hr00;
}
);
layerId = "EC64484B-0978-4CB1-9EE9-C40A2D8C4059";
paths = (
{
closed = 1;
nodes = (
"416 819 OFFCURVE",
"457 794 OFFCURVE",
"486 760 CURVE",
"471 802 OFFCURVE",
"425 829 OFFCURVE",
"380 829 CURVE SMOOTH",
"335 829 OFFCURVE",
"289 802 OFFCURVE",
"274 760 CURVE",
"303 794 OFFCURVE",
"344 819 OFFCURVE",
"380 819 CURVE SMOOTH"
);
},
{
closed = 1;
nodes = (
"101 721 OFFCURVE",
"134 729 OFFCURVE",
"166 720 CURVE",
"139 739 OFFCURVE",
"95 741 OFFCURVE",
"68 722 CURVE SMOOTH",
"40 703 OFFCURVE",
"26 662 OFFCURVE",
"35 629 CURVE",
"38 662 OFFCURVE",
"57 690 OFFCURVE",
"79 706 CURVE SMOOTH"
);
},
{
closed = 1;
nodes = (
"346 726 OFFCURVE",
"307 696 OFFCURVE",
"294 660 CURVE",
"318 689 OFFCURVE",
"354 702 OFFCURVE",
"384 702 CURVE SMOOTH",
"414 702 OFFCURVE",
"450 689 OFFCURVE",
"474 660 CURVE",
"461 696 OFFCURVE",
"422 726 OFFCURVE",
"384 726 CURVE SMOOTH"
);
},
{
closed = 1;
nodes = (
"635 705 OFFCURVE",
"597 724 OFFCURVE",
"566 720 CURVE",
"597 713 OFFCURVE",
"620 691 OFFCURVE",
"631 668 CURVE SMOOTH",
"642 645 OFFCURVE",
"646 614 OFFCURVE",
"633 585 CURVE",
"655 608 OFFCURVE",
"663 649 OFFCURVE",
"649 677 CURVE SMOOTH"
);
},
{
closed = 1;
nodes = (
"268 687 OFFCURVE",
"239 713 OFFCURVE",
"210 713 CURVE SMOOTH",
"181 713 OFFCURVE",
"152 687 OFFCURVE",
"142 660 CURVE",
"160 682 OFFCURVE",
"187 689 OFFCURVE",
"210 689 CURVE SMOOTH",
"233 689 OFFCURVE",
"260 682 OFFCURVE",
"278 660 CURVE"
);
},
{
closed = 1;
nodes = (
"491 673 OFFCURVE",
"511 670 OFFCURVE",
"528 667 CURVE SMOOTH",
"544 663 OFFCURVE",
"563 656 OFFCURVE",
"573 637 CURVE",
"570 658 OFFCURVE",
"554 685 OFFCURVE",
"533 690 CURVE SMOOTH",
"512 695 OFFCURVE",
"486 678 OFFCURVE",
"474 660 CURVE"
);
},
{
closed = 1;
nodes = (
"105 659 OFFCURVE",
"77 646 OFFCURVE",
"71 626 CURVE SMOOTH",
"64 606 OFFCURVE",
"79 578 OFFCURVE",
"95 565 CURVE",
"84 583 OFFCURVE",
"88 602 OFFCURVE",
"94 618 CURVE SMOOTH",
"99 634 OFFCURVE",
"107 652 OFFCURVE",
"126 660 CURVE"
);
},
{
closed = 1;
nodes = (
"555 554 OFFCURVE",
"543 538 OFFCURVE",
"522 534 CURVE",
"543 530 OFFCURVE",
"574 538 OFFCURVE",
"584 556 CURVE SMOOTH",
"595 575 OFFCURVE",
"587 605 OFFCURVE",
"573 621 CURVE",
"580 601 OFFCURVE",
"572 583 OFFCURVE",
"563 568 CURVE SMOOTH"
);
},
{
closed = 1;
nodes = (
"-43 394 OFFCURVE",
"-72 441 OFFCURVE",
"-72 482 CURVE SMOOTH",
"-72 522 OFFCURVE",
"-43 569 OFFCURVE",
"-5 601 CURVE",
"-52 584 OFFCURVE",
"-82 532 OFFCURVE",
"-82 482 CURVE SMOOTH",
"-82 431 OFFCURVE",
"-52 379 OFFCURVE",
"-5 362 CURVE"
);
},
{
closed = 1;
nodes = (
"66 539 OFFCURVE",
"39 507 OFFCURVE",
"39 476 CURVE SMOOTH",
"39 445 OFFCURVE",
"66 412 OFFCURVE",
"95 402 CURVE",
"71 422 OFFCURVE",
"63 451 OFFCURVE",
"63 476 CURVE SMOOTH",
"63 500 OFFCURVE",
"71 529 OFFCURVE",
"95 549 CURVE"
);
},
{
closed = 1;
nodes = (
"347 512 OFFCURVE",
"331 500 OFFCURVE",
"315 491 CURVE SMOOTH",
"300 483 OFFCURVE",
"281 475 OFFCURVE",
"260 483 CURVE",
"277 468 OFFCURVE",
"308 460 OFFCURVE",
"327 470 CURVE SMOOTH",
"332 473 OFFCURVE",
"336 477 OFFCURVE",
"340 482 CURVE",
"357 489 OFFCURVE",
"376 488 OFFCURVE",
"391 483 CURVE SMOOTH",
"411 477 OFFCURVE",
"432 464 OFFCURVE",
"443 440 CURVE",
"442 454 OFFCURVE",
"435 469 OFFCURVE",
"426 481 CURVE",
"429 480 OFFCURVE",
"433 480 OFFCURVE",
"437 480 CURVE SMOOTH",
"466 480 OFFCURVE",
"496 507 OFFCURVE",
"506 534 CURVE",
"488 512 OFFCURVE",
"460 504 OFFCURVE",
"437 504 CURVE SMOOTH",
"414 504 OFFCURVE",
"386 512 OFFCURVE",
"367 534 CURVE",
"371 523 OFFCURVE",
"378 513 OFFCURVE",
"387 504 CURVE",
"374 505 OFFCURVE",
"359 501 OFFCURVE",
"346 493 CURVE",
"351 506 OFFCURVE",
"353 522 OFFCURVE",
"351 534 CURVE"
);
},
{
closed = 1;
nodes = (
"704 477 OFFCURVE",
"725 432 OFFCURVE",
"722 396 CURVE SMOOTH",
"719 360 OFFCURVE",
"690 320 OFFCURVE",
"653 294 CURVE",
"697 305 OFFCURVE",
"728 350 OFFCURVE",
"732 395 CURVE SMOOTH",
"736 440 OFFCURVE",
"713 489 OFFCURVE",
"672 509 CURVE"
);
},
{
closed = 1;
nodes = (
"302 416 OFFCURVE",
"308 398 OFFCURVE",
"300 380 CURVE",
"314 394 OFFCURVE",
"325 422 OFFCURVE",
"317 440 CURVE SMOOTH",
"308 459 OFFCURVE",
"280 468 OFFCURVE",
"260 467 CURVE",
"279 462 OFFCURVE",
"288 445 OFFCURVE",
"295 430 CURVE SMOOTH"
);
},
{
closed = 1;
nodes = (
"357 435 OFFCURVE",
"326 408 OFFCURVE",
"316 380 CURVE",
"335 403 OFFCURVE",
"363 411 OFFCURVE",
"387 411 CURVE SMOOTH",
"411 411 OFFCURVE",
"439 403 OFFCURVE",
"459 380 CURVE",
"448 408 OFFCURVE",
"417 435 OFFCURVE",
"387 435 CURVE SMOOTH"
);
},
{
closed = 1;
nodes = (
"522 396 OFFCURVE",
"492 391 OFFCURVE",
"475 380 CURVE",
"495 385 OFFCURVE",
"511 374 OFFCURVE",
"524 365 CURVE SMOOTH",
"537 355 OFFCURVE",
"552 342 OFFCURVE",
"553 321 CURVE",
"559 341 OFFCURVE",
"555 372 OFFCURVE",
"539 384 CURVE SMOOTH"
);
},
{
closed = 1;
nodes = (
"64 220 OFFCURVE",
"50 258 OFFCURVE",
"50 290 CURVE SMOOTH",
"50 322 OFFCURVE",
"64 360 OFFCURVE",
"95 386 CURVE",
"57 372 OFFCURVE",
"26 330 OFFCURVE",
"26 290 CURVE SMOOTH",
"26 250 OFFCURVE",
"57 208 OFFCURVE",
"95 194 CURVE"
);
},
{
closed = 1;
nodes = (
"-81 244 OFFCURVE",
"-49 297 OFFCURVE",
"-5 334 CURVE",
"-59 315 OFFCURVE",
"-91 255 OFFCURVE",
"-91 198 CURVE SMOOTH",
"-91 142 OFFCURVE",
"-59 82 OFFCURVE",
"-5 63 CURVE",
"-49 99 OFFCURVE",
"-81 153 OFFCURVE",
"-81 198 CURVE SMOOTH"
);
},
{
closed = 1;
nodes = (
"527 251 OFFCURVE",
"550 251 OFFCURVE",
"558 261 CURVE SMOOTH",
"566 272 OFFCURVE",
"560 294 OFFCURVE",
"553 306 CURVE",
"556 293 OFFCURVE",
"546 284 OFFCURVE",
"539 276 CURVE SMOOTH",
"533 267 OFFCURVE",
"528 256 OFFCURVE",
"514 255 CURVE"
);
},
{
closed = 1;
nodes = (
"324 213 OFFCURVE",
"311 241 OFFCURVE",
"296 255 CURVE",
"306 237 OFFCURVE",
"300 218 OFFCURVE",
"294 203 CURVE SMOOTH",
"288 187 OFFCURVE",
"280 170 OFFCURVE",
"260 163 CURVE",
"281 163 OFFCURVE",
"309 175 OFFCURVE",
"317 194 CURVE SMOOTH"
);
},
{
closed = 1;
nodes = (
"444 187 OFFCURVE",
"485 218 OFFCURVE",
"498 255 CURVE",
"473 225 OFFCURVE",
"436 211 OFFCURVE",
"405 211 CURVE SMOOTH",
"374 211 OFFCURVE",
"337 225 OFFCURVE",
"312 255 CURVE",
"325 218 OFFCURVE",
"366 187 OFFCURVE",
"405 187 CURVE SMOOTH"
);
},
{
closed = 1;
nodes = (
"3 219 OFFCURVE",
"-24 183 OFFCURVE",
"-24 149 CURVE SMOOTH",
"-24 114 OFFCURVE",
"3 79 OFFCURVE",
"35 67 CURVE",
"9 89 OFFCURVE",
"-4 121 OFFCURVE",
"-4 149 CURVE SMOOTH",
"-4 176 OFFCURVE",
"9 208 OFFCURVE",
"35 230 CURVE"
);
},
{
closed = 1;
nodes = (
"439 140 OFFCURVE",
"394 160 OFFCURVE",
"364 195 CURVE",
"380 151 OFFCURVE",
"430 120 OFFCURVE",
"476 121 CURVE SMOOTH",
"523 121 OFFCURVE",
"571 155 OFFCURVE",
"586 199 CURVE",
"557 163 OFFCURVE",
"513 141 OFFCURVE",
"476 141 CURVE SMOOTH"
);
},
{
closed = 1;
nodes = (
"352 181 OFFCURVE",
"359 165 OFFCURVE",
"362 149 CURVE SMOOTH",
"362 150 OFFCURVE",
"361 150 OFFCURVE",
"360 151 CURVE SMOOTH",
"363 147 LINE",
"364 137 OFFCURVE",
"364 127 OFFCURVE",
"363 118 CURVE SMOOTH",
"360 94 OFFCURVE",
"346 67 OFFCURVE",
"320 51 CURVE",
"348 57 OFFCURVE",
"376 82 OFFCURVE",
"382 111 CURVE",
"392 84 OFFCURVE",
"396 57 OFFCURVE",
"390 35 CURVE SMOOTH",
"382 1 OFFCURVE",
"348 -33 OFFCURVE",
"308 -53 CURVE",
"352 -48 OFFCURVE",
"389 -10 OFFCURVE",
"400 32 CURVE SMOOTH",
"408 64 OFFCURVE",
"402 100 OFFCURVE",
"383 127 CURVE",
"382 154 OFFCURVE",
"364 183 OFFCURVE",
"340 195 CURVE"
);
},
{
closed = 1;
nodes = (
"65 132 OFFCURVE",
"73 160 OFFCURVE",
"95 179 CURVE",
"67 169 OFFCURVE",
"41 138 OFFCURVE",
"41 109 CURVE SMOOTH",
"41 79 OFFCURVE",
"67 49 OFFCURVE",
"95 39 CURVE",
"73 58 OFFCURVE",
"65 85 OFFCURVE",
"65 109 CURVE SMOOTH"
);
},
{
closed = 1;
nodes = (
"273 127 OFFCURVE",
"269 105 OFFCURVE",
"263 87 CURVE SMOOTH",
"257 69 OFFCURVE",
"247 49 OFFCURVE",
"225 40 CURVE",
"249 41 OFFCURVE",
"279 57 OFFCURVE",
"286 79 CURVE SMOOTH",
"293 102 OFFCURVE",
"279 132 OFFCURVE",
"260 147 CURVE"
);
},
{
closed = 1;
nodes = (
"134 11 OFFCURVE",
"111 14 OFFCURVE",
"94 31 CURVE",
"104 9 OFFCURVE",
"131 -13 OFFCURVE",
"155 -11 CURVE SMOOTH",
"180 -9 OFFCURVE",
"203 17 OFFCURVE",
"209 40 CURVE",
"195 20 OFFCURVE",
"173 14 OFFCURVE",
"154 13 CURVE SMOOTH"
);
}
);
width = 646;
}
);
leftKerningGroup = I;
unicode = 0046;
userData = {
com.typemytype.robofont.guides = (
{
angle = 0;
isGlobal = 0;
magnetic = 5;
x = 0;
y = 320;
},
{
angle = 0;
isGlobal = 0;
magnetic = 5;
x = 0;
y = 691;
},
{
angle = 0;
isGlobal = 0;
magnetic = 5;
x = 0;
y = 649;
},
{
angle = 0;
isGlobal = 0;
magnetic = 5;
x = 0;
y = 362;
},
{
angle = 0;
isGlobal = 0;
magnetic = 5;
x = 0;
y = 9;
},
{
angle = 90;
isGlobal = 0;
magnetic = 5;
x = 761;
y = 0;
},
{
angle = 90;
isGlobal = 0;
magnetic = 5;
x = 94;
y = 0;
},
{
angle = 90;
isGlobal = 0;
magnetic = 5;
x = 487;
y = 0;
},
{
angle = 90;
isGlobal = 0;
magnetic = 5;
x = 139;
y = 0;
}
);
};
},
{
color = 1;
glyphname = G;
layers = (
{
hints = (
{
horizontal = 1;
place = "{-2147483648, 0}";
type = Tag;
name = hr01;
}
);
layerId = "EC64484B-0978-4CB1-9EE9-C40A2D8C4059";
paths = (
{
closed = 1;
nodes = (
"371 821 OFFCURVE",
"415 799 OFFCURVE",
"446 766 CURVE",
"428 808 OFFCURVE",
"380 832 OFFCURVE",
"334 829 CURVE SMOOTH",
"289 827 OFFCURVE",
"244 797 OFFCURVE",
"231 753 CURVE",
"258 790 OFFCURVE",
"299 817 OFFCURVE",
"335 819 CURVE SMOOTH"
);
},
{
closed = 1;
nodes = (
"352 772 OFFCURVE",
"393 758 OFFCURVE",
"422 728 CURVE",
"404 766 OFFCURVE",
"358 792 OFFCURVE",
"317 789 CURVE SMOOTH",
"275 785 OFFCURVE",
"234 750 OFFCURVE",
"224 710 CURVE",
"248 744 OFFCURVE",
"285 766 OFFCURVE",
"318 769 CURVE SMOOTH"
);
},
{
closed = 1;
nodes = (
"375 700 OFFCURVE",
"337 723 OFFCURVE",
"303 719 CURVE SMOOTH",
"270 715 OFFCURVE",
"239 682 OFFCURVE",
"232 650 CURVE",
"250 678 OFFCURVE",
"280 692 OFFCURVE",
"306 695 CURVE SMOOTH",
"333 699 OFFCURVE",
"365 693 OFFCURVE",
"390 670 CURVE"
);
},
{
closed = 1;
nodes = (
"438 691 OFFCURVE",
"476 695 OFFCURVE",
"506 687 CURVE SMOOTH",
"535 679 OFFCURVE",
"567 657 OFFCURVE",
"583 622 CURVE",
"580 660 OFFCURVE",
"549 700 OFFCURVE",
"512 710 CURVE SMOOTH",
"475 720 OFFCURVE",
"428 701 OFFCURVE",
"406 669 CURVE"
);
},
{
closed = 1;
nodes = (
"147 633 OFFCURVE",
"180 648 OFFCURVE",
"217 644 CURVE",
"184 660 OFFCURVE",
"136 655 OFFCURVE",
"109 629 CURVE SMOOTH",
"83 604 OFFCURVE",
"77 556 OFFCURVE",
"92 522 CURVE",
"89 559 OFFCURVE",
"105 592 OFFCURVE",
"126 612 CURVE SMOOTH"
);
},
{
closed = 1;
nodes = (
"684 561 OFFCURVE",
"697 535 OFFCURVE",
"692 505 CURVE",
"707 531 OFFCURVE",
"706 573 OFFCURVE",
"686 596 CURVE SMOOTH",
"666 618 OFFCURVE",
"625 625 OFFCURVE",
"597 614 CURVE",
"627 614 OFFCURVE",
"652 598 OFFCURVE",
"668 580 CURVE SMOOTH"
);
},
{
closed = 1;
nodes = (
"849 490 OFFCURVE",
"816 543 OFFCURVE",
"766 558 CURVE",
"808 526 OFFCURVE",
"840 479 OFFCURVE",
"842 437 CURVE SMOOTH",
"844 395 OFFCURVE",
"817 344 OFFCURVE",
"778 308 CURVE",
"826 329 OFFCURVE",
"854 385 OFFCURVE",
"852 437 CURVE SMOOTH"
);
},
{
closed = 1;
nodes = (
"685 450 OFFCURVE",
"674 446 OFFCURVE",
"663 443 CURVE",
"660 450 OFFCURVE",
"657 456 OFFCURVE",
"653 463 CURVE",
"667 474 OFFCURVE",
"678 489 OFFCURVE",
"684 505 CURVE",
"673 491 OFFCURVE",
"659 481 OFFCURVE",
"644 475 CURVE",
"621 502 OFFCURVE",
"585 520 OFFCURVE",
"550 520 CURVE SMOOTH",
"524 520 OFFCURVE",
"497 510 OFFCURVE",
"476 494 CURVE",
"450 483 OFFCURVE",
"423 481 OFFCURVE",
"401 487 CURVE SMOOTH",
"372 494 OFFCURVE",
"342 514 OFFCURVE",
"326 547 CURVE",
"330 511 OFFCURVE",
"359 473 OFFCURVE",
"395 464 CURVE SMOOTH",
"413 459 OFFCURVE",
"433 462 OFFCURVE",
"452 471 CURVE",
"445 462 OFFCURVE",
"440 452 OFFCURVE",
"436 442 CURVE",
"458 468 OFFCURVE",
"487 487 OFFCURVE",
"515 495 CURVE",
"531 465 OFFCURVE",
"565 441 OFFCURVE",
"597 441 CURVE SMOOTH",
"605 441 OFFCURVE",
"613 442 OFFCURVE",
"621 445 CURVE",
"644 428 OFFCURVE",
"682 424 OFFCURVE",
"705 440 CURVE SMOOTH",
"729 455 OFFCURVE",
"741 491 OFFCURVE",
"735 519 CURVE",
"731 491 OFFCURVE",
"714 469 OFFCURVE",
"695 456 CURVE SMOOTH"
);
},
{
closed = 1;
nodes = (
"325 514 OFFCURVE",
"322 484 OFFCURVE",
"313 461 CURVE SMOOTH",
"304 439 OFFCURVE",
"285 415 OFFCURVE",
"256 406 CURVE",
"287 405 OFFCURVE",
"324 424 OFFCURVE",
"335 452 CURVE SMOOTH",
"347 480 OFFCURVE",
"334 520 OFFCURVE",
"311 541 CURVE"
);
},
{
closed = 1;
nodes = (
"-45 275 OFFCURVE",
"-16 236 OFFCURVE",
"21 224 CURVE",
"-9 248 OFFCURVE",
"-25 283 OFFCURVE",
"-26 314 CURVE SMOOTH",
"-27 343 OFFCURVE",
"-14 378 OFFCURVE",
"13 404 CURVE",
"17 369 OFFCURVE",
"43 333 OFFCURVE",
"76 319 CURVE",
"47 346 OFFCURVE",
"35 384 OFFCURVE",
"37 416 CURVE SMOOTH",
"39 447 OFFCURVE",
"55 484 OFFCURVE",
"87 507 CURVE",
"49 496 OFFCURVE",
"15 457 OFFCURVE",
"13 417 CURVE SMOOTH",
"13 405 LINE",
"-5 397 OFFCURVE",
"-20 383 OFFCURVE",
"-31 365 CURVE",
"-45 381 OFFCURVE",
"-53 401 OFFCURVE",
"-53 418 CURVE SMOOTH",
"-52 437 OFFCURVE",
"-40 460 OFFCURVE",
"-21 475 CURVE",
"-44 467 OFFCURVE",
"-62 443 OFFCURVE",
"-63 418 CURVE SMOOTH",
"-63 397 OFFCURVE",
"-51 374 OFFCURVE",
"-32 363 CURVE",
"-35 359 OFFCURVE",
"-37 354 OFFCURVE",
"-39 350 CURVE",
"-73 324 OFFCURVE",
"-89 277 OFFCURVE",
"-83 235 CURVE SMOOTH",
"-77 187 OFFCURVE",
"-42 140 OFFCURVE",
"5 130 CURVE",
"-36 156 OFFCURVE",
"-69 198 OFFCURVE",
"-74 236 CURVE SMOOTH",
"-77 266 OFFCURVE",
"-65 302 OFFCURVE",
"-44 334 CURVE",
"-45 327 OFFCURVE",
"-46 320 OFFCURVE",
"-46 313 CURVE SMOOTH"
);
},
{
closed = 1;
nodes = (
"530 499 OFFCURVE",
"540 500 OFFCURVE",
"550 500 CURVE SMOOTH",
"577 500 OFFCURVE",
"606 490 OFFCURVE",
"633 471 CURVE",
"621 467 OFFCURVE",
"609 465 OFFCURVE",
"597 465 CURVE SMOOTH",
"571 465 OFFCURVE",
"542 474 OFFCURVE",
"519 496 CURVE"
);
},
{
closed = 1;
nodes = (
"630 448 OFFCURVE",
"639 453 OFFCURVE",
"647 458 CURVE",
"652 454 OFFCURVE",
"657 449 OFFCURVE",
"662 443 CURVE",
"649 441 OFFCURVE",
"635 441 OFFCURVE",
"621 445 CURVE"
);
},
{
closed = 1;
nodes = (
"472 431 OFFCURVE",
"445 406 OFFCURVE",
"436 382 CURVE",
"453 402 OFFCURVE",
"477 407 OFFCURVE",
"498 407 CURVE SMOOTH",
"518 407 OFFCURVE",
"543 402 OFFCURVE",
"559 382 CURVE",
"551 406 OFFCURVE",
"524 431 OFFCURVE",
"498 431 CURVE SMOOTH"
);
},
{
closed = 1;
nodes = (
"648 386 OFFCURVE",
"668 379 OFFCURVE",
"678 360 CURVE",
"675 381 OFFCURVE",
"658 409 OFFCURVE",
"636 413 CURVE SMOOTH",
"614 418 OFFCURVE",
"587 401 OFFCURVE",
"575 382 CURVE",
"593 395 OFFCURVE",
"614 394 OFFCURVE",
"631 390 CURVE SMOOTH"
);
},
{
closed = 1;
nodes = (
"350 372 OFFCURVE",
"372 339 OFFCURVE",
"377 309 CURVE SMOOTH",
"382 285 OFFCURVE",
"377 255 OFFCURVE",
"363 229 CURVE",
"363 230 OFFCURVE",
"362 230 OFFCURVE",
"362 230 CURVE",
"333 243 OFFCURVE",
"292 232 OFFCURVE",
"270 210 CURVE",
"298 223 OFFCURVE",
"329 219 OFFCURVE",
"352 208 CURVE SMOOTH",
"375 198 OFFCURVE",
"398 177 OFFCURVE",
"406 147 CURVE",
"409 175 OFFCURVE",
"393 210 OFFCURVE",
"370 226 CURVE",
"391 248 OFFCURVE",
"402 282 OFFCURVE",
"397 312 CURVE SMOOTH",
"394 323 LINE",
"402 312 OFFCURVE",
"417 303 OFFCURVE",
"429 300 CURVE",
"415 309 OFFCURVE",
"413 326 OFFCURVE",
"412 340 CURVE SMOOTH",
"410 353 OFFCURVE",
"408 369 OFFCURVE",
"420 382 CURVE",
"404 374 OFFCURVE",
"386 354 OFFCURVE",
"388 337 CURVE",
"373 364 OFFCURVE",
"345 386 OFFCURVE",
"316 391 CURVE"
);
},
{
closed = 1;
nodes = (
"296 238 OFFCURVE",
"323 276 OFFCURVE",
"321 310 CURVE SMOOTH",
"320 345 OFFCURVE",
"289 380 OFFCURVE",
"256 390 CURVE",
"283 369 OFFCURVE",
"296 337 OFFCURVE",
"297 309 CURVE SMOOTH",
"299 282 OFFCURVE",
"289 248 OFFCURVE",
"264 225 CURVE"
);
},
{
closed = 1;
nodes = (
"703 318 OFFCURVE",
"712 282 OFFCURVE",
"709 253 CURVE SMOOTH",
"706 224 OFFCURVE",
"690 191 OFFCURVE",
"660 171 CURVE",
"695 180 OFFCURVE",
"729 214 OFFCURVE",
"733 251 CURVE SMOOTH",
"737 287 OFFCURVE",
"711 328 OFFCURVE",
"678 344 CURVE"
);
},
{
closed = 1;
nodes = (
"51 243 OFFCURVE",
"55 276 OFFCURVE",
"76 303 CURVE",
"47 285 OFFCURVE",
"26 244 OFFCURVE",
"34 211 CURVE SMOOTH",
"41 177 OFFCURVE",
"76 149 OFFCURVE",
"110 144 CURVE",
"80 160 OFFCURVE",
"63 189 OFFCURVE",
"57 216 CURVE SMOOTH"
);
},
{
closed = 1;
nodes = (
"431 274 OFFCURVE",
"437 261 OFFCURVE",
"445 252 CURVE",
"435 248 OFFCURVE",
"427 243 OFFCURVE",
"421 235 CURVE SMOOTH",
"404 213 OFFCURVE",
"407 174 OFFCURVE",
"422 150 CURVE",
"416 178 OFFCURVE",
"427 202 OFFCURVE",
"440 220 CURVE SMOOTH",
"446 228 OFFCURVE",
"454 236 OFFCURVE",
"464 243 CURVE",
"472 243 OFFCURVE",
"481 248 OFFCURVE",
"488 254 CURVE",
"493 255 OFFCURVE",
"498 256 OFFCURVE",
"503 256 CURVE",
"500 257 OFFCURVE",
"496 258 OFFCURVE",
"493 258 CURVE",
"497 262 OFFCURVE",
"501 267 OFFCURVE",
"503 271 CURVE",
"491 261 OFFCURVE",
"477 265 OFFCURVE",
"464 267 CURVE SMOOTH",
"452 269 OFFCURVE",
"437 270 OFFCURVE",
"429 284 CURVE"
);
},
{
closed = 1;
nodes = (
"544 29 OFFCURVE",
"593 29 OFFCURVE",
"622 51 CURVE SMOOTH",
"652 74 OFFCURVE",
"664 121 OFFCURVE",
"653 156 CURVE",
"651 119 OFFCURVE",
"631 88 OFFCURVE",
"608 70 CURVE SMOOTH",
"584 52 OFFCURVE",
"549 41 OFFCURVE",
"513 49 CURVE"
);
},
{
closed = 1;
nodes = (
"140 78 OFFCURVE",
"121 101 OFFCURVE",
"119 131 CURVE",
"111 102 OFFCURVE",
"121 62 OFFCURVE",
"146 45 CURVE SMOOTH",
"170 28 OFFCURVE",
"211 32 OFFCURVE",
"235 49 CURVE",
"206 41 OFFCURVE",
"179 51 OFFCURVE",
"159 65 CURVE SMOOTH"
);
},
{
closed = 1;
nodes = (
"626 2 OFFCURVE",
"590 -8 OFFCURVE",
"555 0 CURVE",
"585 -19 OFFCURVE",
"632 -19 OFFCURVE",
"661 4 CURVE SMOOTH",
"690 26 OFFCURVE",
"703 71 OFFCURVE",
"693 106 CURVE",
"691 69 OFFCURVE",
"672 37 OFFCURVE",
"649 20 CURVE SMOOTH"
);
},
{
closed = 1;
nodes = (
"440 14 OFFCURVE",
"417 15 OFFCURVE",
"398 30 CURVE",
"410 9 OFFCURVE",
"439 -10 OFFCURVE",
"463 -7 CURVE SMOOTH",
"487 -3 OFFCURVE",
"508 25 OFFCURVE",
"513 49 CURVE",
"500 28 OFFCURVE",
"478 20 OFFCURVE",
"459 17 CURVE SMOOTH"
);
},
{
closed = 1;
nodes = (
"362 11 OFFCURVE",
"335 7 OFFCURVE",
"313 10 CURVE SMOOTH",
"291 12 OFFCURVE",
"266 21 OFFCURVE",
"251 44 CURVE",
"257 18 OFFCURVE",
"283 -11 OFFCURVE",
"311 -14 CURVE SMOOTH",
"338 -17 OFFCURVE",
"370 5 OFFCURVE",
"382 30 CURVE"
);
},
{
closed = 1;
nodes = (
"434 -130 OFFCURVE",
"378 -107 OFFCURVE",
"334 -72 CURVE",
"355 -86 OFFCURVE",
"379 -94 OFFCURVE",
"403 -93 CURVE SMOOTH",
"447 -91 OFFCURVE",
"492 -58 OFFCURVE",
"505 -15 CURVE",
"478 -51 OFFCURVE",
"437 -72 OFFCURVE",
"402 -73 CURVE SMOOTH",
"367 -75 OFFCURVE",
"324 -58 OFFCURVE",
"294 -25 CURVE",
"301 -43 OFFCURVE",
"314 -58 OFFCURVE",
"330 -70 CURVE",
"359 -119 OFFCURVE",
"423 -142 OFFCURVE",
"480 -132 CURVE SMOOTH",
"537 -122 OFFCURVE",
"590 -80 OFFCURVE",
"601 -23 CURVE",
"571 -73 OFFCURVE",
"523 -114 OFFCURVE",
"478 -122 CURVE SMOOTH"
);
}
);
width = 753;
}
);
leftKerningGroup = O;
rightKerningGroup = G;
unicode = 0047;
userData = {
com.typemytype.robofont.guides = (
{
angle = 0;
isGlobal = 0;
magnetic = 5;
x = 0;
y = "-10";
},
{
angle = 0;
isGlobal = 0;
magnetic = 5;
x = 0;
y = 260;
},
{
angle = 0;
isGlobal = 0;
magnetic = 5;
x = 0;
y = 440;
},
{
angle = 90;
isGlobal = 0;
magnetic = 5;
x = 334;
y = 0;
},
{
angle = 90;
isGlobal = 0;
magnetic = 5;
x = 133;
y = 0;
},
{
angle = 90;
isGlobal = 0;
magnetic = 5;
x = 604;
y = 0;
},
{
angle = 90;
isGlobal = 0;
magnetic = 5;
x = 67;
y = 0;
}
);
};
},
{
color = 1;
glyphname = H;
layers = (
{
layerId = "EC64484B-0978-4CB1-9EE9-C40A2D8C4059";
paths = (
{
closed = 1;
nodes = (
"138 778 OFFCURVE",
"106 752 OFFCURVE",
"94 720 CURVE",
"119 750 OFFCURVE",
"156 766 OFFCURVE",
"188 766 CURVE SMOOTH",
"220 766 OFFCURVE",
"257 750 OFFCURVE",
"282 720 CURVE",
"270 754 OFFCURVE",
"234 782 OFFCURVE",
"197 786 CURVE",
"165 804 OFFCURVE",
"122 808 OFFCURVE",
"87 796 CURVE SMOOTH",
"39 781 OFFCURVE",
"-2 736 OFFCURVE",
"-4 685 CURVE",
"15 732 OFFCURVE",
"51 774 OFFCURVE",
"90 787 CURVE SMOOTH",
"114 794 OFFCURVE",
"143 793 OFFCURVE",
"172 784 CURVE"
);
},
{
closed = 1;
nodes = (
"408 526 OFFCURVE",
"426 508 OFFCURVE",
"447 499 CURVE",
"416 528 OFFCURVE",
"399 569 OFFCURVE",
"401 604 CURVE SMOOTH",
"403 638 OFFCURVE",
"424 677 OFFCURVE",
"458 703 CURVE",
"417 691 OFFCURVE",
"383 648 OFFCURVE",
"381 605 CURVE SMOOTH",
"380 593 OFFCURVE",
"382 582 OFFCURVE",
"386 570 CURVE",
"371 597 OFFCURVE",
"364 626 OFFCURVE",
"368 650 CURVE SMOOTH",
"374 684 OFFCURVE",
"404 720 OFFCURVE",
"442 742 CURVE",
"399 735 OFFCURVE",
"366 695 OFFCURVE",
"358 652 CURVE SMOOTH",
"352 613 OFFCURVE",
"366 570 OFFCURVE",
"396 546 CURVE"
);
},
{
closed = 1;
nodes = (
"214 691 OFFCURVE",
"243 683 OFFCURVE",
"262 660 CURVE",
"252 688 OFFCURVE",
"220 715 OFFCURVE",
"190 715 CURVE SMOOTH",
"160 715 OFFCURVE",
"128 688 OFFCURVE",
"118 660 CURVE",
"137 683 OFFCURVE",
"166 691 OFFCURVE",
"190 691 CURVE SMOOTH"
);
},
{
closed = 1;
nodes = (
"605 691 OFFCURVE",
"634 683 OFFCURVE",
"654 660 CURVE",
"643 689 OFFCURVE",
"610 715 OFFCURVE",
"579 715 CURVE SMOOTH",
"549 714 OFFCURVE",
"517 686 OFFCURVE",
"507 657 CURVE",
"526 681 OFFCURVE",
"555 690 OFFCURVE",
"580 691 CURVE SMOOTH"
);
},
{
closed = 1;
nodes = (
"860 586 OFFCURVE",
"828 642 OFFCURVE",
"777 661 CURVE",
"819 626 OFFCURVE",
"850 575 OFFCURVE",
"850 531 CURVE SMOOTH",
"850 499 OFFCURVE",
"833 463 OFFCURVE",
"807 432 CURVE",
"812 444 OFFCURVE",
"814 457 OFFCURVE",
"814 470 CURVE SMOOTH",
"814 517 OFFCURVE",
"781 565 OFFCURVE",
"737 581 CURVE",
"773 551 OFFCURVE",
"794 507 OFFCURVE",
"794 470 CURVE SMOOTH",
"794 432 OFFCURVE",
"773 388 OFFCURVE",
"737 358 CURVE",
"755 365 OFFCURVE",
"772 377 OFFCURVE",
"785 393 CURVE",
"789 386 OFFCURVE",
"791 378 OFFCURVE",
"791 370 CURVE SMOOTH",
"791 359 OFFCURVE",
"787 347 OFFCURVE",
"777 338 CURVE",
"790 343 OFFCURVE",
"801 357 OFFCURVE",
"801 370 CURVE SMOOTH",
"801 379 OFFCURVE",
"795 389 OFFCURVE",
"787 396 CURVE",
"791 401 OFFCURVE",
"795 407 OFFCURVE",
"798 412 CURVE",
"837 437 OFFCURVE",
"860 485 OFFCURVE",
"860 531 CURVE SMOOTH"
);
},
{
closed = 1;
nodes = (
"88 657 OFFCURVE",
"68 644 OFFCURVE",
"67 630 CURVE SMOOTH",
"65 616 OFFCURVE",
"82 599 OFFCURVE",
"95 593 CURVE",
"85 603 OFFCURVE",
"89 616 OFFCURVE",
"90 627 CURVE SMOOTH",
"92 639 OFFCURVE",
"90 652 OFFCURVE",
"102 660 CURVE"
);
},
{
closed = 1;
nodes = (
"298 568 OFFCURVE",
"288 542 OFFCURVE",
"265 526 CURVE",
"292 533 OFFCURVE",
"321 560 OFFCURVE",
"324 588 CURVE SMOOTH",
"326 616 OFFCURVE",
"303 648 OFFCURVE",
"278 660 CURVE",
"298 640 OFFCURVE",
"302 613 OFFCURVE",
"300 590 CURVE SMOOTH"
);
},
{
closed = 1;
nodes = (
"704 569 OFFCURVE",
"698 541 OFFCURVE",
"677 521 CURVE",
"704 533 OFFCURVE",
"729 564 OFFCURVE",
"727 593 CURVE SMOOTH",
"726 623 OFFCURVE",
"698 651 OFFCURVE",
"670 660 CURVE",
"693 642 OFFCURVE",
"702 616 OFFCURVE",
"703 592 CURVE SMOOTH"
);
},
{
closed = 1;
nodes = (
"480 497 OFFCURVE",
"469 530 OFFCURVE",
"469 558 CURVE SMOOTH",
"469 586 OFFCURVE",
"480 619 OFFCURVE",
"507 641 CURVE",
"474 629 OFFCURVE",
"445 593 OFFCURVE",
"445 558 CURVE SMOOTH",
"445 523 OFFCURVE",
"474 487 OFFCURVE",
"507 475 CURVE"
);
},
{
closed = 1;
nodes = (
"71 569 OFFCURVE",
"47 543 OFFCURVE",
"47 517 CURVE SMOOTH",
"47 492 OFFCURVE",
"71 466 OFFCURVE",
"95 458 CURVE",
"76 474 OFFCURVE",
"71 497 OFFCURVE",
"71 517 CURVE SMOOTH",
"71 538 OFFCURVE",
"76 561 OFFCURVE",
"95 577 CURVE"
);
},
{
closed = 1;
nodes = (
"292 514 OFFCURVE",
"315 501 OFFCURVE",
"331 486 CURVE SMOOTH",
"347 472 OFFCURVE",
"361 450 OFFCURVE",
"360 423 CURVE",
"371 448 OFFCURVE",
"367 486 OFFCURVE",
"347 504 CURVE SMOOTH",
"327 522 OFFCURVE",
"289 523 OFFCURVE",
"265 510 CURVE"
);
},
{
closed = 1;
nodes = (
"698 488 OFFCURVE",
"704 462 OFFCURVE",
"704 440 CURVE SMOOTH",
"704 418 OFFCURVE",
"698 392 OFFCURVE",
"677 374 CURVE",
"703 383 OFFCURVE",
"728 412 OFFCURVE",
"728 440 CURVE SMOOTH",
"728 467 OFFCURVE",
"703 496 OFFCURVE",
"677 506 CURVE"
);
},
{
closed = 1;
nodes = (
"400 484 OFFCURVE",
"378 451 OFFCURVE",
"376 423 CURVE",
"388 449 OFFCURVE",
"412 463 OFFCURVE",
"434 469 CURVE SMOOTH",
"456 475 OFFCURVE",
"484 475 OFFCURVE",
"507 459 CURVE",
"491 482 OFFCURVE",
"455 499 OFFCURVE",
"428 492 CURVE SMOOTH"
);
},
{
closed = 1;
nodes = (
"70 433 OFFCURVE",
"45 405 OFFCURVE",
"45 378 CURVE SMOOTH",
"45 351 OFFCURVE",
"70 323 OFFCURVE",
"95 314 CURVE",
"74 331 OFFCURVE",
"69 356 OFFCURVE",
"69 378 CURVE SMOOTH",
"69 399 OFFCURVE",
"74 424 OFFCURVE",
"95 442 CURVE"
);
},
{
closed = 1;
nodes = (
"3 346 OFFCURVE",
"-24 311 OFFCURVE",
"-24 276 CURVE",
"-57 255 OFFCURVE",
"-77 214 OFFCURVE",
"-77 175 CURVE SMOOTH",
"-77 128 OFFCURVE",
"-49 79 OFFCURVE",
"-5 63 CURVE",
"-41 93 OFFCURVE",
"-67 137 OFFCURVE",
"-67 175 CURVE SMOOTH",
"-67 205 OFFCURVE",
"-50 240 OFFCURVE",
"-24 268 CURVE",
"-20 237 OFFCURVE",
"5 205 OFFCURVE",
"35 194 CURVE",
"9 217 OFFCURVE",
"-4 249 OFFCURVE",
"-4 276 CURVE SMOOTH",
"-4 304 OFFCURVE",
"9 336 OFFCURVE",
"35 358 CURVE"
);
},
{
closed = 1;
nodes = (
"701 247 OFFCURVE",
"725 273 OFFCURVE",
"725 298 CURVE SMOOTH",
"725 323 OFFCURVE",
"701 349 OFFCURVE",
"677 358 CURVE",
"696 342 OFFCURVE",
"701 318 OFFCURVE",
"701 298 CURVE SMOOTH",
"701 278 OFFCURVE",
"696 254 OFFCURVE",
"677 238 CURVE"
);
},
{
closed = 1;
nodes = (
"74 188 OFFCURVE",
"69 213 OFFCURVE",
"69 234 CURVE SMOOTH",
"69 256 OFFCURVE",
"74 281 OFFCURVE",
"95 298 CURVE",
"70 289 OFFCURVE",
"45 261 OFFCURVE",
"45 234 CURVE SMOOTH",
"45 208 OFFCURVE",
"70 180 OFFCURVE",
"95 171 CURVE"
);
},
{
closed = 1;
nodes = (
"291 165 OFFCURVE",
"319 189 OFFCURVE",
"322 215 CURVE SMOOTH",
"325 241 OFFCURVE",
"304 271 OFFCURVE",
"281 283 CURVE",
"299 264 OFFCURVE",
"301 239 OFFCURVE",
"298 218 CURVE SMOOTH",
"296 197 OFFCURVE",
"287 173 OFFCURVE",
"265 159 CURVE"
);
},
{
closed = 1;
nodes = (
"336 259 OFFCURVE",
"313 264 OFFCURVE",
"297 283 CURVE",
"305 260 OFFCURVE",
"331 235 OFFCURVE",
"356 235 CURVE SMOOTH",
"381 235 OFFCURVE",
"407 260 OFFCURVE",
"416 283 CURVE",
"400 264 OFFCURVE",
"376 259 OFFCURVE",
"356 259 CURVE SMOOTH"
);
},
{
closed = 1;
nodes = (
"457 203 OFFCURVE",
"488 205 OFFCURVE",
"507 215 CURVE",
"486 212 OFFCURVE",
"470 224 OFFCURVE",
"457 235 CURVE SMOOTH",
"444 247 OFFCURVE",
"431 262 OFFCURVE",
"432 283 CURVE",
"424 263 OFFCURVE",
"425 232 OFFCURVE",
"441 217 CURVE SMOOTH"
);
},
{
closed = 1;
nodes = (
"706 198 OFFCURVE",
"719 163 OFFCURVE",
"719 133 CURVE SMOOTH",
"719 103 OFFCURVE",
"706 67 OFFCURVE",
"677 43 CURVE",
"712 56 OFFCURVE",
"743 95 OFFCURVE",
"743 133 CURVE SMOOTH",
"743 170 OFFCURVE",
"712 210 OFFCURVE",
"677 222 CURVE"
);
},
{
closed = 1;
nodes = (
"467 142 OFFCURVE",
"479 176 OFFCURVE",
"507 199 CURVE",
"473 187 OFFCURVE",
"443 149 OFFCURVE",
"443 113 CURVE SMOOTH",
"443 78 OFFCURVE",
"471 42 OFFCURVE",
"504 28 CURVE",
"509 20 OFFCURVE",
"516 12 OFFCURVE",
"524 12 CURVE SMOOTH",
"535 12 OFFCURVE",
"546 30 OFFCURVE",
"550 40 CURVE",
"543 32 OFFCURVE",
"533 36 OFFCURVE",
"524 36 CURVE SMOOTH",
"515 36 OFFCURVE",
"505 31 OFFCURVE",
"498 39 CURVE",
"501 32 LINE",
"477 55 OFFCURVE",
"467 86 OFFCURVE",
"467 113 CURVE SMOOTH"
);
},
{
closed = 1;
nodes = (
"76 114 OFFCURVE",
"78 137 OFFCURVE",
"95 155 CURVE",
"73 144 OFFCURVE",
"52 117 OFFCURVE",
"54 93 CURVE SMOOTH",
"56 69 OFFCURVE",
"83 46 OFFCURVE",
"106 40 CURVE",
"86 54 OFFCURVE",
"80 76 OFFCURVE",
"78 95 CURVE SMOOTH"
);
},
{
closed = 1;
nodes = (
"390 111 OFFCURVE",
"402 65 OFFCURVE",
"393 31 CURVE SMOOTH",
"383 -3 OFFCURVE",
"349 -36 OFFCURVE",
"309 -54 CURVE",
"353 -51 OFFCURVE",
"391 -14 OFFCURVE",
"402 28 CURVE SMOOTH",
"414 71 OFFCURVE",
"401 122 OFFCURVE",
"365 147 CURVE"
);
},
{
closed = 1;
nodes = (
"292 47 OFFCURVE",
"311 69 OFFCURVE",
"311 90 CURVE SMOOTH",
"310 113 OFFCURVE",
"287 136 OFFCURVE",
"265 143 CURVE",
"283 129 OFFCURVE",
"286 107 OFFCURVE",
"287 89 CURVE SMOOTH",
"287 71 OFFCURVE",
"285 50 OFFCURVE",
"268 35 CURVE",
"269 35 OFFCURVE",
"269 36 OFFCURVE",
"270 36 CURVE",
"250 15 OFFCURVE",
"222 6 OFFCURVE",
"198 6 CURVE SMOOTH",
"172 6 OFFCURVE",
"143 16 OFFCURVE",
"122 40 CURVE",
"133 10 OFFCURVE",
"166 -18 OFFCURVE",
"198 -18 CURVE SMOOTH",
"229 -18 OFFCURVE",
"261 8 OFFCURVE",
"273 37 CURVE"
);
},
{
closed = 1;
nodes = (
"356 60 OFFCURVE",
"350 107 OFFCURVE",
"325 135 CURVE",
"339 101 OFFCURVE",
"335 63 OFFCURVE",
"321 37 CURVE SMOOTH",
"307 11 OFFCURVE",
"278 -12 OFFCURVE",
"242 -20 CURVE",
"279 -25 OFFCURVE",
"321 -5 OFFCURVE",
"339 28 CURVE SMOOTH"
);
},
{
closed = 1;
nodes = (
"635 -19 OFFCURVE",
"665 3 OFFCURVE",
"677 27 CURVE",
"658 8 OFFCURVE",
"632 5 OFFCURVE",
"611 7 CURVE SMOOTH",
"589 10 OFFCURVE",
"565 18 OFFCURVE",
"550 40 CURVE",
"557 14 OFFCURVE",
"582 -14 OFFCURVE",
"608 -17 CURVE SMOOTH"
);
},
{
closed = 1;
nodes = (
"449 20 OFFCURVE",
"442 27 OFFCURVE",
"447 35 CURVE",
"440 29 OFFCURVE",
"429 16 OFFCURVE",
"432 7 CURVE SMOOTH",
"435 -2 OFFCURVE",
"452 -6 OFFCURVE",
"461 -6 CURVE",
"452 -3 OFFCURVE",
"453 6 OFFCURVE",
"451 13 CURVE SMOOTH"
);
},
{
closed = 1;
nodes = (
"610 -114 OFFCURVE",
"585 -106 OFFCURVE",
"561 -92 CURVE",
"565 -92 OFFCURVE",
"569 -93 OFFCURVE",
"573 -93 CURVE SMOOTH",
"622 -96 OFFCURVE",
"675 -65 OFFCURVE",
"694 -20 CURVE",
"660 -56 OFFCURVE",
"613 -75 OFFCURVE",
"574 -73 CURVE SMOOTH",
"535 -71 OFFCURVE",
"490 -46 OFFCURVE",
"461 -6 CURVE",
"472 -42 OFFCURVE",
"503 -72 OFFCURVE",
"539 -86 CURVE",
"562 -111 OFFCURVE",
"598 -125 OFFCURVE",
"633 -123 CURVE SMOOTH",
"678 -120 OFFCURVE",
"723 -90 OFFCURVE",
"736 -47 CURVE",
"709 -83 OFFCURVE",
"668 -110 OFFCURVE",
"633 -113 CURVE SMOOTH"
);
}
);
width = 772;
}
);
leftKerningGroup = I;
rightKerningGroup = I;
unicode = 0048;
userData = {
com.typemytype.robofont.guides = (
{
angle = 0;
isGlobal = 0;
magnetic = 5;
x = 0;
y = 350;
},
{
angle = 0;
isGlobal = 0;
magnetic = 5;
x = 0;
y = 9;
},
{
angle = 0;
isGlobal = 0;
magnetic = 5;
x = 0;
y = 691;
},
{
angle = 90;
isGlobal = 0;
magnetic = 5;
x = 94;
y = 0;
},
{
angle = 90;
isGlobal = 0;
magnetic = 5;
x = 139;
y = 0;
},
{
angle = 90;
isGlobal = 0;
magnetic = 5;
x = 543;
y = 0;
},
{
angle = 90;
isGlobal = 0;
magnetic = 5;
x = 588;
y = 0;
}
);
};
},
{
color = 1;
glyphname = Hbar;
layers = (
{
components = (
{
name = H;
}
);
hints = (
{
horizontal = 1;
place = "{-2147483648, 0}";
type = Tag;
name = hr00;
}
);
layerId = "EC64484B-0978-4CB1-9EE9-C40A2D8C4059";
paths = (
{
closed = 1;
nodes = (
"571 776 OFFCURVE",
"535 764 OFFCURVE",
"510 740 CURVE",
"503 741 OFFCURVE",
"497 742 OFFCURVE",
"491 742 CURVE SMOOTH",
"443 742 OFFCURVE",
"393 710 OFFCURVE",
"376 665 CURVE",
"371 665 LINE SMOOTH",
"336 665 OFFCURVE",
"299 636 OFFCURVE",
"287 603 CURVE",
"310 630 OFFCURVE",
"343 641 OFFCURVE",
"371 641 CURVE SMOOTH",
"399 641 OFFCURVE",
"432 630 OFFCURVE",
"455 603 CURVE",
"444 634 OFFCURVE",
"410 662 OFFCURVE",
"377 665 CURVE",
"407 701 OFFCURVE",
"453 722 OFFCURVE",
"491 722 CURVE SMOOTH",
"493 722 LINE",
"489 716 OFFCURVE",
"486 710 OFFCURVE",
"483 703 CURVE",
"489 710 OFFCURVE",
"495 716 OFFCURVE",
"502 721 CURVE",
"537 718 OFFCURVE",
"578 697 OFFCURVE",
"606 663 CURVE",
"594 699 OFFCURVE",
"560 727 OFFCURVE",
"523 737 CURVE",
"549 755 OFFCURVE",
"578 766 OFFCURVE",
"604 765 CURVE SMOOTH",
"644 763 OFFCURVE",
"690 733 OFFCURVE",
"721 694 CURVE",
"705 742 OFFCURVE",
"655 773 OFFCURVE",
"605 775 CURVE SMOOTH"
);
},
{
closed = 1;
nodes = (
"262 629 OFFCURVE",
"238 652 OFFCURVE",
"212 663 CURVE",
"192 694 OFFCURVE",
"148 712 OFFCURVE",
"113 704 CURVE SMOOTH",
"77 696 OFFCURVE",
"46 660 OFFCURVE",
"42 624 CURVE",
"58 657 OFFCURVE",
"89 678 OFFCURVE",
"117 685 CURVE SMOOTH",
"146 691 OFFCURVE",
"182 685 OFFCURVE",
"211 663 CURVE",
"201 668 OFFCURVE",
"191 670 OFFCURVE",
"180 670 CURVE SMOOTH",
"141 670 OFFCURVE",
"101 639 OFFCURVE",
"88 603 CURVE",
"113 633 OFFCURVE",
"149 646 OFFCURVE",
"180 646 CURVE SMOOTH",
"210 646 OFFCURVE",
"247 633 OFFCURVE",
"271 603 CURVE"
);
},
{
closed = 1;
nodes = (
"40 704 OFFCURVE",
"0 671 OFFCURVE",
"-16 630 CURVE SMOOTH",
"-31 589 OFFCURVE",
"-23 538 OFFCURVE",
"10 509 CURVE",
"-11 547 OFFCURVE",
"-19 594 OFFCURVE",
"-6 626 CURVE SMOOTH",
"6 659 OFFCURVE",
"43 689 OFFCURVE",
"84 703 CURVE"
);
},
{
closed = 1;
nodes = (
"525 671 OFFCURVE",
"484 640 OFFCURVE",
"471 603 CURVE",
"496 633 OFFCURVE",
"533 647 OFFCURVE",
"564 647 CURVE SMOOTH",
"596 647 OFFCURVE",
"633 633 OFFCURVE",
"658 603 CURVE",
"645 640 OFFCURVE",
"604 671 OFFCURVE",
"564 671 CURVE SMOOTH"
);
},
{
closed = 1;
nodes = (
"112 587 OFFCURVE",
"100 596 OFFCURVE",
"100 612 CURVE",
"94 597 OFFCURVE",
"93 572 OFFCURVE",
"105 561 CURVE SMOOTH",
"116 550 OFFCURVE",
"142 554 OFFCURVE",
"156 561 CURVE",
"140 559 OFFCURVE",
"130 570 OFFCURVE",
"121 579 CURVE SMOOTH"
);
},
{
closed = 1;
nodes = (
"679 595 OFFCURVE",
"670 589 OFFCURVE",
"667 581 CURVE SMOOTH",
"665 574 OFFCURVE",
"667 564 OFFCURVE",
"658 561 CURVE",
"668 561 OFFCURVE",
"687 564 OFFCURVE",
"690 573 CURVE SMOOTH",
"693 582 OFFCURVE",
"681 597 OFFCURVE",
"674 603 CURVE"
);
},
{
closed = 1;
nodes = (
"226 524 OFFCURVE",
"194 535 OFFCURVE",
"172 561 CURVE",
"183 529 OFFCURVE",
"219 500 OFFCURVE",
"253 500 CURVE SMOOTH",
"288 500 OFFCURVE",
"323 529 OFFCURVE",
"335 561 CURVE",
"313 535 OFFCURVE",
"281 524 OFFCURVE",
"253 524 CURVE SMOOTH"
);
},
{
closed = 1;
nodes = (
"401 528 OFFCURVE",
"372 537 OFFCURVE",
"351 561 CURVE",
"362 531 OFFCURVE",
"395 504 OFFCURVE",
"427 504 CURVE SMOOTH",
"459 504 OFFCURVE",
"492 531 OFFCURVE",
"503 561 CURVE",
"482 537 OFFCURVE",
"452 528 OFFCURVE",
"427 528 CURVE SMOOTH"
);
},
{
closed = 1;
nodes = (
"549 531 OFFCURVE",
"521 539 OFFCURVE",
"503 561 CURVE",
"513 533 OFFCURVE",
"543 507 OFFCURVE",
"572 507 CURVE SMOOTH",
"602 507 OFFCURVE",
"632 533 OFFCURVE",
"642 561 CURVE",
"623 539 OFFCURVE",
"596 531 OFFCURVE",
"572 531 CURVE SMOOTH"
);
},
{
closed = 1;
nodes = (
"463 406 OFFCURVE",
"441 414 OFFCURVE",
"421 427 CURVE",
"432 424 OFFCURVE",
"444 422 OFFCURVE",
"455 422 CURVE SMOOTH",
"503 422 OFFCURVE",
"554 455 OFFCURVE",
"570 501 CURVE",
"539 464 OFFCURVE",
"494 442 OFFCURVE",
"455 442 CURVE SMOOTH",
"416 442 OFFCURVE",
"370 464 OFFCURVE",
"339 501 CURVE",
"349 474 OFFCURVE",
"370 452 OFFCURVE",
"396 438 CURVE",
"416 412 OFFCURVE",
"450 396 OFFCURVE",
"483 396 CURVE SMOOTH",
"525 396 OFFCURVE",
"568 422 OFFCURVE",
"582 461 CURVE",
"555 429 OFFCURVE",
"516 406 OFFCURVE",
"483 406 CURVE SMOOTH"
);
}
);
width = 772;
}
);
leftKerningGroup = I;
rightKerningGroup = I;
unicode = 0126;
},
{
color = 1;
glyphname = I;
layers = (
{
anchors = (
{
name = bottom;
position = "{184, 0}";
},
{
name = ogonek;
position = "{331, 10}";
},
{
name = top;
position = "{184, 700}";
},
{
name = topleft;
position = "{20, 700}";
}
);
layerId = "EC64484B-0978-4CB1-9EE9-C40A2D8C4059";
paths = (
{
closed = 1;
nodes = (
"199 827 OFFCURVE",
"252 799 OFFCURVE",
"290 760 CURVE",
"268 810 OFFCURVE",
"209 838 OFFCURVE",
"154 834 CURVE SMOOTH",
"100 831 OFFCURVE",
"45 795 OFFCURVE",
"30 742 CURVE",
"62 787 OFFCURVE",
"111 821 OFFCURVE",
"155 824 CURVE SMOOTH"
);
},
{
closed = 1;
nodes = (
"393 651 OFFCURVE",
"361 691 OFFCURVE",
"322 703 CURVE",
"355 679 OFFCURVE",
"374 642 OFFCURVE",
"376 609 CURVE SMOOTH",
"377 577 OFFCURVE",
"363 537 OFFCURVE",
"333 510 CURVE",
"370 526 OFFCURVE",
"398 570 OFFCURVE",
"396 610 CURVE SMOOTH"
);
},
{
closed = 1;
nodes = (
"213 696 OFFCURVE",
"191 677 OFFCURVE",
"182 660 CURVE",
"196 673 OFFCURVE",
"214 672 OFFCURVE",
"229 670 CURVE SMOOTH",
"245 668 OFFCURVE",
"262 665 OFFCURVE",
"273 649 CURVE",
"269 668 OFFCURVE",
"251 691 OFFCURVE",
"232 694 CURVE SMOOTH"
);
},
{
closed = 1;
nodes = (
"146 669 OFFCURVE",
"114 668 OFFCURVE",
"99 652 CURVE SMOOTH",
"84 637 OFFCURVE",
"85 605 OFFCURVE",
"95 585 CURVE",
"93 607 OFFCURVE",
"105 623 OFFCURVE",
"117 636 CURVE SMOOTH",
"129 648 OFFCURVE",
"144 661 OFFCURVE",
"166 660 CURVE"
);
},
{
closed = 1;
nodes = (
"302 609 OFFCURVE",
"315 574 OFFCURVE",
"315 543 CURVE SMOOTH",
"315 513 OFFCURVE",
"302 478 OFFCURVE",
"273 454 CURVE",
"308 467 OFFCURVE",
"339 506 OFFCURVE",
"339 543 CURVE SMOOTH",
"339 581 OFFCURVE",
"308 620 OFFCURVE",
"273 633 CURVE"
);
},
{
closed = 1;
nodes = (
"2 413 OFFCURVE",
"-16 453 OFFCURVE",
"-16 488 CURVE SMOOTH",
"-16 522 OFFCURVE",
"2 562 OFFCURVE",
"35 589 CURVE",
"-5 575 OFFCURVE",
"-36 530 OFFCURVE",
"-36 488 CURVE SMOOTH",
"-36 445 OFFCURVE",
"-5 400 OFFCURVE",
"35 386 CURVE"
);
},
{
closed = 1;
nodes = (
"71 561 OFFCURVE",
"47 535 OFFCURVE",
"47 510 CURVE SMOOTH",
"47 484 OFFCURVE",
"71 458 OFFCURVE",
"95 450 CURVE",
"76 466 OFFCURVE",
"71 489 OFFCURVE",
"71 510 CURVE SMOOTH",
"71 530 OFFCURVE",
"76 553 OFFCURVE",
"95 569 CURVE"
);
},
{
closed = 1;
nodes = (
"303 412 OFFCURVE",
"317 376 OFFCURVE",
"317 344 CURVE SMOOTH",
"317 313 OFFCURVE",
"303 276 OFFCURVE",
"273 250 CURVE",
"310 264 OFFCURVE",
"341 305 OFFCURVE",
"341 344 CURVE SMOOTH",
"341 383 OFFCURVE",
"310 424 OFFCURVE",
"273 438 CURVE"
);
},
{
closed = 1;
nodes = (
"65 387 OFFCURVE",
"73 415 OFFCURVE",
"95 434 CURVE",
"67 424 OFFCURVE",
"41 393 OFFCURVE",
"41 364 CURVE SMOOTH",
"41 335 OFFCURVE",
"67 304 OFFCURVE",
"95 294 CURVE",
"73 313 OFFCURVE",
"65 341 OFFCURVE",
"65 364 CURVE SMOOTH"
);
},
{
closed = 1;
nodes = (
"411 374 OFFCURVE",
"439 328 OFFCURVE",
"439 288 CURVE SMOOTH",
"439 249 OFFCURVE",
"411 202 OFFCURVE",
"373 171 CURVE",
"419 187 OFFCURVE",
"449 239 OFFCURVE",
"449 288 CURVE SMOOTH",
"449 338 OFFCURVE",
"419 389 OFFCURVE",
"373 406 CURVE"
);
},
{
closed = 1;
nodes = (
"-72 275 OFFCURVE",
"-43 322 OFFCURVE",
"-5 354 CURVE",
"-52 337 OFFCURVE",
"-82 285 OFFCURVE",
"-82 234 CURVE SMOOTH",
"-82 184 OFFCURVE",
"-52 132 OFFCURVE",
"-5 115 CURVE",
"-43 147 OFFCURVE",
"-72 194 OFFCURVE",
"-72 234 CURVE SMOOTH"
);
},
{
closed = 1;
nodes = (
"39 189 OFFCURVE",
"66 157 OFFCURVE",
"95 147 CURVE",
"71 167 OFFCURVE",
"63 196 OFFCURVE",
"63 220 CURVE SMOOTH",
"63 245 OFFCURVE",
"71 274 OFFCURVE",
"95 294 CURVE",
"66 284 OFFCURVE",
"39 251 OFFCURVE",
"39 220 CURVE SMOOTH"
);
},
{
closed = 1;
nodes = (
"304 86 OFFCURVE",
"333 121 OFFCURVE",
"333 155 CURVE SMOOTH",
"333 188 OFFCURVE",
"304 223 OFFCURVE",
"273 234 CURVE",
"299 213 OFFCURVE",
"309 181 OFFCURVE",
"309 155 CURVE SMOOTH",
"309 128 OFFCURVE",
"299 96 OFFCURVE",
"273 75 CURVE"
);
},
{
closed = 1;
nodes = (
"107 47 OFFCURVE",
"100 65 OFFCURVE",
"95 80 CURVE SMOOTH",
"89 95 OFFCURVE",
"85 113 OFFCURVE",
"95 131 CURVE",
"79 118 OFFCURVE",
"65 91 OFFCURVE",
"72 72 CURVE SMOOTH",
"78 53 OFFCURVE",
"106 40 OFFCURVE",
"126 40 CURVE"
);
},
{
closed = 1;
nodes = (
"319 8 OFFCURVE",
"296 -13 OFFCURVE",
"266 -20 CURVE",
"297 -24 OFFCURVE",
"334 -7 OFFCURVE",
"348 21 CURVE SMOOTH",
"362 48 OFFCURVE",
"354 88 OFFCURVE",
"333 111 CURVE",
"345 82 OFFCURVE",
"341 52 OFFCURVE",
"330 30 CURVE SMOOTH"
);
},
{
closed = 1;
nodes = (
"242 2 OFFCURVE",
"267 32 OFFCURVE",
"273 59 CURVE",
"258 35 OFFCURVE",
"233 25 OFFCURVE",
"211 22 CURVE SMOOTH",
"189 19 OFFCURVE",
"163 21 OFFCURVE",
"142 40 CURVE",
"155 16 OFFCURVE",
"187 -6 OFFCURVE",
"215 -2 CURVE SMOOTH"
);
},
{
closed = 1;
nodes = (
"160 -64 OFFCURVE",
"163 -62 OFFCURVE",
"166 -60 CURVE",
"146 -66 LINE",
"113 -63 OFFCURVE",
"77 -42 OFFCURVE",
"52 -9 CURVE",
"59 -34 OFFCURVE",
"77 -55 OFFCURVE",
"100 -69 CURVE",
"82 -68 OFFCURVE",
"65 -64 OFFCURVE",
"52 -56 CURVE SMOOTH",
"23 -38 OFFCURVE",
"2 2 OFFCURVE",
"-5 43 CURVE",
"-13 2 OFFCURVE",
"11 -42 OFFCURVE",
"47 -64 CURVE SMOOTH",
"68 -77 OFFCURVE",
"95 -82 OFFCURVE",
"119 -79 CURVE",
"130 -83 OFFCURVE",
"140 -86 OFFCURVE",
"151 -86 CURVE SMOOTH",
"194 -89 OFFCURVE",
"241 -60 OFFCURVE",
"258 -20 CURVE",
"229 -50 OFFCURVE",
"191 -66 OFFCURVE",
"157 -66 CURVE"
);
}
);
width = 368;
}
);
leftKerningGroup = I;
rightKerningGroup = I;
unicode = 0049;
userData = {
com.typemytype.robofont.guides = (
{
angle = 90;
isGlobal = 0;
magnetic = 5;
x = 85;
y = 0;
},
{
angle = 90;
isGlobal = 0;
magnetic = 5;
x = 148;
y = 0;
}
);
};
},
{
color = 1;
glyphname = IJ;
layers = (
{
hints = (
{
horizontal = 1;
place = "{-2147483648, 0}";
type = Tag;
name = hr01;
}
);
layerId = "EC64484B-0978-4CB1-9EE9-C40A2D8C4059";
paths = (
{
closed = 1;
nodes = (
"90 781 OFFCURVE",
"115 775 OFFCURVE",
"134 760 CURVE",
"121 781 OFFCURVE",
"92 792 OFFCURVE",
"69 786 CURVE SMOOTH",
"45 781 OFFCURVE",
"24 759 OFFCURVE",
"21 735 CURVE",
"32 756 OFFCURVE",
"52 772 OFFCURVE",
"71 776 CURVE SMOOTH"
);
},
{
closed = 1;
nodes = (
"385 585 OFFCURVE",
"383 572 OFFCURVE",
"380 559 CURVE",
"377 560 OFFCURVE",
"375 561 OFFCURVE",
"373 562 CURVE",
"379 557 LINE",
"371 530 OFFCURVE",
"355 503 OFFCURVE",
"333 482 CURVE",
"359 493 OFFCURVE",
"380 516 OFFCURVE",
"393 543 CURVE",
"420 513 OFFCURVE",
"438 477 OFFCURVE",
"438 444 CURVE SMOOTH",
"438 405 OFFCURVE",
"411 358 OFFCURVE",
"373 327 CURVE",
"419 344 OFFCURVE",
"448 395 OFFCURVE",
"448 444 CURVE SMOOTH",
"448 484 OFFCURVE",
"428 527 OFFCURVE",
"396 550 CURVE",
"399 559 OFFCURVE",
"402 569 OFFCURVE",
"403 578 CURVE",
"410 558 OFFCURVE",
"422 539 OFFCURVE",
"439 525 CURVE",
"412 570 OFFCURVE",
"400 625 OFFCURVE",
"413 665 CURVE SMOOTH",
"426 704 OFFCURVE",
"470 741 OFFCURVE",
"518 760 CURVE",
"466 758 OFFCURVE",
"420 717 OFFCURVE",
"403 668 CURVE SMOOTH",
"399 657 OFFCURVE",
"397 645 OFFCURVE",
"396 633 CURVE",
"383 667 OFFCURVE",
"354 696 OFFCURVE",
"319 706 CURVE",
"357 678 OFFCURVE",
"381 635 OFFCURVE",
"384 597 CURVE SMOOTH"
);
},
{
closed = 1;
nodes = (
"9 444 OFFCURVE",
"-4 476 OFFCURVE",
"-4 504 CURVE SMOOTH",
"-4 531 OFFCURVE",
"9 563 OFFCURVE",
"35 585 CURVE",
"3 574 OFFCURVE",
"-24 538 OFFCURVE",
"-24 504 CURVE SMOOTH",
"-24 501 OFFCURVE",
"-24 498 OFFCURVE",
"-23 495 CURVE",
"-52 531 OFFCURVE",
"-69 574 OFFCURVE",
"-66 611 CURVE SMOOTH",
"-61 655 OFFCURVE",
"-25 703 OFFCURVE",
"21 735 CURVE",
"-33 721 OFFCURVE",
"-70 667 OFFCURVE",
"-75 612 CURVE SMOOTH",
"-80 563 OFFCURVE",
"-60 510 OFFCURVE",
"-21 483 CURVE",
"-13 456 OFFCURVE",
"9 432 OFFCURVE",
"35 422 CURVE"
);
},
{
closed = 1;
nodes = (
"448 643 OFFCURVE",
"455 599 OFFCURVE",
"479 573 CURVE",
"465 605 OFFCURVE",
"469 640 OFFCURVE",
"481 664 CURVE SMOOTH",
"494 689 OFFCURVE",
"520 712 OFFCURVE",
"554 720 CURVE",
"519 724 OFFCURVE",
"479 704 OFFCURVE",
"463 674 CURVE SMOOTH"
);
},
{
closed = 1;
nodes = (
"110 681 OFFCURVE",
"130 682 OFFCURVE",
"147 681 CURVE SMOOTH",
"165 681 OFFCURVE",
"185 677 OFFCURVE",
"198 660 CURVE",
"192 681 OFFCURVE",
"170 704 OFFCURVE",
"149 705 CURVE SMOOTH",
"127 706 OFFCURVE",
"103 685 OFFCURVE",
"95 665 CURVE"
);
},
{
closed = 1;
nodes = (
"625 683 OFFCURVE",
"652 679 OFFCURVE",
"672 660 CURVE",
"659 685 OFFCURVE",
"628 707 OFFCURVE",
"600 704 CURVE SMOOTH",
"572 701 OFFCURVE",
"546 672 OFFCURVE",
"539 645 CURVE",
"555 668 OFFCURVE",
"580 678 OFFCURVE",
"602 680 CURVE SMOOTH"
);
},
{
closed = 1;
nodes = (
"258 642 OFFCURVE",
"271 636 OFFCURVE",
"273 621 CURVE",
"276 636 OFFCURVE",
"274 660 OFFCURVE",
"262 668 CURVE SMOOTH",
"249 676 OFFCURVE",
"226 669 OFFCURVE",
"214 660 CURVE",
"228 664 OFFCURVE",
"239 655 OFFCURVE",
"249 648 CURVE SMOOTH"
);
},
{
closed = 1;
nodes = (
"711 634 OFFCURVE",
"721 628 OFFCURVE",
"718 617 CURVE",
"724 626 OFFCURVE",
"732 646 OFFCURVE",
"725 655 CURVE SMOOTH",
"719 664 OFFCURVE",
"698 663 OFFCURVE",
"688 660 CURVE",
"699 659 OFFCURVE",
"701 648 OFFCURVE",
"706 641 CURVE SMOOTH"
);
},
{
closed = 1;
nodes = (
"66 638 OFFCURVE",
"39 606 OFFCURVE",
"39 575 CURVE SMOOTH",
"39 544 OFFCURVE",
"66 512 OFFCURVE",
"95 502 CURVE",
"71 521 OFFCURVE",
"63 551 OFFCURVE",
"63 575 CURVE SMOOTH",
"63 600 OFFCURVE",
"71 629 OFFCURVE",
"95 649 CURVE"
);
},
{
closed = 1;
nodes = (
"503 616 OFFCURVE",
"472 576 OFFCURVE",
"472 537 CURVE SMOOTH",
"472 499 OFFCURVE",
"503 459 OFFCURVE",
"539 446 CURVE",
"509 470 OFFCURVE",
"496 507 OFFCURVE",
"496 537 CURVE SMOOTH",
"496 568 OFFCURVE",
"509 604 OFFCURVE",
"539 629 CURVE"
);
},
{
closed = 1;
nodes = (
"886 564 OFFCURVE",
"860 610 OFFCURVE",
"818 625 CURVE",
"852 597 OFFCURVE",
"876 555 OFFCURVE",
"876 519 CURVE SMOOTH",
"876 495 OFFCURVE",
"865 468 OFFCURVE",
"847 445 CURVE",
"839 480 OFFCURVE",
"812 513 OFFCURVE",
"778 525 CURVE",
"810 498 OFFCURVE",
"829 458 OFFCURVE",
"830 425 CURVE",
"826 421 OFFCURVE",
"822 417 OFFCURVE",
"818 414 CURVE",
"822 415 OFFCURVE",
"826 417 OFFCURVE",
"830 419 CURVE",
"829 385 OFFCURVE",
"810 345 OFFCURVE",
"778 318 CURVE",
"819 333 OFFCURVE",
"850 378 OFFCURVE",
"850 422 CURVE SMOOTH",
"850 426 OFFCURVE",
"850 429 OFFCURVE",
"849 433 CURVE",
"873 455 OFFCURVE",
"886 487 OFFCURVE",
"886 519 CURVE SMOOTH"
);
},
{
closed = 1;
nodes = (
"303 512 OFFCURVE",
"295 484 OFFCURVE",
"273 466 CURVE",
"301 476 OFFCURVE",
"327 506 OFFCURVE",
"327 535 CURVE SMOOTH",
"327 565 OFFCURVE",
"301 595 OFFCURVE",
"273 605 CURVE",
"295 586 OFFCURVE",
"303 559 OFFCURVE",
"303 535 CURVE SMOOTH"
);
},
{
closed = 1;
nodes = (
"743 519 OFFCURVE",
"738 494 OFFCURVE",
"718 477 CURVE",
"742 486 OFFCURVE",
"767 513 OFFCURVE",
"767 539 CURVE SMOOTH",
"767 565 OFFCURVE",
"742 592 OFFCURVE",
"718 601 CURVE",
"738 584 OFFCURVE",
"743 560 OFFCURVE",
"743 539 CURVE SMOOTH"
);
},
{
closed = 1;
nodes = (
"62 474 OFFCURVE",
"33 437 OFFCURVE",
"33 402 CURVE SMOOTH",
"33 367 OFFCURVE",
"62 330 OFFCURVE",
"95 318 CURVE",
"68 341 OFFCURVE",
"57 374 OFFCURVE",
"57 402 CURVE SMOOTH",
"57 430 OFFCURVE",
"68 463 OFFCURVE",
"95 486 CURVE"
);
},
{
closed = 1;
nodes = (
"741 442 OFFCURVE",
"749 414 OFFCURVE",
"749 390 CURVE SMOOTH",
"749 366 OFFCURVE",
"741 337 OFFCURVE",
"718 318 CURVE",
"746 328 OFFCURVE",
"773 360 OFFCURVE",
"773 390 CURVE SMOOTH",
"773 420 OFFCURVE",
"746 451 OFFCURVE",
"718 462 CURVE"
);
},
{
closed = 1;
nodes = (
"341 395 OFFCURVE",
"310 436 OFFCURVE",
"273 450 CURVE",
"303 424 OFFCURVE",
"317 387 OFFCURVE",
"317 356 CURVE SMOOTH",
"317 324 OFFCURVE",
"303 288 OFFCURVE",
"273 262 CURVE",
"310 276 OFFCURVE",
"341 317 OFFCURVE",
"341 356 CURVE SMOOTH"
);
},
{
closed = 1;
nodes = (
"514 420 OFFCURVE",
"489 393 OFFCURVE",
"489 366 CURVE SMOOTH",
"489 339 OFFCURVE",
"514 311 OFFCURVE",
"539 302 CURVE",
"518 319 OFFCURVE",
"513 344 OFFCURVE",
"513 366 CURVE SMOOTH",
"513 387 OFFCURVE",
"518 412 OFFCURVE",
"539 430 CURVE"
);
},
{
closed = 1;
nodes = (
"67 292 OFFCURVE",
"40 261 OFFCURVE",
"40 230 CURVE SMOOTH",
"40 200 OFFCURVE",
"67 169 OFFCURVE",
"95 159 CURVE",
"72 178 OFFCURVE",
"64 206 OFFCURVE",
"64 230 CURVE SMOOTH",
"64 254 OFFCURVE",
"72 283 OFFCURVE",
"95 302 CURVE"
);
},
{
closed = 1;
nodes = (
"773 244 OFFCURVE",
"750 285 OFFCURVE",
"718 302 CURVE",
"742 275 OFFCURVE",
"749 240 OFFCURVE",
"745 212 CURVE SMOOTH",
"740 184 OFFCURVE",
"724 152 OFFCURVE",
"694 133 CURVE",
"729 141 OFFCURVE",
"763 173 OFFCURVE",
"768 209 CURVE SMOOTH"
);
},
{
closed = 1;
nodes = (
"511 292 OFFCURVE",
"472 281 OFFCURVE",
"457 257 CURVE SMOOTH",
"441 233 OFFCURVE",
"446 193 OFFCURVE",
"464 170 CURVE",
"455 198 OFFCURVE",
"464 225 OFFCURVE",
"477 244 CURVE SMOOTH",
"489 263 OFFCURVE",
"510 282 OFFCURVE",
"539 286 CURVE"
);
},
{
closed = 1;
nodes = (
"291 196 OFFCURVE",
"289 176 OFFCURVE",
"273 163 CURVE",
"293 170 OFFCURVE",
"315 191 OFFCURVE",
"315 212 CURVE SMOOTH",
"315 233 OFFCURVE",
"293 255 OFFCURVE",
"273 262 CURVE",
"289 249 OFFCURVE",
"291 229 OFFCURVE",
"291 212 CURVE SMOOTH"
);
},
{
closed = 1;
nodes = (
"371 217 OFFCURVE",
"338 188 OFFCURVE",
"331 154 CURVE SMOOTH",
"325 121 OFFCURVE",
"344 82 OFFCURVE",
"373 64 CURVE",
"352 90 OFFCURVE",
"346 124 OFFCURVE",
"351 151 CURVE SMOOTH",
"356 177 OFFCURVE",
"374 206 OFFCURVE",
"404 222 CURVE"
);
},
{
closed = 1;
nodes = (
"754 68 OFFCURVE",
"727 45 OFFCURVE",
"692 38 CURVE",
"727 33 OFFCURVE",
"768 52 OFFCURVE",
"785 83 CURVE SMOOTH",
"802 114 OFFCURVE",
"796 159 OFFCURVE",
"773 186 CURVE",
"785 153 OFFCURVE",
"781 117 OFFCURVE",
"768 92 CURVE SMOOTH"
);
},
{
closed = 1;
nodes = (
"416 127 OFFCURVE",
"425 152 OFFCURVE",
"448 167 CURVE",
"421 161 OFFCURVE",
"393 135 OFFCURVE",
"390 108 CURVE SMOOTH",
"386 80 OFFCURVE",
"408 49 OFFCURVE",
"433 37 CURVE",
"414 57 OFFCURVE",
"411 83 OFFCURVE",
"413 105 CURVE SMOOTH"
);
},
{
closed = 1;
nodes = (
"288 46 OFFCURVE",
"312 68 OFFCURVE",
"313 90 CURVE SMOOTH",
"315 113 OFFCURVE",
"294 138 OFFCURVE",
"273 147 CURVE",
"289 131 OFFCURVE",
"291 110 OFFCURVE",
"290 92 CURVE SMOOTH",
"288 74 OFFCURVE",
"284 53 OFFCURVE",
"266 40 CURVE"
);
},
{
closed = 1;
nodes = (
"75 135 OFFCURVE",
"52 113 OFFCURVE",
"52 92 CURVE SMOOTH",
"51 70 OFFCURVE",
"74 48 OFFCURVE",
"94 40 CURVE",
"78 54 OFFCURVE",
"76 74 OFFCURVE",
"76 92 CURVE SMOOTH",
"76 109 OFFCURVE",
"78 129 OFFCURVE",
"95 143 CURVE"
);
},
{
closed = 1;
nodes = (
"650 64 OFFCURVE",
"630 53 OFFCURVE",
"605 56 CURVE",
"627 44 OFFCURVE",
"662 43 OFFCURVE",
"680 59 CURVE SMOOTH",
"699 75 OFFCURVE",
"703 110 OFFCURVE",
"694 133 CURVE",
"694 109 OFFCURVE",
"680 90 OFFCURVE",
"665 77 CURVE SMOOTH"
);
},
{
closed = 1;
nodes = (
"291 -9 OFFCURVE",
"264 -22 OFFCURVE",
"234 -20 CURVE",
"261 -32 OFFCURVE",
"301 -27 OFFCURVE",
"322 -5 CURVE SMOOTH",
"342 16 OFFCURVE",
"346 56 OFFCURVE",
"333 83 CURVE",
"336 53 OFFCURVE",
"324 26 OFFCURVE",
"307 9 CURVE SMOOTH"
);
},
{
closed = 1;
nodes = (
"16 -18 OFFCURVE",
"-3 28 OFFCURVE",
"-5 75 CURVE",
"-19 31 OFFCURVE",
"2 -21 OFFCURVE",
"39 -49 CURVE SMOOTH",
"76 -77 OFFCURVE",
"131 -85 OFFCURVE",
"170 -60 CURVE",
"125 -70 OFFCURVE",
"74 -64 OFFCURVE",
"45 -41 CURVE SMOOTH"
);
},
{
closed = 1;
nodes = (
"574 22 OFFCURVE",
"545 6 OFFCURVE",
"518 1 CURVE SMOOTH",
"492 -4 OFFCURVE",
"459 0 OFFCURVE",
"433 21 CURVE",
"450 -8 OFFCURVE",
"490 -29 OFFCURVE",
"523 -23 CURVE SMOOTH",
"556 -17 OFFCURVE",
"585 18 OFFCURVE",
"590 51 CURVE"
);
},
{
closed = 1;
nodes = (
"156 10 OFFCURVE",
"129 17 OFFCURVE",
"110 40 CURVE",
"120 12 OFFCURVE",
"151 -14 OFFCURVE",
"180 -14 CURVE SMOOTH",
"209 -14 OFFCURVE",
"240 12 OFFCURVE",
"250 40 CURVE",
"231 17 OFFCURVE",
"204 10 OFFCURVE",
"180 10 CURVE SMOOTH"
);
},
{
closed = 1;
nodes = (
"646 -80 OFFCURVE",
"599 -76 OFFCURVE",
"560 -59 CURVE",
"591 -89 OFFCURVE",
"642 -92 OFFCURVE",
"681 -74 CURVE SMOOTH",
"720 -55 OFFCURVE",
"748 -12 OFFCURVE",
"744 31 CURVE",
"734 -11 OFFCURVE",
"708 -50 OFFCURVE",
"677 -65 CURVE SMOOTH"
);
},
{
closed = 1;
nodes = (
"79 -31 OFFCURVE",
"50 -9 OFFCURVE",
"35 23 CURVE",
"38 -12 OFFCURVE",
"67 -48 OFFCURVE",
"101 -57 CURVE SMOOTH",
"135 -66 OFFCURVE",
"178 -49 OFFCURVE",
"198 -20 CURVE",
"169 -40 OFFCURVE",
"134 -45 OFFCURVE",
"106 -38 CURVE SMOOTH"
);
}
);
width = 807;
}
);
leftKerningGroup = I;
unicode = 0132;
userData = {
com.typemytype.robofont.guides = (
{
angle = 90;
isGlobal = 0;
magnetic = 5;
x = 642;
y = 0;
}
);
};
},
{
color = 1;
glyphname = Iogonek;
layers = (
{
hints = (
{
horizontal = 1;
place = "{-2147483648, 0}";
type = Tag;
name = hr01;
}
);
layerId = "EC64484B-0978-4CB1-9EE9-C40A2D8C4059";
paths = (
{
closed = 1;
nodes = (
"-36 503 OFFCURVE",
"-8 460 OFFCURVE",
"30 444 CURVE",
"31 408 OFFCURVE",
"61 371 OFFCURVE",
"95 358 CURVE",
"67 382 OFFCURVE",
"54 416 OFFCURVE",
"54 446 CURVE SMOOTH",
"54 475 OFFCURVE",
"67 510 OFFCURVE",
"95 533 CURVE",
"60 521 OFFCURVE",
"30 483 OFFCURVE",
"30 446 CURVE",
"0 473 OFFCURVE",
"-16 511 OFFCURVE",
"-16 543 CURVE SMOOTH",
"-16 546 LINE",
"-13 543 OFFCURVE",
"-9 540 OFFCURVE",
"-5 537 CURVE",
"-9 542 OFFCURVE",
"-12 548 OFFCURVE",
"-15 554 CURVE",
"-12 586 OFFCURVE",
"5 621 OFFCURVE",
"35 645 CURVE",
"7 634 OFFCURVE",
"-17 610 OFFCURVE",
"-28 581 CURVE",
"-39 609 OFFCURVE",
"-43 638 OFFCURVE",
"-37 661 CURVE SMOOTH",
"-28 698 OFFCURVE",
"8 734 OFFCURVE",
"51 754 CURVE",
"4 750 OFFCURVE",
"-35 709 OFFCURVE",
"-47 664 CURVE SMOOTH",
"-55 631 OFFCURVE",
"-50 595 OFFCURVE",
"-33 567 CURVE",
"-35 559 OFFCURVE",
"-36 551 OFFCURVE",
"-36 543 CURVE SMOOTH"
);
},
{
closed = 1;
nodes = (
"82 716 OFFCURVE",
"105 725 OFFCURVE",
"130 720 CURVE",
"108 733 OFFCURVE",
"74 735 OFFCURVE",
"54 719 CURVE SMOOTH",
"34 703 OFFCURVE",
"27 669 OFFCURVE",
"35 645 CURVE",
"36 670 OFFCURVE",
"50 691 OFFCURVE",
"66 703 CURVE SMOOTH"
);
},
{
closed = 1;
nodes = (
"129 688 OFFCURVE",
"163 700 OFFCURVE",
"192 700 CURVE SMOOTH",
"221 700 OFFCURVE",
"255 688 OFFCURVE",
"278 660 CURVE",
"266 694 OFFCURVE",
"228 724 OFFCURVE",
"192 724 CURVE SMOOTH",
"156 724 OFFCURVE",
"118 694 OFFCURVE",
"106 660 CURVE"
);
},
{
closed = 1;
nodes = (
"300 578 OFFCURVE",
"294 553 OFFCURVE",
"273 537 CURVE",
"298 545 OFFCURVE",
"324 572 OFFCURVE",
"325 598 CURVE SMOOTH",
"326 624 OFFCURVE",
"303 652 OFFCURVE",
"278 663 CURVE",
"298 645 OFFCURVE",
"302 620 OFFCURVE",
"301 599 CURVE SMOOTH"
);
},
{
closed = 1;
nodes = (
"69 651 OFFCURVE",
"46 626 OFFCURVE",
"47 603 CURVE SMOOTH",
"48 579 OFFCURVE",
"73 556 OFFCURVE",
"95 549 CURVE",
"77 564 OFFCURVE",
"72 585 OFFCURVE",
"71 604 CURVE SMOOTH",
"70 622 OFFCURVE",
"73 644 OFFCURVE",
"90 660 CURVE"
);
},
{
closed = 1;
nodes = (
"450 576 OFFCURVE",
"420 628 OFFCURVE",
"373 645 CURVE",
"411 613 OFFCURVE",
"440 566 OFFCURVE",
"440 525 CURVE SMOOTH",
"440 492 OFFCURVE",
"420 454 OFFCURVE",
"392 424 CURVE",
"390 457 OFFCURVE",
"364 490 OFFCURVE",
"333 502 CURVE",
"359 479 OFFCURVE",
"372 447 OFFCURVE",
"372 420 CURVE SMOOTH",
"372 392 OFFCURVE",
"359 360 OFFCURVE",
"333 338 CURVE",
"364 349 OFFCURVE",
"390 382 OFFCURVE",
"392 415 CURVE",
"428 438 OFFCURVE",
"450 482 OFFCURVE",
"450 525 CURVE SMOOTH"
);
},
{
closed = 1;
nodes = (
"304 496 OFFCURVE",
"318 458 OFFCURVE",
"318 426 CURVE SMOOTH",
"318 394 OFFCURVE",
"304 356 OFFCURVE",
"273 330 CURVE",
"311 344 OFFCURVE",
"342 386 OFFCURVE",
"342 426 CURVE SMOOTH",
"342 466 OFFCURVE",
"311 508 OFFCURVE",
"273 521 CURVE"
);
},
{
closed = 1;
nodes = (
"69 333 OFFCURVE",
"44 304 OFFCURVE",
"44 276 CURVE SMOOTH",
"44 249 OFFCURVE",
"69 220 OFFCURVE",
"95 210 CURVE",
"74 228 OFFCURVE",
"68 254 OFFCURVE",
"68 276 CURVE SMOOTH",
"68 298 OFFCURVE",
"74 324 OFFCURVE",
"95 342 CURVE"
);
},
{
closed = 1;
nodes = (
"299 293 OFFCURVE",
"309 261 OFFCURVE",
"309 234 CURVE SMOOTH",
"309 208 OFFCURVE",
"299 176 OFFCURVE",
"273 155 CURVE",
"304 166 OFFCURVE",
"333 201 OFFCURVE",
"333 234 CURVE SMOOTH",
"333 268 OFFCURVE",
"304 303 OFFCURVE",
"273 314 CURVE"
);
},
{
closed = 1;
nodes = (
"64 185 OFFCURVE",
"34 153 OFFCURVE",
"32 120 CURVE SMOOTH",
"30 88 OFFCURVE",
"56 52 OFFCURVE",
"86 39 CURVE",
"62 62 OFFCURVE",
"54 93 OFFCURVE",
"56 119 CURVE SMOOTH",
"57 145 OFFCURVE",
"69 175 OFFCURVE",
"95 194 CURVE"
);
},
{
closed = 1;
nodes = (
"-16 121 OFFCURVE",
"-13 132 OFFCURVE",
"-5 139 CURVE",
"-15 135 OFFCURVE",
"-26 124 OFFCURVE",
"-26 113 CURVE SMOOTH",
"-26 102 OFFCURVE",
"-15 91 OFFCURVE",
"-5 87 CURVE",
"-13 94 OFFCURVE",
"-16 104 OFFCURVE",
"-16 113 CURVE SMOOTH"
);
},
{
closed = 1;
nodes = (
"313 108 OFFCURVE",
"292 131 OFFCURVE",
"273 139 CURVE",
"288 124 OFFCURVE",
"289 105 OFFCURVE",
"288 88 CURVE SMOOTH",
"287 72 OFFCURVE",
"284 52 OFFCURVE",
"268 40 CURVE",
"288 46 OFFCURVE",
"311 66 OFFCURVE",
"312 87 CURVE SMOOTH"
);
},
{
closed = 1;
nodes = (
"-53 -17 OFFCURVE",
"-36 41 OFFCURVE",
"-5 87 CURVE",
"-50 55 OFFCURVE",
"-66 -9 OFFCURVE",
"-51 -63 CURVE SMOOTH",
"-36 -116 OFFCURVE",
"10 -163 OFFCURVE",
"65 -167 CURVE",
"15 -144 OFFCURVE",
"-29 -103 OFFCURVE",
"-41 -60 CURVE SMOOTH"
);
},
{
closed = 1;
nodes = (
"15 -22 OFFCURVE",
"17 13 OFFCURVE",
"35 43 CURVE",
"8 21 OFFCURVE",
"-6 -22 OFFCURVE",
"5 -55 CURVE SMOOTH",
"16 -88 OFFCURVE",
"53 -113 OFFCURVE",
"88 -114 CURVE",
"56 -101 OFFCURVE",
"33 -75 OFFCURVE",
"24 -48 CURVE SMOOTH"
);
},
{
closed = 1;
nodes = (
"82 -14 OFFCURVE",
"79 14 OFFCURVE",
"93 40 CURVE",
"71 21 OFFCURVE",
"58 -17 OFFCURVE",
"68 -44 CURVE SMOOTH",
"79 -72 OFFCURVE",
"115 -91 OFFCURVE",
"144 -90 CURVE",
"116 -81 OFFCURVE",
"99 -58 OFFCURVE",
"91 -36 CURVE SMOOTH"
);
},
{
closed = 1;
nodes = (
"214 -75 OFFCURVE",
"249 -64 OFFCURVE",
"262 -42 CURVE SMOOTH",
"276 -19 OFFCURVE",
"268 17 OFFCURVE",
"252 37 CURVE",
"260 12 OFFCURVE",
"252 -11 OFFCURVE",
"242 -30 CURVE SMOOTH",
"231 -48 OFFCURVE",
"214 -66 OFFCURVE",
"188 -70 CURVE"
);
},
{
closed = 1;
nodes = (
"403 -20 OFFCURVE",
"427 -60 OFFCURVE",
"427 -94 CURVE SMOOTH",
"428 -127 OFFCURVE",
"405 -167 OFFCURVE",
"373 -195 CURVE",
"413 -180 OFFCURVE",
"438 -136 OFFCURVE",
"437 -93 CURVE SMOOTH",
"437 -51 OFFCURVE",
"410 -7 OFFCURVE",
"371 7 CURVE"
);
},
{
closed = 1;
nodes = (
"297 -24 OFFCURVE",
"314 -41 OFFCURVE",
"325 -58 CURVE SMOOTH",
"335 -76 OFFCURVE",
"341 -99 OFFCURVE",
"333 -123 CURVE",
"349 -104 OFFCURVE",
"355 -70 OFFCURVE",
"342 -48 CURVE SMOOTH",
"329 -27 OFFCURVE",
"297 -16 OFFCURVE",
"272 -20 CURVE"
);
},
{
closed = 1;
nodes = (
"220 -87 OFFCURVE",
"240 -103 OFFCURVE",
"254 -120 CURVE SMOOTH",
"267 -137 OFFCURVE",
"278 -160 OFFCURVE",
"273 -187 CURVE",
"287 -164 OFFCURVE",
"289 -126 OFFCURVE",
"272 -105 CURVE SMOOTH",
"255 -84 OFFCURVE",
"218 -77 OFFCURVE",
"192 -86 CURVE"
);
},
{
closed = 1;
nodes = (
"172 -161 OFFCURVE",
"152 -137 OFFCURVE",
"148 -106 CURVE",
"141 -137 OFFCURVE",
"154 -178 OFFCURVE",
"181 -195 CURVE SMOOTH",
"208 -212 OFFCURVE",
"250 -207 OFFCURVE",
"276 -187 CURVE",
"245 -197 OFFCURVE",
"215 -188 OFFCURVE",
"194 -175 CURVE SMOOTH"
);
}
);
width = 368;
}
);
leftKerningGroup = I;
rightKerningGroup = I;
unicode = 012E;
userData = {
com.typemytype.robofont.guides = (
{
angle = 90;
isGlobal = 0;
magnetic = 5;
x = 110;
y = 0;
}
);
};
},
{
color = 1;
glyphname = J;
layers = (
{
hints = (
{
horizontal = 1;
place = "{-2147483648, 0}";
type = Tag;
name = hr00;
}
);
layerId = "EC64484B-0978-4CB1-9EE9-C40A2D8C4059";
paths = (
{
closed = 1;
nodes = (
"280 816 OFFCURVE",
"320 793 OFFCURVE",
"348 760 CURVE",
"333 800 OFFCURVE",
"289 826 OFFCURVE",
"246 826 CURVE SMOOTH",
"204 826 OFFCURVE",
"159 800 OFFCURVE",
"145 760 CURVE",
"172 793 OFFCURVE",
"212 816 OFFCURVE",
"246 816 CURVE SMOOTH"
);
},
{
closed = 1;
nodes = (
"503 760 OFFCURVE",
"536 747 OFFCURVE",
"558 720 CURVE",
"546 753 OFFCURVE",
"510 780 OFFCURVE",
"475 780 CURVE SMOOTH",
"440 780 OFFCURVE",
"403 753 OFFCURVE",
"391 720 CURVE",
"414 747 OFFCURVE",
"447 760 OFFCURVE",
"475 760 CURVE SMOOTH"
);
},
{
closed = 1;
nodes = (
"53 741 OFFCURVE",
"99 759 OFFCURVE",
"145 760 CURVE",
"102 774 OFFCURVE",
"51 754 OFFCURVE",
"23 719 CURVE SMOOTH",
"-6 683 OFFCURVE",
"-14 629 OFFCURVE",
"10 591 CURVE",
"1 635 OFFCURVE",
"8 684 OFFCURVE",
"30 713 CURVE SMOOTH"
);
},
{
closed = 1;
nodes = (
"431 688 OFFCURVE",
"465 701 OFFCURVE",
"495 701 CURVE SMOOTH",
"524 701 OFFCURVE",
"559 688 OFFCURVE",
"582 660 CURVE",
"570 695 OFFCURVE",
"531 725 OFFCURVE",
"495 725 CURVE SMOOTH",
"458 725 OFFCURVE",
"420 695 OFFCURVE",
"407 660 CURVE"
);
},
{
closed = 1;
nodes = (
"254 686 OFFCURVE",
"285 696 OFFCURVE",
"312 696 CURVE SMOOTH",
"339 696 OFFCURVE",
"370 686 OFFCURVE",
"391 660 CURVE",
"380 691 OFFCURVE",
"345 720 OFFCURVE",
"312 720 CURVE SMOOTH",
"278 720 OFFCURVE",
"244 691 OFFCURVE",
"232 660 CURVE"
);
},
{
closed = 1;
nodes = (
"181 682 OFFCURVE",
"202 678 OFFCURVE",
"216 660 CURVE",
"210 682 OFFCURVE",
"187 706 OFFCURVE",
"164 707 CURVE SMOOTH",
"141 708 OFFCURVE",
"116 687 OFFCURVE",
"107 665 CURVE",
"123 682 OFFCURVE",
"145 684 OFFCURVE",
"163 683 CURVE SMOOTH"
);
},
{
closed = 1;
nodes = (
"797 612 OFFCURVE",
"764 670 OFFCURVE",
"712 689 CURVE",
"755 653 OFFCURVE",
"787 601 OFFCURVE",
"787 556 CURVE SMOOTH",
"788 511 OFFCURVE",
"756 458 OFFCURVE",
"713 422 CURVE",
"766 441 OFFCURVE",
"798 500 OFFCURVE",
"797 556 CURVE SMOOTH"
);
},
{
closed = 1;
nodes = (
"56 573 OFFCURVE",
"78 546 OFFCURVE",
"102 534 CURVE",
"115 501 OFFCURVE",
"151 474 OFFCURVE",
"186 474 CURVE SMOOTH",
"222 474 OFFCURVE",
"259 503 OFFCURVE",
"271 537 CURVE",
"248 510 OFFCURVE",
"215 498 OFFCURVE",
"186 498 CURVE SMOOTH",
"159 498 OFFCURVE",
"127 509 OFFCURVE",
"105 533 CURVE",
"105 533 OFFCURVE",
"106 532 OFFCURVE",
"107 532 CURVE",
"86 550 OFFCURVE",
"80 576 OFFCURVE",
"81 599 CURVE SMOOTH",
"81 621 OFFCURVE",
"88 648 OFFCURVE",
"110 665 CURVE",
"83 656 OFFCURVE",
"57 627 OFFCURVE",
"57 599 CURVE SMOOTH"
);
},
{
closed = 1;
nodes = (
"637 573 OFFCURVE",
"633 546 OFFCURVE",
"613 525 CURVE",
"639 538 OFFCURVE",
"661 570 OFFCURVE",
"658 598 CURVE SMOOTH",
"655 627 OFFCURVE",
"626 653 OFFCURVE",
"598 660 CURVE",
"622 644 OFFCURVE",
"632 618 OFFCURVE",
"634 596 CURVE SMOOTH"
);
},
{
closed = 1;
nodes = (
"95 486 OFFCURVE",
"65 511 OFFCURVE",
"51 539 CURVE SMOOTH",
"37 567 OFFCURVE",
"35 606 OFFCURVE",
"50 642 CURVE",
"23 614 OFFCURVE",
"16 565 OFFCURVE",
"33 530 CURVE SMOOTH",
"50 495 OFFCURVE",
"94 473 OFFCURVE",
"133 477 CURVE"
);
},
{
closed = 1;
nodes = (
"325 489 OFFCURVE",
"299 507 OFFCURVE",
"287 537 CURVE",
"288 505 OFFCURVE",
"312 468 OFFCURVE",
"343 458 CURVE SMOOTH",
"373 448 OFFCURVE",
"414 464 OFFCURVE",
"434 489 CURVE",
"407 472 OFFCURVE",
"375 472 OFFCURVE",
"350 480 CURVE SMOOTH"
);
},
{
closed = 1;
nodes = (
"637 489 OFFCURVE",
"646 459 OFFCURVE",
"646 434 CURVE SMOOTH",
"646 408 OFFCURVE",
"637 378 OFFCURVE",
"613 358 CURVE",
"643 369 OFFCURVE",
"670 402 OFFCURVE",
"670 434 CURVE SMOOTH",
"670 465 OFFCURVE",
"643 499 OFFCURVE",
"613 509 CURVE"
);
},
{
closed = 1;
nodes = (
"395 459 OFFCURVE",
"363 417 OFFCURVE",
"363 376 CURVE SMOOTH",
"363 335 OFFCURVE",
"395 292 OFFCURVE",
"434 278 CURVE",
"403 304 OFFCURVE",
"387 343 OFFCURVE",
"387 376 CURVE SMOOTH",
"387 408 OFFCURVE",
"403 447 OFFCURVE",
"434 473 CURVE"
);
},
{
closed = 1;
nodes = (
"338 200 OFFCURVE",
"360 179 OFFCURVE",
"367 149 CURVE",
"371 180 OFFCURVE",
"355 219 OFFCURVE",
"327 233 CURVE SMOOTH",
"318 238 OFFCURVE",
"307 240 OFFCURVE",
"296 240 CURVE",
"295 251 OFFCURVE",
"298 263 OFFCURVE",
"302 272 CURVE",
"312 267 OFFCURVE",
"323 263 OFFCURVE",
"334 262 CURVE",
"324 267 OFFCURVE",
"315 273 OFFCURVE",
"306 279 CURVE",
"309 284 OFFCURVE",
"312 288 OFFCURVE",
"315 292 CURVE SMOOTH",
"328 308 OFFCURVE",
"349 322 OFFCURVE",
"374 322 CURVE",
"350 330 OFFCURVE",
"316 325 OFFCURVE",
"300 305 CURVE SMOOTH",
"297 301 OFFCURVE",
"294 297 OFFCURVE",
"292 292 CURVE",
"279 306 OFFCURVE",
"269 321 OFFCURVE",
"265 337 CURVE SMOOTH",
"257 367 OFFCURVE",
"268 406 OFFCURVE",
"291 437 CURVE",
"259 416 OFFCURVE",
"246 372 OFFCURVE",
"255 335 CURVE SMOOTH",
"260 314 OFFCURVE",
"272 295 OFFCURVE",
"289 281 CURVE",
"286 268 OFFCURVE",
"287 253 OFFCURVE",
"292 240 CURVE",
"272 238 OFFCURVE",
"250 230 OFFCURVE",
"236 217 CURVE",
"265 229 OFFCURVE",
"294 223 OFFCURVE",
"316 212 CURVE SMOOTH"
);
},
{
closed = 1;
nodes = (
"701 390 OFFCURVE",
"714 357 OFFCURVE",
"714 328 CURVE SMOOTH",
"714 299 OFFCURVE",
"700 265 OFFCURVE",
"673 242 CURVE",
"707 254 OFFCURVE",
"734 292 OFFCURVE",
"734 328 CURVE SMOOTH",
"734 364 OFFCURVE",
"707 401 OFFCURVE",
"673 414 CURVE"
);
},
{
closed = 1;
nodes = (
"244 319 OFFCURVE",
"194 354 OFFCURVE",
"146 354 CURVE SMOOTH",
"97 355 OFFCURVE",
"45 322 OFFCURVE",
"28 277 CURVE",
"60 314 OFFCURVE",
"106 335 OFFCURVE",
"145 334 CURVE SMOOTH",
"184 334 OFFCURVE",
"230 311 OFFCURVE",
"260 273 CURVE"
);
},
{
closed = 1;
nodes = (
"635 322 OFFCURVE",
"641 294 OFFCURVE",
"640 271 CURVE SMOOTH",
"639 247 OFFCURVE",
"630 220 OFFCURVE",
"607 202 CURVE",
"635 211 OFFCURVE",
"663 240 OFFCURVE",
"664 270 CURVE SMOOTH",
"665 299 OFFCURVE",
"640 331 OFFCURVE",
"613 342 CURVE"
);
},
{
closed = 1;
nodes = (
"-73 210 OFFCURVE",
"-50 263 OFFCURVE",
"-14 302 CURVE",
"-61 278 OFFCURVE",
"-84 219 OFFCURVE",
"-77 167 CURVE SMOOTH",
"-70 114 OFFCURVE",
"-32 64 OFFCURVE",
"20 53 CURVE",
"-25 81 OFFCURVE",
"-61 126 OFFCURVE",
"-67 168 CURVE SMOOTH"
);
},
{
closed = 1;
nodes = (
"85 242 OFFCURVE",
"116 252 OFFCURVE",
"142 252 CURVE SMOOTH",
"168 252 OFFCURVE",
"199 242 OFFCURVE",
"220 217 CURVE",
"209 248 OFFCURVE",
"175 276 OFFCURVE",
"142 276 CURVE SMOOTH",
"109 276 OFFCURVE",
"75 248 OFFCURVE",
"64 217 CURVE"
);
},
{
closed = 1;
nodes = (
"409 265 OFFCURVE",
"376 252 OFFCURVE",
"365 229 CURVE SMOOTH",
"354 207 OFFCURVE",
"365 173 OFFCURVE",
"382 155 CURVE",
"372 178 OFFCURVE",
"378 201 OFFCURVE",
"387 219 CURVE SMOOTH",
"395 237 OFFCURVE",
"410 256 OFFCURVE",
"434 262 CURVE"
);
},
{
closed = 1;
nodes = (
"45 178 OFFCURVE",
"39 197 OFFCURVE",
"48 217 CURVE",
"33 202 OFFCURVE",
"21 172 OFFCURVE",
"30 152 CURVE SMOOTH",
"39 133 OFFCURVE",
"69 122 OFFCURVE",
"91 124 CURVE",
"70 129 OFFCURVE",
"60 147 OFFCURVE",
"52 162 CURVE SMOOTH"
);
},
{
closed = 1;
nodes = (
"599 179 OFFCURVE",
"604 170 OFFCURVE",
"597 167 CURVE",
"604 168 OFFCURVE",
"622 171 OFFCURVE",
"624 178 CURVE SMOOTH",
"626 185 OFFCURVE",
"613 197 OFFCURVE",
"607 202 CURVE",
"611 196 OFFCURVE",
"603 191 OFFCURVE",
"601 185 CURVE SMOOTH"
);
},
{
closed = 1;
nodes = (
"540 67 OFFCURVE",
"514 54 OFFCURVE",
"484 58 CURVE",
"511 44 OFFCURVE",
"552 45 OFFCURVE",
"574 65 CURVE SMOOTH",
"596 85 OFFCURVE",
"601 125 OFFCURVE",
"590 153 CURVE",
"591 123 OFFCURVE",
"575 99 OFFCURVE",
"558 83 CURVE SMOOTH"
);
},
{
closed = 1;
nodes = (
"235 17 OFFCURVE",
"196 20 OFFCURVE",
"168 33 CURVE SMOOTH",
"139 46 OFFCURVE",
"112 74 OFFCURVE",
"102 111 CURVE",
"98 72 OFFCURVE",
"122 27 OFFCURVE",
"158 11 CURVE SMOOTH",
"193 -5 OFFCURVE",
"243 6 OFFCURVE",
"271 34 CURVE"
);
},
{
closed = 1;
nodes = (
"424 -21 OFFCURVE",
"460 14 OFFCURVE",
"469 52 CURVE",
"448 20 OFFCURVE",
"414 2 OFFCURVE",
"383 -1 CURVE SMOOTH",
"352 -4 OFFCURVE",
"315 5 OFFCURVE",
"287 32 CURVE",
"304 -3 OFFCURVE",
"347 -29 OFFCURVE",
"385 -25 CURVE SMOOTH"
);
},
{
closed = 1;
nodes = (
"502 -99 OFFCURVE",
"441 -91 OFFCURVE",
"391 -67 CURVE",
"430 -107 OFFCURVE",
"496 -113 OFFCURVE",
"546 -90 CURVE SMOOTH",
"597 -67 OFFCURVE",
"636 -15 OFFCURVE",
"633 41 CURVE",
"617 -13 OFFCURVE",
"583 -63 OFFCURVE",
"542 -81 CURVE SMOOTH"
);
},
{
closed = 1;
nodes = (
"386 -57 OFFCURVE",
"340 -76 OFFCURVE",
"303 -74 CURVE SMOOTH",
"265 -72 OFFCURVE",
"221 -48 OFFCURVE",
"193 -10 CURVE",
"206 -56 OFFCURVE",
"254 -92 OFFCURVE",
"301 -94 CURVE SMOOTH",
"349 -97 OFFCURVE",
"400 -66 OFFCURVE",
"419 -23 CURVE"
);
}
);
width = 702;
}
);
leftKerningGroup = J;
rightKerningGroup = U;
unicode = 004A;
userData = {
com.typemytype.robofont.guides = (
{
angle = 0;
isGlobal = 0;
magnetic = 5;
x = 0;
y = "-10";
},
{
angle = 0;
isGlobal = 0;
magnetic = 5;
x = 0;
y = 133;
},
{
angle = 0;
isGlobal = 0;
magnetic = 5;
x = 0;
y = 677;
},
{
angle = 90;
isGlobal = 0;
magnetic = 5;
x = 303;
y = 0;
},
{
angle = 90;
isGlobal = 0;
magnetic = 5;
x = 60;
y = 0;
},
{
angle = 90;
isGlobal = 0;
magnetic = 5;
x = 91;
y = 0;
}
);
};
},
{
color = 1;
glyphname = K;
layers = (
{
layerId = "EC64484B-0978-4CB1-9EE9-C40A2D8C4059";
paths = (
{
closed = 1;
nodes = (
"449 790 OFFCURVE",
"486 781 OFFCURVE",
"516 760 CURVE",
"495 790 OFFCURVE",
"453 802 OFFCURVE",
"418 792 CURVE SMOOTH",
"383 783 OFFCURVE",
"353 751 OFFCURVE",
"350 715 CURVE",
"365 748 OFFCURVE",
"393 775 OFFCURVE",
"421 783 CURVE SMOOTH"
);
},
{
closed = 1;
nodes = (
"457 670 OFFCURVE",
"488 684 OFFCURVE",
"515 687 CURVE SMOOTH",
"542 690 OFFCURVE",
"574 683 OFFCURVE",
"599 660 CURVE",
"584 690 OFFCURVE",
"546 715 OFFCURVE",
"512 711 CURVE SMOOTH",
"478 707 OFFCURVE",
"446 675 OFFCURVE",
"438 642 CURVE"
);
},
{
closed = 1;
nodes = (
"218 681 OFFCURVE",
"244 672 OFFCURVE",
"260 649 CURVE",
"252 677 OFFCURVE",
"225 705 OFFCURVE",
"197 707 CURVE SMOOTH",
"169 709 OFFCURVE",
"138 686 OFFCURVE",
"126 660 CURVE",
"146 680 OFFCURVE",
"173 685 OFFCURVE",
"195 683 CURVE SMOOTH"
);
},
{
closed = 1;
nodes = (
"4 456 OFFCURVE",
"-14 495 OFFCURVE",
"-14 527 CURVE SMOOTH",
"-14 560 OFFCURVE",
"4 599 OFFCURVE",
"35 625 CURVE",
"-4 611 OFFCURVE",
"-34 568 OFFCURVE",
"-34 527 CURVE SMOOTH",
"-34 508 OFFCURVE",
"-28 490 OFFCURVE",
"-18 473 CURVE",
"-48 504 OFFCURVE",
"-69 544 OFFCURVE",
"-68 578 CURVE SMOOTH",
"-68 617 OFFCURVE",
"-40 662 OFFCURVE",
"-3 693 CURVE",
"-49 677 OFFCURVE",
"-78 627 OFFCURVE",
"-78 578 CURVE SMOOTH",
"-79 531 OFFCURVE",
"-53 484 OFFCURVE",
"-11 465 CURVE",
"1 449 OFFCURVE",
"17 436 OFFCURVE",
"35 430 CURVE"
);
},
{
closed = 1;
nodes = (
"666 521 OFFCURVE",
"697 535 OFFCURVE",
"717 557 CURVE",
"732 512 OFFCURVE",
"732 464 OFFCURVE",
"716 430 CURVE SMOOTH",
"696 392 OFFCURVE",
"646 360 OFFCURVE",
"593 348 CURVE",
"607 346 OFFCURVE",
"618 336 OFFCURVE",
"624 327 CURVE SMOOTH",
"629 317 OFFCURVE",
"632 303 OFFCURVE",
"628 290 CURVE",
"637 301 OFFCURVE",
"639 320 OFFCURVE",
"632 332 CURVE SMOOTH",
"628 339 OFFCURVE",
"619 345 OFFCURVE",
"610 347 CURVE",
"658 349 OFFCURVE",
"703 382 OFFCURVE",
"725 426 CURVE SMOOTH",
"746 468 OFFCURVE",
"746 522 OFFCURVE",
"721 562 CURVE",
"725 567 OFFCURVE",
"728 572 OFFCURVE",
"731 577 CURVE SMOOTH",
"749 612 OFFCURVE",
"741 662 OFFCURVE",
"714 690 CURVE",
"730 654 OFFCURVE",
"727 614 OFFCURVE",
"713 586 CURVE SMOOTH",
"700 560 OFFCURVE",
"673 536 OFFCURVE",
"639 526 CURVE",
"642 529 OFFCURVE",
"645 532 OFFCURVE",
"647 536 CURVE SMOOTH",
"667 569 OFFCURVE",
"661 619 OFFCURVE",
"636 649 CURVE",
"649 613 OFFCURVE",
"642 575 OFFCURVE",
"626 548 CURVE SMOOTH",
"610 522 OFFCURVE",
"580 498 OFFCURVE",
"542 492 CURVE",
"574 485 OFFCURVE",
"613 498 OFFCURVE",
"637 522 CURVE"
);
},
{
closed = 1;
nodes = (
"635 659 OFFCURVE",
"640 667 OFFCURVE",
"645 663 CURVE",
"642 669 OFFCURVE",
"634 683 OFFCURVE",
"628 682 CURVE SMOOTH",
"621 682 OFFCURVE",
"616 666 OFFCURVE",
"615 660 CURVE",
"618 665 OFFCURVE",
"625 658 OFFCURVE",
"630 659 CURVE SMOOTH"
);
},
{
closed = 1;
nodes = (
"354 650 OFFCURVE",
"365 649 OFFCURVE",
"368 639 CURVE",
"368 650 OFFCURVE",
"363 668 OFFCURVE",
"353 672 CURVE SMOOTH",
"343 676 OFFCURVE",
"327 666 OFFCURVE",
"320 657 CURVE",
"329 663 OFFCURVE",
"338 656 OFFCURVE",
"346 653 CURVE SMOOTH"
);
},
{
closed = 1;
nodes = (
"85 598 OFFCURVE",
"89 612 OFFCURVE",
"92 625 CURVE SMOOTH",
"94 637 OFFCURVE",
"96 652 OFFCURVE",
"110 660 CURVE",
"94 658 OFFCURVE",
"71 645 OFFCURVE",
"68 629 CURVE SMOOTH",
"65 614 OFFCURVE",
"81 594 OFFCURVE",
"95 585 CURVE"
);
},
{
closed = 1;
nodes = (
"291 557 OFFCURVE",
"291 551 OFFCURVE",
"290 545 CURVE",
"274 534 OFFCURVE",
"263 512 OFFCURVE",
"260 491 CURVE",
"260 491 OFFCURVE",
"260 491 OFFCURVE",
"260 491 CURVE",
"260 486 OFFCURVE",
"259 480 OFFCURVE",
"260 475 CURVE",
"262 482 OFFCURVE",
"265 489 OFFCURVE",
"269 495 CURVE",
"282 502 OFFCURVE",
"294 513 OFFCURVE",
"303 526 CURVE SMOOTH",
"304 527 OFFCURVE",
"306 527 OFFCURVE",
"307 528 CURVE",
"326 537 OFFCURVE",
"352 543 OFFCURVE",
"377 532 CURVE",
"362 547 OFFCURVE",
"337 556 OFFCURVE",
"314 554 CURVE",
"315 557 OFFCURVE",
"315 559 OFFCURVE",
"315 562 CURVE SMOOTH",
"315 592 OFFCURVE",
"288 623 OFFCURVE",
"260 633 CURVE",
"283 614 OFFCURVE",
"291 586 OFFCURVE",
"291 562 CURVE SMOOTH"
);
},
{
closed = 1;
nodes = (
"395 606 OFFCURVE",
"408 624 OFFCURVE",
"431 628 CURVE",
"408 632 OFFCURVE",
"376 622 OFFCURVE",
"365 602 CURVE SMOOTH",
"353 582 OFFCURVE",
"362 549 OFFCURVE",
"377 532 CURVE",
"369 553 OFFCURVE",
"377 574 OFFCURVE",
"386 590 CURVE SMOOTH"
);
},
{
closed = 1;
nodes = (
"67 421 OFFCURVE",
"56 455 OFFCURVE",
"56 484 CURVE SMOOTH",
"56 512 OFFCURVE",
"67 546 OFFCURVE",
"95 569 CURVE",
"61 557 OFFCURVE",
"32 520 OFFCURVE",
"32 484 CURVE SMOOTH",
"32 448 OFFCURVE",
"61 410 OFFCURVE",
"95 398 CURVE"
);
},
{
closed = 1;
nodes = (
"514 338 OFFCURVE",
"551 359 OFFCURVE",
"561 388 CURVE SMOOTH",
"572 418 OFFCURVE",
"558 458 OFFCURVE",
"534 478 CURVE",
"549 451 OFFCURVE",
"548 420 OFFCURVE",
"539 397 CURVE SMOOTH",
"530 373 OFFCURVE",
"512 348 OFFCURVE",
"482 338 CURVE"
);
},
{
closed = 1;
nodes = (
"68 372 OFFCURVE",
"42 343 OFFCURVE",
"42 314 CURVE SMOOTH",
"42 286 OFFCURVE",
"68 256 OFFCURVE",
"95 246 CURVE",
"73 265 OFFCURVE",
"66 291 OFFCURVE",
"66 314 CURVE SMOOTH",
"66 337 OFFCURVE",
"73 364 OFFCURVE",
"95 382 CURVE"
);
},
{
closed = 1;
nodes = (
"554 318 OFFCURVE",
"518 329 OFFCURVE",
"490 324 CURVE",
"518 320 OFFCURVE",
"536 301 OFFCURVE",
"548 282 CURVE SMOOTH",
"559 263 OFFCURVE",
"567 237 OFFCURVE",
"558 211 CURVE",
"575 233 OFFCURVE",
"582 270 OFFCURVE",
"568 294 CURVE SMOOTH"
);
},
{
closed = 1;
nodes = (
"349 158 OFFCURVE",
"370 162 OFFCURVE",
"385 171 CURVE",
"362 166 OFFCURVE",
"342 175 OFFCURVE",
"327 186 CURVE",
"320 205 OFFCURVE",
"307 223 OFFCURVE",
"292 235 CURVE",
"291 239 OFFCURVE",
"290 244 OFFCURVE",
"290 249 CURVE",
"287 238 LINE",
"283 241 OFFCURVE",
"279 243 OFFCURVE",
"275 245 CURVE",
"279 241 OFFCURVE",
"283 236 OFFCURVE",
"286 232 CURVE",
"284 210 OFFCURVE",
"291 184 OFFCURVE",
"307 172 CURVE",
"307 156 LINE",
"304 128 OFFCURVE",
"289 95 OFFCURVE",
"260 75 CURVE",
"295 84 OFFCURVE",
"327 118 OFFCURVE",
"331 154 CURVE SMOOTH",
"331 161 LINE"
);
},
{
closed = 1;
nodes = (
"68 221 OFFCURVE",
"42 191 OFFCURVE",
"42 163 CURVE SMOOTH",
"42 134 OFFCURVE",
"68 105 OFFCURVE",
"95 95 CURVE",
"73 113 OFFCURVE",
"66 140 OFFCURVE",
"66 163 CURVE SMOOTH",
"66 185 OFFCURVE",
"73 212 OFFCURVE",
"95 230 CURVE"
);
},
{
closed = 1;
nodes = (
"10 -18 OFFCURVE",
"-1 8 OFFCURVE",
"-4 37 CURVE",
"8 23 OFFCURVE",
"23 13 OFFCURVE",
"39 7 CURVE",
"7 33 OFFCURVE",
"-12 72 OFFCURVE",
"-13 106 CURVE SMOOTH",
"-13 139 OFFCURVE",
"4 179 OFFCURVE",
"35 206 CURVE",
"-4 191 OFFCURVE",
"-34 147 OFFCURVE",
"-33 105 CURVE SMOOTH",
"-32 84 OFFCURVE",
"-24 62 OFFCURVE",
"-10 44 CURVE",
"-15 13 OFFCURVE",
"-2 -20 OFFCURVE",
"20 -41 CURVE SMOOTH",
"48 -67 OFFCURVE",
"92 -77 OFFCURVE",
"126 -60 CURVE",
"88 -64 OFFCURVE",
"49 -55 OFFCURVE",
"27 -34 CURVE SMOOTH"
);
},
{
closed = 1;
nodes = (
"596 193 OFFCURVE",
"619 172 OFFCURVE",
"631 151 CURVE SMOOTH",
"644 130 OFFCURVE",
"651 100 OFFCURVE",
"641 71 CURVE",
"661 95 OFFCURVE",
"668 137 OFFCURVE",
"652 163 CURVE SMOOTH",
"636 190 OFFCURVE",
"596 203 OFFCURVE",
"566 198 CURVE"
);
},
{
closed = 1;
nodes = (
"732 157 OFFCURVE",
"687 183 OFFCURVE",
"646 180 CURVE",
"685 169 OFFCURVE",
"717 141 OFFCURVE",
"731 112 CURVE SMOOTH",
"745 82 OFFCURVE",
"745 39 OFFCURVE",
"728 2 CURVE",
"757 31 OFFCURVE",
"767 83 OFFCURVE",
"749 120 CURVE SMOOTH"
);
},
{
closed = 1;
nodes = (
"391 107 OFFCURVE",
"384 132 OFFCURVE",
"393 157 CURVE",
"376 136 OFFCURVE",
"367 100 OFFCURVE",
"380 77 CURVE SMOOTH",
"393 53 OFFCURVE",
"429 41 OFFCURVE",
"455 45 CURVE",
"429 51 OFFCURVE",
"412 70 OFFCURVE",
"401 88 CURVE SMOOTH"
);
},
{
closed = 1;
nodes = (
"331 86 OFFCURVE",
"320 95 OFFCURVE",
"320 110 CURVE",
"315 96 OFFCURVE",
"317 73 OFFCURVE",
"328 63 CURVE SMOOTH",
"340 54 OFFCURVE",
"363 58 OFFCURVE",
"375 65 CURVE",
"361 63 OFFCURVE",
"350 71 OFFCURVE",
"341 79 CURVE SMOOTH"
);
},
{
closed = 1;
nodes = (
"105 63 OFFCURVE",
"94 67 OFFCURVE",
"95 79 CURVE",
"90 68 OFFCURVE",
"86 47 OFFCURVE",
"94 39 CURVE SMOOTH",
"102 31 OFFCURVE",
"123 35 OFFCURVE",
"134 40 CURVE",
"122 39 OFFCURVE",
"118 50 OFFCURVE",
"111 56 CURVE SMOOTH"
);
},
{
closed = 1;
nodes = (
"190 25 OFFCURVE",
"168 25 OFFCURVE",
"150 40 CURVE",
"161 20 OFFCURVE",
"189 0 OFFCURVE",
"212 4 CURVE SMOOTH",
"236 8 OFFCURVE",
"256 36 OFFCURVE",
"260 59 CURVE",
"248 38 OFFCURVE",
"227 31 OFFCURVE",
"208 28 CURVE SMOOTH"
);
},
{
closed = 1;
nodes = (
"647 40 OFFCURVE",
"661 39 OFFCURVE",
"663 43 CURVE SMOOTH",
"664 46 OFFCURVE",
"652 55 OFFCURVE",
"649 57 CURVE",
"651 54 OFFCURVE",
"641 54 OFFCURVE",
"640 51 CURVE SMOOTH",
"639 48 OFFCURVE",
"647 41 OFFCURVE",
"643 40 CURVE"
);
},
{
closed = 1;
nodes = (
"478 8 OFFCURVE",
"513 -20 OFFCURVE",
"547 -20 CURVE SMOOTH",
"581 -20 OFFCURVE",
"616 8 OFFCURVE",
"627 40 CURVE",
"605 14 OFFCURVE",
"574 4 OFFCURVE",
"547 4 CURVE SMOOTH",
"520 4 OFFCURVE",
"489 14 OFFCURVE",
"467 40 CURVE"
);
},
{
closed = 1;
nodes = (
"548 -132 OFFCURVE",
"495 -101 OFFCURVE",
"459 -60 CURVE",
"479 -111 OFFCURVE",
"537 -142 OFFCURVE",
"593 -141 CURVE SMOOTH",
"648 -140 OFFCURVE",
"705 -106 OFFCURVE",
"722 -54 CURVE",
"688 -97 OFFCURVE",
"637 -130 OFFCURVE",
"592 -131 CURVE SMOOTH"
);
}
);
width = 715;
}
);
leftKerningGroup = I;
rightKerningGroup = K;
unicode = 004B;
userData = {
com.typemytype.robofont.guides = (
{
angle = 0;
isGlobal = 0;
magnetic = 5;
x = 0;
y = 365;
},
{
angle = 90;
isGlobal = 0;
magnetic = 5;
x = 547;
y = 0;
},
{
angle = 90;
isGlobal = 0;
magnetic = 5;
x = 94;
y = 0;
},
{
angle = 90;
isGlobal = 0;
magnetic = 5;
x = 139;
y = 0;
}
);
};
},
